<svg xmlns="http://www.w3.org/2000/svg" viewBox="0 0 302.69 157.03"><title>WebAssembly logo</title><defs><style>.cls-2{fill:#654ff0}</style></defs><path fill="#393939" d="M26.79 156.68H22.2l-4.34-15.24q-.28-1-.7-2.88t-.51-2.61q-.18 1.12-.57 2.9t-.66 2.66l-4.23 15.17H6.66l-3.3-12.8L0 131.12h4.27L7.92 146a64.24 64.24 0 0 1 1.22 6.33q.19-1.49.58-3.32t.7-3l4.16-14.93h4.14l4.27 15a56.12 56.12 0 0 1 1.29 6.22 45.58 45.58 0 0 1 1.26-6.3l3.64-14.86h4.23Zm27.91 0H40.25v-25.56H54.7v3.53H44.42v7h9.63v3.5h-9.63v8H54.7Zm8.75-25.56h7.59q5.28 0 7.63 1.54a5.39 5.39 0 0 1 2.35 4.86 5.89 5.89 0 0 1-1.15 3.72 5.16 5.16 0 0 1-3.32 1.87v.17a6.6 6.6 0 0 1 4 2 6.06 6.06 0 0 1 1.27 4 6.56 6.56 0 0 1-2.4 5.39 10.34 10.34 0 0 1-6.69 1.95h-9.28Zm4.18 10.56h4a6.88 6.88 0 0 0 3.83-.83 3.18 3.18 0 0 0 1.22-2.85 2.83 2.83 0 0 0-1.3-2.6 8.14 8.14 0 0 0-4.13-.8h-3.62Zm0 3.39v8.09h4.44a6.54 6.54 0 0 0 4-1 3.71 3.71 0 0 0 1.29-3.16 3.37 3.37 0 0 0-1.36-3 7.22 7.22 0 0 0-4.14-1Zm41.03 11.61-3.18-8.13H95.23l-3.15 8.13h-3L99.18 131h2.5l10.05 25.66Zm-4.11-10.8-3-7.92q-.58-1.5-1.19-3.69a33.24 33.24 0 0 1-1.07 3.73l-3 7.92Zm30.49 4a6.27 6.27 0 0 1-2.45 5.26 10.61 10.61 0 0 1-6.64 1.89 16.64 16.64 0 0 1-7-1.17V153a18.33 18.33 0 0 0 3.43 1 18 18 0 0 0 3.67.38 7.41 7.41 0 0 0 4.48-1.13 3.7 3.7 0 0 0 1.5-3.14 4 4 0 0 0-.53-2.18 5 5 0 0 0-1.78-1.57 24.92 24.92 0 0 0-3.8-1.62 12.14 12.14 0 0 1-5.1-3 6.68 6.68 0 0 1-1.53-4.56 5.67 5.67 0 0 1 2.22-4.7 9.23 9.23 0 0 1 5.87-1.75 17.31 17.31 0 0 1 7 1.4l-.93 2.59a15.84 15.84 0 0 0-6.15-1.33 6 6 0 0 0-3.69 1 3.34 3.34 0 0 0-1.33 2.81 4.31 4.31 0 0 0 .49 2.18 4.6 4.6 0 0 0 1.65 1.56 20.48 20.48 0 0 0 3.56 1.57 14.08 14.08 0 0 1 5.53 3.08 6.05 6.05 0 0 1 1.53 4.29Zm25.02 0a6.27 6.27 0 0 1-2.45 5.26 10.61 10.61 0 0 1-6.64 1.89 16.64 16.64 0 0 1-7-1.17V153a18.33 18.33 0 0 0 3.43 1 18 18 0 0 0 3.67.38 7.41 7.41 0 0 0 4.48-1.13 3.7 3.7 0 0 0 1.5-3.14 4 4 0 0 0-.53-2.18 5 5 0 0 0-1.78-1.57 24.92 24.92 0 0 0-3.8-1.62 12.14 12.14 0 0 1-5.1-3 6.68 6.68 0 0 1-1.53-4.56 5.67 5.67 0 0 1 2.22-4.7 9.23 9.23 0 0 1 5.87-1.75 17.31 17.31 0 0 1 7 1.4l-.93 2.59a15.84 15.84 0 0 0-6.15-1.33 6 6 0 0 0-3.69 1 3.34 3.34 0 0 0-1.33 2.81 4.31 4.31 0 0 0 .49 2.18 4.6 4.6 0 0 0 1.65 1.56 20.48 20.48 0 0 0 3.56 1.57 14.08 14.08 0 0 1 5.53 3.08 6.05 6.05 0 0 1 1.53 4.29Zm24.84 6.8h-14.24v-25.56h14.25v2.64h-11.28V142h10.59v2.62h-10.59V154h11.28Zm22.35 0L198.58 134h-.14q.24 2.69.25 6.4v16.26h-2.74v-25.54h4.48l8.09 21.08h.14l8.13-21.08h4.44v25.56h-3v-16.47q0-2.83.25-6.15h-.14l-8.74 22.62Zm26.38-25.56h7.22q5.09 0 7.36 1.52a5.37 5.37 0 0 1 2.27 4.81 5.55 5.55 0 0 1-1.27 3.75 6.1 6.1 0 0 1-3.7 1.91v.17q5.82 1 5.82 6.12a6.57 6.57 0 0 1-2.32 5.35 9.86 9.86 0 0 1-6.48 1.92h-8.92Zm3 10.94h4.89a8 8 0 0 0 4.53-1 3.81 3.81 0 0 0 1.38-3.33 3.37 3.37 0 0 0-1.54-3.1 9.61 9.61 0 0 0-4.9-1h-4.37Zm0 2.52v9.56h5.33a7.59 7.59 0 0 0 4.66-1.2 4.42 4.42 0 0 0 1.56-3.75 4 4 0 0 0-1.6-3.5 8.55 8.55 0 0 0-4.87-1.12Zm25.57 12.1v-25.56h3V154h11.28v2.69Zm30.45-12.78 6.82-12.78h3.22l-8.53 15.64v9.91h-3v-9.77l-8.51-15.79h3.25Z"/><path d="M163.55 0v.58a12.34 12.34 0 0 1-24.68 0V0H97.43v107.62h107.62V0Zm-14.76 96.1-5.24-25.93h-.09l-5.67 25.93h-7.22L122.39 58h7.13l4.88 25.93h.09L140.37 58h6.67l5.28 26.25h.09L157.98 58h7l-9.09 38.1Zm39.26 0-2.43-8.48h-12.83l-1.87 8.48h-7.13l9.22-38.1h11.25l11.21 38.1Z" class="cls-2"/><path d="m177.3 67.39-3.11 13.98h9.68l-3.57-13.98h-3z" class="cls-2"/></svg>