<svg xmlns="http://www.w3.org/2000/svg" viewBox="0 0 450 251.5"><title>Bytecode Alliance logo</title><linearGradient id="a" gradientUnits="userSpaceOnUse" x1="0" y1="127.9" x2="450" y2="127.9" gradientTransform="matrix(1 0 0 -1 0 253.6)"><stop offset="0" style="stop-color:#8654d6"/><stop offset=".131" style="stop-color:#6379db"/><stop offset=".5" style="stop-color:#03dde8"/><stop offset=".818" style="stop-color:#2befb3"/><stop offset="1" style="stop-color:#3ef79a"/></linearGradient><path d="M425 100.7H325c-13.8 0-25-11.2-25-25s11.2-25 25-25h25c13.8 0 25-11.2 25-25s-11.2-25-25-25H25C11.2.7 0 11.9 0 25.7s11.2 25 25 25h100c13.8 0 25 11.2 25 25s-11.2 25-25 25H50c-13.8 0-25 11.2-25 25s11.2 25 25 25h100c13.8 0 25 11.2 25 25s-11.2 25-25 25h-50c-13.8 0-25 11.2-25 25s11.2 25 25 25h200c13.8 0 25-11.2 25-25s-11.2-25-25-25h-25c-13.8 0-25-11.2-25-25s11.2-25 25-25h150c13.8 0 25-11.2 25-25s-11.2-25-25-25z" style="fill:url(#a)"/><path d="M375 250.7h50c13.8 0 25-11.2 25-25s-11.2-25-25-25h-50c-13.8 0-25 11.2-25 25s11.2 25 25 25z" style="fill:#03dde8"/><circle cx="25" cy="225.7" r="25" style="fill:#8654d6"/><circle cx="425" cy="25.7" r="25" style="fill:#3ef79a"/></svg>