<svg width="307" height="307" viewBox="0 0 307 307" fill="none" xmlns="http://www.w3.org/2000/svg">
<g clip-path="url(#clip0_2_9)">
<path d="M0 0L116.168 0.46283L132.933 58.1895L137.448 42.8897L156.51 106.346L169.301 60.6977L176.575 73.2386L188.614 0H307V307H0V0Z" fill="#E0BC8C"/>
<path d="M71.3123 165.444H91.6586L105.549 239.42H105.8L122.494 165.444H141.526L156.605 240.328H156.901L172.733 165.444H192.688L166.758 274.143H146.567L131.614 200.167H131.222L115.215 274.143H94.6483L71.3123 165.444ZM215.627 165.444H247.702L279.556 274.143H258.567L251.64 249.954H215.101L209.753 274.143H189.312L215.627 165.444ZM227.837 192.236L218.963 232.116H246.583L236.395 192.236H227.837Z" fill="white"/>
</g>
<defs>
<clipPath id="clip0_2_9">
<rect width="307" height="307" fill="white"/>
</clipPath>
</defs>
</svg>
