<svg xmlns="http://www.w3.org/2000/svg" xml:space="preserve" viewBox="0 0 4116 3964"><path fill="none" d="M1986 2h2132c0 1155.403 0 2310.806-.604 3466.615-3.035-8.175-4.484-17.202-8.142-25.222-4.661-10.219-10.437-20.097-16.919-29.285-16.366-23.198-36.215-43.272-57.051-62.53-33.289-30.766-68.941-58.546-105.561-85.106-76.838-55.728-156.665-106.967-238.083-155.663-64.504-38.579-129.82-75.8-194.784-113.61-7.7-4.483-15.446-8.888-23.468-13.5 3.795-5.453 6.962-10.135 10.26-14.721 29.751-41.362 57.574-83.996 83.66-127.747 35.629-59.758 68.012-121.229 96.707-184.638 23.725-52.427 45.204-105.741 63.966-160.138 24.618-71.375 45.072-143.898 60.798-217.785 12.235-57.49 22.172-115.346 28.74-173.724 4.226-37.553 7.518-75.245 9.939-112.958 1.958-30.51 2.572-61.143 2.707-91.726.126-28.591-.868-57.2-1.92-85.78-.891-24.21-1.996-48.44-4.041-72.574-2.77-32.699-6.173-65.355-9.944-97.955-5.648-48.82-14.342-97.156-24.553-145.215-12.366-58.205-27.478-115.697-45.514-172.406-16.53-51.975-35.107-103.206-56.102-153.559-33.97-81.472-73.303-160.248-118.43-236.117-37.635-63.275-78.773-124.176-123.505-182.668-46.115-60.301-95.846-117.46-148.707-171.9-15.542-16.006-31.524-31.611-47.805-46.865-24.022-22.506-47.998-45.104-72.874-66.646-52.582-45.535-107.605-87.979-164.957-127.381-67.279-46.221-137.023-88.361-209.837-125.225-36.181-18.318-73.015-35.407-110-52.061-65.546-29.518-133.03-54.06-201.68-75.27-61.6-19.033-124.004-35.03-187.296-47.55-42.987-8.501-86.104-16.088-129.6-21.42-18.1-2.22-36.207-4.433-54.353-6.213-26.391-2.588-52.8-5.071-79.244-7.044-17.879-1.333-35.829-1.71-53.795-2.99C1985.959 2.95 1986 2 1986 2m1800 3964H2c0-669.403 0-1338.806.638-2009.184 1.055-1.07 1.472-1.166 2.362-.546 2.528 33.837 4.013 67.007 6.812 100.065 2.517 29.718 6.07 59.367 9.885 88.953 8.158 63.273 20.53 125.772 35.793 187.7 18.152 73.647 40.868 145.844 67.897 216.742a1874 1874 0 0 0 97.88 215.022c33.08 61.978 69.52 121.946 109.539 179.726 31.08 44.873 63.852 88.449 98.657 130.5 28.842 34.846 58.365 69.117 90.297 101.166 33.357 33.479 66.488 67.279 101.446 99.037 34.41 31.261 70.36 60.924 106.755 89.88 57.599 45.824 118.34 87.283 181.22 125.572 70.267 42.788 143.092 80.696 218.177 114.288 71.703 32.079 145.203 59.443 220.288 82.39 68.974 21.08 138.97 38.128 209.936 51.301 59.735 11.088 119.858 19.111 180.28 24.934 28.719 2.767 57.551 4.57 86.372 6.004 25.898 1.287 51.848 1.86 77.78 2.018 21.94.134 43.889-.651 65.828-1.261 19.93-.554 39.888-.89 59.768-2.27 30.76-2.137 61.537-4.428 92.174-7.849 37.895-4.231 75.806-8.75 113.437-14.828 58.356-9.426 116.123-21.864 173.351-36.856 72.43-18.973 143.523-41.948 213.256-69.156 53.303-20.799 105.655-43.777 156.777-69.493 4.61-2.318 8.445-2.519 13.146-.43 9.41 4.184 19.097 7.74 28.638 11.631 90.797 37.031 181.621 73.997 272.369 111.15 64.289 26.319 128.507 52.813 192.692 79.384 62.342 25.808 124.716 51.547 186.863 77.82 49.283 20.833 98.324 42.247 147.325 63.738 45.127 19.79 90.791 37.89 139.33 47.635 8.997 1.806 18.02 3.481 27.032 5.217M2 1818V2c614.725 0 1229.45 0 1845.109.475.932.476.835 1.422-.071 1.598-9.85.639-18.8.997-27.736 1.585-31.118 2.045-62.331 3.217-93.32 6.5-40.535 4.294-80.968 9.75-121.303 15.673-49.285 7.236-98.02 17.508-146.425 29.254-68.189 16.547-135.28 36.763-201.241 60.722-87.954 31.948-173.2 69.903-255.67 114.164-67.513 36.235-132.508 76.476-195.243 120.436-81.87 57.37-158.448 121.16-230.353 190.53-37.605 36.28-73.484 74.245-107.936 113.581-59.264 67.665-113.587 139.007-162.613 214.43-45.024 69.269-85.33 141.131-120.87 215.71-35.657 74.82-66.225 151.638-91.66 230.508-19.489 60.428-36.38 121.59-48.732 183.862-8.838 44.557-16.458 89.387-23.324 134.293-4.605 30.12-7.337 60.551-10.16 90.912-2.18 23.45-3.218 47.007-4.727 70.518-.464 7.23-.804 14.466-1.826 21.554A26 26 0 0 0 2 1818"/><path fill="#534454" d="M4.524 1818.45c.397-7.233.737-14.47 1.201-21.699 1.509-23.511 2.547-47.068 4.727-70.518 2.823-30.36 5.555-60.791 10.16-90.912 6.866-44.906 14.486-89.736 23.324-134.293 12.352-62.273 29.243-123.434 48.731-183.862 25.436-78.87 56.004-155.687 91.66-230.508 35.541-74.579 75.847-146.441 120.871-215.71 49.026-75.423 103.35-146.765 162.613-214.43 34.452-39.336 70.331-77.301 107.936-113.58 71.905-69.371 148.482-133.161 230.353-190.53 62.735-43.96 127.73-84.202 195.243-120.437 82.47-44.261 167.716-82.216 255.67-114.164 65.962-23.96 133.052-44.175 201.241-60.722 48.405-11.746 97.14-22.018 146.425-29.254 40.335-5.922 80.768-11.38 121.303-15.673 30.989-3.283 62.202-4.455 93.32-6.5 8.935-.588 17.886-.946 28.674-1.512 12.927-.12 24.012-.026 35.09-.244 2.323-.045 4.623-1.238 6.934-1.902 16.708 0 33.417 0 51.605.653 15.803.85 30.127 1.047 44.451 1.244 17.918.805 35.868 1.183 53.747 2.516 26.443 1.973 52.853 4.456 79.244 7.044 18.146 1.78 36.253 3.993 54.352 6.212 43.497 5.333 86.614 12.92 129.601 21.422 63.292 12.518 125.696 28.516 187.296 47.549 68.65 21.21 136.134 45.752 201.68 75.27 36.985 16.654 73.819 33.743 110 52.06 72.814 36.865 142.558 79.005 209.836 125.226 57.353 39.402 112.376 81.846 164.958 127.381 24.876 21.542 48.852 44.14 72.874 66.646 16.281 15.254 32.263 30.859 47.805 46.865 52.86 54.44 102.592 111.599 148.707 171.9 44.732 58.492 85.87 119.393 123.506 182.668 45.126 75.87 84.459 154.645 118.43 236.117 20.994 50.353 39.571 101.584 56.101 153.56 18.036 56.708 33.148 114.2 45.514 172.405 10.211 48.059 18.905 96.395 24.553 145.215 3.771 32.6 7.174 65.256 9.944 97.955 2.045 24.134 3.15 48.364 4.041 72.575 1.052 28.58 2.046 57.188 1.92 85.78-.135 30.582-.749 61.214-2.707 91.725-2.42 37.713-5.713 75.405-9.939 112.958-6.568 58.378-16.505 116.234-28.74 173.724-15.726 73.887-36.18 146.41-60.798 217.785-18.762 54.397-40.241 107.711-63.966 160.138-28.695 63.409-61.078 124.88-96.708 184.638-26.085 43.75-53.908 86.385-83.659 127.747-3.298 4.586-6.465 9.268-10.26 14.72 8.022 4.613 15.768 9.018 23.468 13.5 64.964 37.812 130.28 75.032 194.784 113.611 81.418 48.696 161.245 99.935 238.083 155.663 36.62 26.56 72.272 54.34 105.56 85.106 20.837 19.258 40.686 39.332 57.052 62.53 6.482 9.188 12.258 19.066 16.919 29.285 3.658 8.02 5.107 17.047 8.142 26.117.604 13.865.604 27.24-.028 42.05-.794 5.81-.955 10.186-1.223 15.442-.248 4.874-.035 8.916-.585 12.852-4.976 35.56-12.524 70.56-23.618 104.736-26.403 81.337-65.161 156.304-116.396 224.78-6.962 9.306-14.56 18.133-21.681 27.322-7.195 9.283-15.343 17.907-23.264 26.356-10.273 10.96-23.553 19.297-36.196 27.784-13.187 8.853-27.916 13.746-44.198 12.99-2.697-.125-5.47 1.41-8.207 2.178h-55.063c-9.948-1.736-18.972-3.41-27.969-5.217-48.539-9.744-94.203-27.845-139.33-47.635-49.001-21.49-98.042-42.905-147.325-63.739-62.147-26.272-124.52-52.01-186.863-77.819-64.185-26.571-128.403-53.065-192.692-79.385-90.748-37.152-181.572-74.118-272.37-111.149-9.54-3.891-19.227-7.447-28.637-11.63-4.7-2.09-8.537-1.89-13.146.429-51.122 25.716-103.474 48.694-156.777 69.493-69.733 27.208-140.827 50.183-213.256 69.156-57.228 14.992-114.995 27.43-173.35 36.856-37.632 6.079-75.543 10.597-113.438 14.828-30.637 3.421-61.413 5.712-92.174 7.849-19.88 1.38-39.838 1.716-59.768 2.27-21.939.61-43.889 1.395-65.829 1.261-25.931-.158-51.881-.731-77.779-2.018-28.82-1.433-57.653-3.237-86.373-6.004-60.421-5.823-120.544-13.846-180.279-24.934-70.966-13.173-140.962-30.222-209.936-51.301-75.085-22.947-148.585-50.311-220.288-82.39-75.085-33.592-147.91-71.5-218.178-114.288-62.88-38.29-123.62-79.748-181.219-125.573-36.395-28.955-72.346-58.618-106.755-89.879-34.958-31.758-68.09-65.558-101.446-99.037-31.932-32.049-61.455-66.32-90.297-101.166-34.805-42.051-67.578-85.627-98.657-130.5-40.019-57.78-76.459-117.748-109.539-179.726a1874 1874 0 0 1-97.88-215.022c-27.03-70.898-49.745-143.095-67.897-216.743-15.263-61.927-27.635-124.426-35.793-187.699-3.815-29.586-7.368-59.235-9.885-88.953-2.8-33.058-4.284-66.228-6.79-100.97-.496-11.205-.353-20.794-.695-30.366-.108-3.024-1.515-6-2.327-8.999 0-18.708 0-37.417.798-57.436 1.107-14.245 1.417-27.18 1.726-40.114m2782.19 1694.869c40.955 16.755 81.901 33.534 122.867 50.263 96.722 39.5 193.524 78.803 290.159 118.515 83.096 34.148 166.114 68.491 248.957 103.246 60.446 25.357 120.674 51.244 180.764 77.435 35.71 15.565 71.4 31.03 108.983 41.646 28.965 8.183 58.252 14.028 88.548 11.698 5.74-.441 11.343-2.68 18.415-3.372 7.608 3.4 14.333.422 20.759-3.217 13.494-7.64 24.521-18.333 35.142-29.42 23.374-24.403 43.56-51.333 61.6-79.817 58.726-92.73 99.59-191.73 106.208-302.835.933-15.668-1.517-30.134-10.127-42.864-9.114-13.475-18.843-26.722-29.747-38.76-25.805-28.49-55.404-52.909-85.698-76.455-71.665-55.702-147.536-105.257-224.478-153.221-102.093-63.643-206.403-123.496-311.628-181.775-2.731-1.512-5.363-3.204-7.797-4.665.575-1.566.624-1.927.815-2.182a1865 1865 0 0 1 8.414-11.182c141.828-186.79 244.487-392.999 307.038-619.113 24.221-87.559 41.282-176.53 51.833-266.706 4.333-37.031 7.798-74.239 9.658-111.466 2.093-41.912 2.96-83.949 2.45-125.908-.485-39.944-2.843-79.897-5.51-119.77-1.714-25.661-5.437-51.189-8.327-76.768-2.073-18.355-3.549-36.813-6.544-55.019-5.228-31.774-10.822-63.513-17.312-95.051-31.04-150.846-81.144-295.177-149.63-433.08-97.037-195.393-225.093-367.89-383.31-518.06-78.281-74.302-162.398-141.277-252.368-200.843-176.233-116.681-366.778-201.169-571.577-253.546-64.154-16.407-129.043-29.043-194.51-38.727-19.068-2.82-38.357-4.12-57.514-6.374-13.5-1.589-26.903-4.13-40.43-5.353-58.1-5.256-116.347-8.113-174.677-8.14-77.276-.035-154.316 4.73-231.046 13.95-24.377 2.93-48.745 6.206-72.933 10.386-33.397 5.773-66.755 11.927-99.897 19.009-154.853 33.09-302.964 85.555-444.302 156.852-215.275 108.595-402.834 253.253-562.265 434.223-101.629 115.36-187.416 241.535-257.23 378.501-67.618 132.657-118.258 271.53-151.254 416.767-6.625 29.162-13.185 58.355-18.882 87.707-3.544 18.256-5.3 36.854-8.067 55.268-1.87 12.448-4.537 24.789-6.047 37.275-1.467 12.127-1.95 24.374-2.8 36.573-3.054 43.857-7.21 87.673-8.838 131.583-2.173 58.617-1.29 117.274 2.97 175.849 2.745 37.747 5.498 75.482 10.737 112.98 2.936 21.015 5.995 42.019 9.49 62.946 3.619 21.665 7.525 43.293 11.837 64.83 30.959 154.665 81.766 302.587 151.962 443.788 107.397 216.032 251.957 403.632 432.872 563.15 175.93 155.123 374.301 272.664 594.464 353.435 59.657 21.887 120.308 40.635 181.94 56.145 62.901 15.829 126.419 28.596 190.594 38.078 7.757 1.146 15.395 3.157 23.17 4.103 11.47 1.395 23.031 2.029 34.52 3.285 19.809 2.165 39.568 4.794 59.395 6.764 10.583 1.051 21.262 1.126 31.898 1.647 57.58 2.815 115.16 5.684 172.839 3.263 27.631-1.16 55.325-1.525 82.877-3.686 37.778-2.962 75.478-7.014 113.152-11.144 19.916-2.183 39.76-5.188 59.544-8.395 66.758-10.823 132.794-25.015 198.04-42.878 124.087-33.972 243.402-80.212 357.988-138.698 3.461-1.767 7.4-2.601 11.846-2.67"/><path fill="none" d="M3842.937 3966c1.8-.768 4.573-2.303 7.27-2.178 16.282.756 31.01-4.137 44.198-12.99 12.643-8.487 25.923-16.825 36.196-27.784 7.921-8.45 16.069-17.073 23.264-26.356 7.122-9.189 14.719-18.016 21.681-27.321 51.235-68.477 89.993-143.444 116.396-224.78 11.094-34.177 18.642-69.177 23.618-104.737.55-3.936.337-7.978 1.022-12.869.545-.898 1.418-.985 1.418-.985v440z"/><path fill="#c4bfc4" d="M1986.008 3.424c-14.276.276-28.6.078-43.466-.771 13.5-.653 27.542-.653 42.52-.653.938 0 .897.95.946 1.424M1889.063 2c-1.374.664-3.674 1.857-5.997 1.902-11.078.218-22.163.125-34.183.069-.939-.074-.842-1.02-.863-1.496C1861.375 2 1874.75 2 1889.063 2M2 1916.937c.812 2.061 2.219 5.038 2.327 8.062.342 9.572.199 19.16.222 29.65-.439 1.001-.856 1.097-1.911 1.272C2 1943.291 2 1930.582 2 1916.937m1.899-98.632c.316 13.08.006 26.014-1.101 39.322C2 1845.29 2 1832.582 2 1818.937c.425-.884.85-.83 1.899-.632M4118 3525.125c0 .875-.873.962-1.311.979-.276-4.358-.115-8.734.68-13.606.631 3.585.631 7.669.631 12.627"/><path fill="#e6e5e6" d="M2785.983 3512.119c-3.716 1.269-7.654 2.103-11.115 3.87-114.586 58.486-233.901 104.726-357.987 138.698-65.247 17.863-131.283 32.055-198.041 42.878-19.784 3.207-39.628 6.212-59.544 8.395-37.674 4.13-75.374 8.182-113.152 11.144-27.552 2.16-55.246 2.526-82.877 3.686-57.68 2.421-115.259-.448-172.839-3.263-10.636-.52-21.315-.596-31.898-1.647-19.827-1.97-39.586-4.599-59.394-6.764-11.49-1.256-23.051-1.89-34.521-3.285-7.775-.946-15.413-2.957-23.17-4.103-64.175-9.482-127.693-22.25-190.594-38.078-61.632-15.51-122.283-34.258-181.94-56.145-220.163-80.77-418.535-198.312-594.464-353.434-180.915-159.519-325.475-347.12-432.872-563.151-70.196-141.201-121.003-289.123-151.962-443.787-4.312-21.538-8.218-43.166-11.837-64.831-3.495-20.927-6.554-41.931-9.49-62.946-5.239-37.498-7.992-75.233-10.737-112.98-4.26-58.575-5.143-117.232-2.97-175.85 1.628-43.909 5.784-87.725 8.838-131.582.85-12.199 1.333-24.446 2.8-36.573 1.51-12.486 4.177-24.827 6.047-37.275 2.766-18.414 4.523-37.012 8.067-55.268 5.697-29.352 12.257-58.545 18.882-87.707 32.996-145.237 83.636-284.11 151.254-416.767 69.814-136.966 155.601-263.142 257.23-378.501 159.43-180.97 346.99-325.628 562.265-434.223 141.338-71.297 289.449-123.762 444.302-156.852 33.142-7.082 66.5-13.236 99.897-19.009 24.188-4.18 48.556-7.456 72.933-10.385 76.73-9.22 153.77-13.986 231.046-13.95 58.33.026 116.577 2.883 174.677 8.139 13.527 1.224 26.93 3.764 40.43 5.353 19.157 2.254 38.446 3.554 57.514 6.374 65.467 9.684 130.356 22.32 194.51 38.727 204.8 52.377 395.344 136.865 571.577 253.546 89.97 59.566 174.087 126.54 252.369 200.842 158.216 150.172 286.272 322.668 383.31 518.06 68.485 137.904 118.59 282.235 149.629 433.08 6.49 31.539 12.084 63.278 17.312 95.052 2.995 18.206 4.471 36.664 6.544 55.019 2.89 25.58 6.613 51.107 8.328 76.767 2.666 39.874 5.024 79.827 5.51 119.771.51 41.96-.358 83.996-2.451 125.908-1.86 37.227-5.325 74.435-9.658 111.466-10.551 90.176-27.612 179.147-51.833 266.706-62.551 226.114-165.21 432.322-307.038 619.113-2.82 3.715-5.621 7.446-8.414 11.182-.191.255-.24.616-.815 2.182 2.434 1.461 5.066 3.153 7.796 4.665 105.226 58.279 209.536 118.132 311.629 181.775 76.942 47.964 152.813 97.52 224.478 153.22 30.294 23.547 59.893 47.965 85.698 76.456 10.904 12.038 20.633 25.285 29.747 38.76 8.61 12.73 11.06 27.196 10.127 42.864-6.619 111.106-47.482 210.106-106.209 302.835-18.04 28.484-38.225 55.414-61.599 79.817-10.62 11.087-21.648 21.78-35.142 29.42-6.426 3.639-13.15 6.617-21.515 2.177-1.59-2.033-2.312-3.153-3.274-4.002-18.943-16.718-37.888-33.433-56.886-50.088a4786 4786 0 0 0-33.143-28.754c-17.376-14.955-34.85-29.795-52.184-44.8-12.568-10.88-24.902-22.033-37.472-32.912-17.836-15.437-35.822-30.702-53.689-46.103-11.58-9.984-23.004-20.151-34.606-30.111-16.637-14.284-33.431-28.384-50.048-42.691-16.626-14.314-33.08-28.827-49.674-43.178-18.094-15.646-36.29-31.175-54.388-46.816-12.071-10.432-23.987-21.045-36.085-31.445-16.628-14.292-33.414-28.4-50.035-42.702-11.842-10.19-23.447-20.657-35.293-30.842-16.878-14.51-33.956-28.787-50.806-43.328-16.86-14.547-33.462-29.392-50.326-43.932-22.395-19.31-44.966-38.415-67.394-57.685-6.758-5.806-7.784-5.802-14.277-.439-12.295 10.154-24.503 20.44-37.204 30.07-24.095 18.27-48.027 36.817-72.91 53.968-35.312 24.338-70.84 48.466-107.358 70.922-34.828 21.418-71.056 40.557-106.62 60.784-1.901 1.082-3.341 2.977-4.996 4.493M600.424 1114.579c-6.365 11.1-12.73 22.2-19.995 34.24-2.82 5.46-5.64 10.92-9.596 17.336-1.566 2.543-3.325 4.988-4.666 7.643-12.604 24.953-25.405 49.812-37.634 74.948-23.462 48.225-42.932 98.106-60.58 148.707-15.554 44.6-28.754 89.916-39.404 135.921-6.288 27.162-11.448 54.587-16.899 81.937-2.787 13.986-5.097 28.066-9.275 42.151-4.62-.435-9.231-1.033-13.861-1.275-13.597-.71-27.196-1.564-40.804-1.824-13.963-.268-28.106-1.233-41.87.494-21.677 2.72-43.158 7.169-64.598 11.5-5.3 1.07-10.82 3.65-14.998 7.058-5.962 4.863-5.792 9.8-.295 15.316 4.423 4.439 9.572 8.155 14.418 12.17 1.63 1.35 3.316 2.631 6.071 4.81-8.346 4.566-15.688 8.347-22.793 12.53-9.166 5.397-9.725 10.254-2.486 18.062 8.89 9.592 8.864 12.654.382 22.878-3.374 4.067-7.031 8.126-9.365 12.787-8.868 17.709 1.773 29.337 14.68 33.78 2.82.971 5.838 1.395 8.617 2.46 5.426 2.077 5.935 4.098 2.54 8.901-3.452 4.882-7.377 9.487-10.336 14.647-8.595 14.988-3.626 29.213 12.192 35.916 2.753 1.167 5.543 2.246 8.303 3.396 28.228 11.765 56.546 23.322 86.516 30.007 17.801 3.971 35.715 7.433 53.509 12.911 1.21 22.212 2.112 44.446 3.714 66.63 1.792 24.818 3.348 49.705 6.58 74.357 4.393 33.52 9.658 66.957 15.668 100.228 9.093 50.344 21.665 99.899 35.502 150.076-26.216 18.245-52.19 36.853-78.736 54.605-17.028 11.388-30.062 26.097-40.529 43.36-2.734 4.51-5.53 9.21-7.02 14.203-3.853 12.916 5.95 25.895 19.4 26.406 5.52.21 11.044.364 17.066.56-.333 3.236-.337 5.207-.762 7.083-2.13 9.394-4.448 18.744-6.548 28.144-2.493 11.156-.57 13.744 10.627 17.183 5.65 1.735 10.29.01 15.389-1.81 9.742-3.476 14.614-.043 15.302 10.224.178 2.655-.02 5.334.106 7.994.81 17.009 6.175 21.055 22.835 17.578 5.955-1.243 12.004-2.035 19.458-3.272-.619 6.949-.655 12.228-1.643 17.324-1.515 7.82-3.749 15.5-5.561 23.266-3.265 13.993 4.397 30.652 23.887 29.872 8.954-.359 17.97-.724 26.808-2.072 16.704-2.547 33.52-4.935 49.863-9.071 11.147-2.822 21.57-8.5 32.904-11.622 7.242 13.068 13.944 26.472 21.83 39.14 22.447 36.063 45.376 71.826 67.817 109.139-1.577 3.298-3.196 6.576-4.722 9.898-13.191 28.701-27.508 56.951-39.293 86.22-20.98 52.1-40.498 104.79-60.416 157.313-2.355 6.21-4.527 12.804-2.802 19.865 14.728-3.628 14.728-3.628 25.064-15.459 6.307-7.217 9.549-6.81 13.693 1.744.58 1.197 1.197 2.402 1.57 3.669 2.088 7.068 6.218 10.824 14.067 11.823 11.623 1.48 14.648 6.558 12.45 18.059-.56 2.92-1.766 5.711-2.578 8.59-3.418 12.124.263 20.923 11.708 26.26 5.685 2.65 11.746 5.045 17.883 6.036 7.43 1.2 15.275 2.285 22.33-2.244 5.598-3.593 11.307-7.02 16.822-10.734 41.81-28.16 76.16-64.187 108.172-102.68 7.846-9.434 15.823-18.759 24.888-27.365 43.706 44.365 89.109 86.872 138.019 125.505 10.668 8.427 21.722 16.365 32.78 26.322.656 11.61 1.327 23.22 1.962 34.833 1.361 24.883 2.631 49.772 4.074 74.65 1.211 20.891 2.706 41.765 3.91 62.656 1.55 26.874 3.014 53.753 4.338 80.639.392 7.97 1.817 15.515 5.646 22.679 8.126-2.896 13.815-7.29 17.813-14.456 4.732-8.48 9.234-8.75 16.665-2.075 1.98 1.78 3.676 3.916 5.798 5.489 6.493 4.81 12.578 4.115 18.194-1.8 1.145-1.206 2.244-2.51 3.58-3.467 3.765-2.695 6.485-2.119 9.033 1.976 1.224 1.967 1.986 4.215 3.093 6.263 4.1 7.584 7.871 15.383 12.487 22.643 6.323 9.945 15.511 9.95 22.477.291 2.513-3.485 4.318-7.474 6.544-11.175 3.425-5.696 6.637-11.552 10.479-16.957 5.308-7.468 10-8.4 17.898-3.656 3.663 2.2 6.71 5.403 10.16 7.986 5.837 4.37 11.397 9.306 17.754 12.744 9.854 5.329 18.528 3.44 26.35-4.436 7.52-7.572 11.857-16.971 13.903-27.18 2.081-10.386 3.094-20.992 4.45-31.519 2.713-21.06 5.34-42.133 9.48-62.903 2.823.939 5.769 1.613 8.448 2.86 14.187 6.607 28.27 13.436 42.458 20.04 43.493 20.25 88.207 37.485 133.499 53.186 47.788 16.567 96.401 30.384 145.62 42.065 44.952 10.67 90.28 19.541 136.02 25.855a1923 1923 0 0 0 108.919 11.898c31.48 2.528 63.12 3.478 94.71 4.098 22.604.444 45.239-1.07 67.864-1.248 33.296-.262 66.456-2.515 99.526-6.153 30.034-3.304 60.148-6.164 90.012-10.647 43.363-6.508 86.368-15.091 129.013-25.435 68.32-16.57 135.207-37.62 200.66-63.259 57.42-22.492 113.533-47.865 167.443-77.827 32.577-18.106 64.933-36.704 96.527-56.457 50.85-31.791 99.201-67.152 145.69-105.104 33.296-27.182 65.431-55.636 96.385-85.407 36.747-35.344 71.376-72.693 104.316-111.64 35.725-42.238 69.146-86.196 99.93-132.134 42.143-62.885 79.648-128.395 111.764-197.024 24.864-53.132 46.79-107.391 65.342-163.006 16.846-50.5 31.353-101.7 41.82-153.913 7.372-36.78 14.255-73.707 19.679-110.814 4.655-31.847 7.633-63.99 10.052-96.099 2.248-29.834 3.153-59.787 3.91-89.707.402-15.94-1.121-31.919-1.144-47.88-.053-36.298-2.017-72.474-6.161-108.523-3.185-27.703-5.628-55.546-10.264-83.012-6.794-40.259-14.308-80.448-23.243-120.28-11.068-49.343-25.713-97.742-42.614-145.454-25.166-71.048-55.09-139.954-90.737-206.398-27.104-50.52-56.823-99.39-89.377-146.584-43.564-63.155-91.754-122.58-144.333-178.365-42.746-45.351-88.265-87.825-136.424-127.48-43.993-36.224-89.686-70.043-137.31-101.331-65.264-42.877-133.49-80.301-204.476-112.797-45.735-20.937-92.408-39.484-139.948-55.862-50.348-17.346-101.465-32.159-153.47-43.538-37.617-8.23-75.54-15.132-113.463-21.856-20.249-3.591-40.75-5.886-61.205-8.147-17.828-1.97-35.738-3.29-53.638-4.51-28.846-1.967-57.69-4.452-86.575-5.202-44.266-1.15-88.54-.293-132.725 3.291-20.538 1.667-41.183 2.28-61.644 4.575-28.694 3.217-57.404 6.724-85.847 11.619-38.28 6.588-76.51 13.74-114.407 22.227-61.411 13.752-121.514 32.262-180.47 54.253-61.806 23.054-122.094 49.566-180.468 80.451-39.769 21.042-78.657 43.528-116.52 67.773-41.233 26.405-81.512 54.27-119.447 85.237-32.73 26.717-65.335 53.733-96.23 82.511-30.442 28.356-59.155 58.631-87.697 88.939-20.064 21.304-39.154 43.6-57.651 66.29-35.36 43.377-68.022 88.775-98.202 135.918-7.157 11.18-13.546 22.853-21.37 35.028"/><path fill="#b6b5b3" d="M2786.349 3512.719c1.289-2.116 2.729-4.01 4.63-5.093 35.564-20.227 71.792-39.366 106.62-60.784 36.518-22.456 72.046-46.584 107.357-70.922 24.884-17.15 48.816-35.698 72.911-53.968 12.7-9.63 24.909-19.916 37.204-30.07 6.493-5.363 7.52-5.367 14.277.439 22.428 19.27 44.999 38.376 67.394 57.685 16.864 14.54 33.467 29.385 50.326 43.932 16.85 14.54 33.928 28.818 50.806 43.328 11.846 10.185 23.451 20.651 35.293 30.842 16.62 14.301 33.407 28.41 50.035 42.702 12.098 10.4 24.014 21.013 36.085 31.445 18.098 15.64 36.294 31.17 54.388 46.816 16.594 14.35 33.048 28.864 49.674 43.178 16.617 14.307 33.41 28.407 50.048 42.69 11.602 9.96 23.025 20.128 34.606 30.112 17.867 15.401 35.853 30.666 53.69 46.103 12.57 10.88 24.903 22.032 37.471 32.912 17.333 15.005 34.808 29.845 52.184 44.8a4786 4786 0 0 1 33.143 28.754c18.998 16.655 37.943 33.37 56.886 50.088.962.849 1.684 1.969 2.57 3.644-5.612 2.09-11.214 4.329-16.955 4.77-30.296 2.33-59.583-3.515-88.548-11.698-37.583-10.617-73.272-26.081-108.983-41.646-60.09-26.19-120.318-52.078-180.764-77.435-82.843-34.755-165.861-69.098-248.957-103.246-96.635-39.712-193.437-79.015-290.159-118.515-40.966-16.73-81.912-33.508-123.232-50.863"/><path fill="#8397fe" d="M561.92 2573.954c-10.747 4.4-21.17 10.078-32.317 12.9-16.343 4.136-33.16 6.524-49.863 9.071-8.838 1.348-17.854 1.713-26.808 2.072-19.49.78-27.152-15.879-23.887-29.872 1.812-7.766 4.046-15.446 5.561-23.266.988-5.096 1.024-10.375 1.643-17.324-7.454 1.237-13.503 2.029-19.458 3.272-16.66 3.477-22.026-.57-22.835-17.578-.126-2.66.072-5.339-.106-7.994-.688-10.267-5.56-13.7-15.302-10.223-5.099 1.82-9.74 3.544-15.389 1.809-11.197-3.44-13.12-6.027-10.627-17.183 2.1-9.4 4.419-18.75 6.548-28.144.425-1.876.43-3.847.762-7.082-6.022-.197-11.545-.352-17.066-.561-13.45-.511-23.253-13.49-19.4-26.406 1.49-4.994 4.286-9.693 7.02-14.203 10.467-17.263 23.5-31.972 40.53-43.36 26.545-17.752 52.519-36.36 79.77-55.313 28.832-19.522 56.63-38.336 84.425-57.15 31.944-21.624 63.896-43.235 95.809-64.903 1.866-1.267 3.413-3.002 5.797-4.612 13.896-8.735 27.104-17.377 41.027-25.994 7.399-2.81 14.314-5.202 20.725-8.56 23.586-12.349 46.755-25.513 70.53-37.476 74.417-37.442 151.176-69.325 230.047-96.181 12.064-4.108 23.521-9.997 35.26-15.062l-.525-2.063c-3.814-.327-7.63-.623-11.44-.987-41.036-3.916-82.065-7.898-123.107-11.74-16.884-1.582-33.8-2.814-50.692-4.307-28.48-2.516-56.956-5.076-85.427-7.691-17.876-1.642-35.72-3.663-53.613-5.062-15.23-1.19-30.512-1.735-46.674-2.666-19.873 1.738-38.215-2.503-57.438-6.035-20.248-4.107-39.683-8.157-59.179-11.892-34.12-6.537-68.283-12.856-102.419-19.315-18.522-3.505-37.025-7.113-55.536-10.674-17.863-3.69-35.777-7.153-53.578-11.124-29.97-6.685-58.288-18.242-86.516-30.007-2.76-1.15-5.55-2.229-8.303-3.396-15.818-6.703-20.787-20.928-12.192-35.916 2.96-5.16 6.884-9.765 10.335-14.647 3.396-4.803 2.887-6.824-2.54-8.902-2.778-1.064-5.796-1.488-8.617-2.46-12.906-4.442-23.547-16.07-14.68-33.779 2.335-4.66 5.992-8.72 9.366-12.787 8.482-10.224 8.508-13.286-.382-22.878-7.239-7.808-6.68-12.665 2.486-18.062 7.105-4.183 14.447-7.964 22.793-12.53-2.755-2.179-4.441-3.46-6.07-4.81-4.847-4.015-9.996-7.731-14.42-12.17-5.496-5.517-5.666-10.453.296-15.316 4.178-3.407 9.698-5.987 14.998-7.058 21.44-4.331 42.92-8.78 64.598-11.5 13.764-1.727 27.907-.762 41.87-.494 13.608.26 27.207 1.114 40.804 1.824 4.63.242 9.241.84 15.607 1.415 14.32.842 26.897 1.512 39.47 2.252 22.16 1.304 44.311 2.766 66.478 3.941 17.885.948 35.787 1.562 53.68 2.347 2.318.102 4.628.38 6.944.516 17.18 1.01 34.36 2.005 52.442 3.171 13.816 1.01 26.774 1.446 39.63 2.83 9.186.99 18.234 3.252 28.15 5.075 7.97 1.469 15.11 2.95 22.301 4.125 34.355 5.617 68.91 10.2 103.042 16.937 51.713 10.209 103.127 21.936 154.687 32.927 14.246 3.037 28.562 5.751 42.882 8.562.038-.053-.053-.14.141.31.194.451 1.08.874 1.08.874s.98-.064 1.765.196c7.173 1.055 13.56 1.85 22.348 2.945-5.688-8.625-11.28-13.632-16.897-18.667-29.487-26.432-59.521-52.291-88.254-79.522-60.448-57.29-117.166-118.163-171.23-181.52-3.568-4.181-8.614-7.103-13.286-11.202-15.432-19.621-30.551-38.65-45.895-58.303-2.205-2.863-4.396-4.95-6.134-7.363-18.23-25.29-37.274-50.054-54.331-76.116-19.424-29.678-37.423-60.315-55.327-90.953-9.96-17.044-16.578-35.47-15.839-55.764 2.82-5.46 5.64-10.92 9.681-16.843 5.52-2.832 10.139-4.771 14.044-7.671 6.497-4.824 12.25-10.276 8.539-19.831-.78-2.007-.178-4.55.624-6.853 8.987-2.113 16.961-2.462 25.413-.527 13.98 3.2 17.478-.596 14.606-15.197-.883-4.485.602-7.034 3.703-9.35 4.763-3.558 9.652-4.925 15.79-2.796 4.57 1.585 9.762 1.896 14.669 1.849 5.68-.055 7.716-2.952 6.786-8.472-.325-1.93-1.412-3.72-1.953-5.629-1.94-6.84-3.793-13.706-5.892-21.335 12.113.701 21.593 3.34 29.944 10.236 7.166 5.917 15.143 10.84 22.616 16.398 26.145 19.448 52.224 38.986 78.336 58.478 7.403 5.526 14.833 11.015 22.487 17.19 7.837 8.494 15.182 16.589 23.105 24.07 8.888 8.393 18.298 16.231 27.657 24.888 2.225 3.571 3.92 6.9 6.381 9.503 16.458 17.407 33.086 34.653 49.645 51.965 7.587 7.933 15.045 15.992 22.734 23.825 14.204 14.47 28.535 28.813 43.037 43.846 31.55 41.647 104.382 128.968 111.087 133.555.843-8.916.007-13.636-4.665-23.767-23.707-51.406-45.043-103.77-63.44-157.313-17.31-50.383-30.481-101.924-43.053-153.641-4.857-19.98-10.364-39.803-15.582-60.613-.257-6.512.603-12.439-.948-17.648-6.941-23.322-8.813-47.237-9.59-72.224-.47-7.163-1.238-13.42-1.57-19.702-1.4-26.524-2.793-53.05-3.95-79.585-.869-19.92-1.1-39.87-2.105-59.782-1.655-32.817 4.524-64.77 10.061-96.806.87-5.037 3.24-9.255 8.987-11.441l14.79 16.502c4.282-5.44 6.283-10.412 6.08-16.334-.334-9.74 4.615-17.663 9.292-27.444l30.961 25.282c6.678-6.558 8.312-10.004 9.62-18.083.687-4.236 1.316-8.577 2.782-12.572 3.713-10.124 11.392-15.789 22.102-15.175 7.854.45 15.77 2.088 23.368 4.224 14.645 4.118 17.6 2.498 19.636-12.508 1.603-11.819 10.208-16.658 21.29-12.372 6.308 2.44 9.825 7.551 13.975 12.33 23.862 27.484 43.853 57.595 61.623 89.283 5.168 9.216 11.078 18.015 16.772 27.748 7.226 14.264 14.49 27.704 21.364 41.34 3.679 7.296 8.353 13.552 15.237 18.897 8.852 25.472 17.59 50.22 26.331 75.709 4.25 13.354 8.254 26.054 12.778 38.566 38.968 107.765 65.854 218.385 78.987 332.29 1.256 10.892 3.196 21.703 4.818 32.552 2.806-3.393 4.017-6.766 4.918-10.22 13.34-51.184 25.917-102.58 40.099-153.528 30.8-110.652 71.72-217.413 125.224-319.21 22.644-43.083 47.799-84.654 75.145-125.562 2.565-1.566 4.43-2.956 6.38-4.215 7.724-4.986 10.9-4.47 16.772 2.825 1.66 2.063 2.955 4.424 4.645 6.46 8.172 9.85 15.476 9.205 21.58-1.851.8-1.451 1.492-2.964 2.204-4.462 2.264-4.764 5.79-7.978 10.968-9.138 5.491 3.945 5.491 3.945 8.571 11.517 4.125 10.142 9.07 12.482 18.476 6.703 8.186-5.028 16.498-6.435 25.868-4.747 6.126 8.973 12.024 17.28 18.532 26.446l27.223-15.956c8.224 10.805 12.3 21.95 12.403 34.834.334 42.274 1.388 84.543 1.474 126.816.06 29.945-.854 59.897-1.643 89.838-.254 9.626-1.227 19.258-2.336 28.833-4.116 35.553-13.926 69.706-25.752 103.355-8.494 24.165-16.99 48.33-25.176 72.6-1.55 4.597-1.647 9.684-2.677 14.575-.263.03-.451.64-.451.64s.606-.791 1.194-1.11c8.564-12.207 16.513-24.113 24.526-35.976 9.503-14.07 18.058-28.924 28.782-41.996 32.33-39.403 65.338-78.255 98.408-117.043 35.45-41.577 71.076-83.006 106.994-124.178 25.388-29.1 49.73-59.224 79.493-84.23a1204 1204 0 0 0 33.152-28.891c5.614-5.078 11.647-8.395 19.88-8.124 0 5.73.283 11.337-.07 16.903-.464 7.292-1.642 14.538-2.106 21.83-.31 4.889.504 9.68 4.04 13.792l30.172-19.262c3.455 14.37 4.286 28.176 11.945 40.223l22.673-5.041c.828 2.167 1.778 3.636 1.915 5.177.82 9.243 1.61 18.494 2.102 27.759.405 7.634-.261 15.374.717 22.916 1.17 9.007 4.525 10.178 11.831 4.67 6.51-4.905 13.66-7.845 21.334-9.378 6.915 15.262 5.411 29.534-1.904 43.628-4.756 9.162-9.117 18.528-13.64 27.81-10.348 21.243-20.687 42.49-31.55 64.155-15.019 24.7-29.356 49.079-44.053 73.239-33.027 54.292-65.112 109.203-99.689 162.494-33.129 51.059-68.936 100.379-103.497 150.511-1.821 2.643-2.992 5.734-4.454 8.69.012.072.09.198-.483.177-1.259.826-1.946 1.673-3.103 3.018-42.129 47.273-117.682 138.697-120.822 146.254 8.412.02 14.254-4.976 20.23-9.682 19.087-15.032 38.037-30.243 57.282-45.071 119.38-91.981 244.379-175.398 376.888-247.401 6.87-3.732 12.538-9.674 19.428-14.82 45.489-18.92 90.492-37.2 135.028-56.558 12.45-5.411 23.518-4.111 35.819.108-3.733 11.367-15.619 18.662-15.34 31.887 20.44 2.572 40.17 4.861 59.936-.701 4.347-1.224 9.464-1.964 12.26 3.548 2.598 5.121 1.384 9.822-2.211 13.827-2.422 2.698-5.366 4.947-8.19 7.26-6.244 5.117-11.78 10.69-13.632 19.958 6.643 2.066 13.113 4.577 19.813 6.03 7.703 1.67 9.41 4.638 7.053 13.206-2.015 7.322-7.2 12.582-13.024 17.261-3.4 2.732-6.53 5.802-9.78 8.72 19.541 1.212 38.36-.491 54.99 11.086-3.22 9.5-5.15 19.42-13.438 26.274-22.826 18.88-45.525 37.913-68.376 56.762a104227 104227 0 0 1-155.704 128.208c-22.628 18.592-45.416 36.987-68.674 55.543-.93.624-1.316 1.177-1.631 1.731.071.001.043-.139-.711-.208-6.682 2.89-12.882 5.41-18.498 8.876-105.376 65.034-210.693 130.165-315.996 195.317-17.832 11.033-35.575 22.21-53.278 33.448-2.545 1.615-6.57 2.627-4.66 8.75 36.368-6.085 72.917-11.992 110.25-18.526 7.567.091 14.261.432 20.88-.12 27.166-2.269 54.292-5.026 81.464-7.191 31.495-2.51 63.023-4.585 95.031-6.772 1.076-.225 1.657-.527 3.134-.843 7.543-.21 14.19-.487 20.84-.59 64.489-.987 128.963-1.116 193.958 3.723 1.023.06 1.434.017 2.768-.04 24.148 1.302 47.373 2.649 70.602 3.921 28.213 1.546 56.444 2.793 84.638 4.636 14.905.974 29.753 2.865 44.612 4.473 23.437 2.536 46.862 5.183 70.923 8.238 4.178 1.348 7.692 2.406 11.276 3.11 26.757 5.251 53.472 10.749 80.322 15.476 10.322 1.817 16.148 7.976 21.351 16.246-8.693 9.41-18.547 14.627-31.115 14.089-4.37-.187-8.962-.16-11.107 4.772-1.948 4.478 1.957 6.813 4.291 9.235 5.966 6.192 12.044 12.36 18.676 17.807 9.445 7.758 8.787 13.847-2.696 18.815-3.052 1.321-6.303 2.288-9.155 3.946-6.398 3.722-6.926 7.348-1.935 12.658 2.27 2.414 4.91 4.496 7.48 6.61 7.974 6.556 16.054 12.983 23.977 19.6 6.071 5.069 6.31 6.766 2.093 13.387-3.84 6.03-9.032 10.329-15.614 13.485-38.465 18.451-79.01 29.608-121.107 35.776-18.382 2.693-36.64 6.236-55.812 9.424-5.141.573-9.435 1.048-13.708 1.67-24.98 3.629-49.968 7.206-74.926 10.975-16.739 2.527-33.434 5.343-51.042 7.927-23.074 1.79-45.23 4.027-67.437 5.5-34.829 2.31-69.669 4.902-104.546 5.906-41.199 1.185-82.443 1.027-123.667 1.053-51.245.032-102.352-2.863-153.324-8.172-4.543-.474-9.136-.462-13.246-.655-2.43 5.108.52 6.361 3.364 7.522 7.387 3.016 14.8 5.972 22.223 8.898 25.665 10.115 51.339 20.207 77.43 30.859 12.93 6.76 25.36 13.134 37.958 19.154 81.55 38.966 160.427 82.713 236.53 131.49 83.98 53.824 163.064 114.291 240.792 176.627 15.308 12.277 30.928 24.166 46.731 36.811 19.055 21.77 37.808 42.94 56.474 64.186 1.956 2.226 4.378 4.706 4.912 7.4 2.11 10.642.65 14.958-9.884 13.497a41 41 0 0 0-2.978-.316c-10.155-.66-11.546.324-13.781 9.94-.451 1.94-.647 3.939-.974 5.908-1.977 11.908-4.598 23.14-15.034 31.425-6.34 5.033-6.408 12.878-2.645 20.13 1.676 3.23 3.906 6.177 5.935 9.218 3.746 5.611 6.29 11.567 5.822 18.804-2.218.261-4.16.62-6.114.698-8.645.346-17.305.424-25.933.992-3.909.257-7.86.817-9.412 5.79-3.674 11.778-12.814 13.542-24.259 10.283-4.785-1.363-9.416-3.281-14.086-5.027-22.418-8.381-44.825-16.79-67.766-25.576-18.195-8.437-35.86-16.486-53.963-25.055-1.703-.851-2.968-1.183-4.223-1.443.011.071.127-.015-.1-.673-3.998-2.753-7.705-4.975-11.55-6.925-36.213-18.359-72.672-36.245-108.634-55.08-94.43-49.46-185.88-103.974-274.482-163.253a313 313 0 0 0-6.683-4.375c-3.717-2.352-5.43-.547-6.53 3.941 20.888 22.646 42.077 45.619 63.449 69.289 2.242 4.11 4.11 7.655 6.388 10.915 19.63 28.089 39.347 56.118 59.014 84.181 32.275 46.052 64.958 91.876 93.205 140.548 22.203 38.26 42.898 77.394 64.304 116.116 8.841 15.992 17.79 31.924 26.867 48.6 11.59 24.277 23.003 47.839 34.494 72.163 2.39 10.94 6.582 20.785 6.352 32.495-8.583-2.216-16.195-4.22-23.828-6.143-20.625-5.195-20.553-5.135-31.949 13.368-6.1 9.903-12.29 19.764-18.846 29.367-6.48 9.492-11.264 10.986-22.102 7.566-5.689-1.795-11.24-4.025-17.188-6.667-41.342-42.026-82.338-83.455-123.359-124.86-86.504-87.311-173.146-174.487-259.451-261.995-24.075-24.41-47.836-49.199-70.478-74.926-14.917-16.95-27.525-35.925-41.293-53.897-2.25-2.936-3.823-6.927-10.356-8.05 17.72 40.479 34.848 79.603 52.15 119.475.656 2.338 1.073 3.951 1.63 5.514 17.316 48.56 32.31 97.823 45.566 147.647 11.703 43.99 24.084 87.799 36.1 132.48a10671 10671 0 0 0 15.408 91.786c3.989 23.145 8.14 46.261 12.087 70.284 1.195 23.698 2.51 46.504 3.857 69.308.742 12.56 1.328 25.137 2.405 37.67.53 6.173 2.017 12.264 3.073 19.309.832 12.927 1.662 24.938 2.463 37.87.536 9.186 1.095 17.453 1.665 25.719.455 6.583-3.275 10.909-9.88 11.131-1.947.066-4.01-.261-5.856-.89-3.901-1.33-6.501-.337-7.806 3.629-2.07 6.293-4.207 12.567-6.123 18.908-.958 3.168-1.342 6.507-2.24 9.697-2.845 10.108-7.531 12.534-17.94 9.827-5.667-1.473-10.209-4.39-14.352-8.525-5.911-5.898-11.055-6.071-17.633-1.018-2.89 2.22-5.296 5.057-8.019 7.506-8.063 7.251-16.649 12.396-27.874 6.75-4.654-2.341-8.725-.527-11.59 2.955-2.675 3.25-4.612 7.199-6.414 11.055-3.062 6.55-5.763 13.268-8.815 20.382-8.203-3.37-14.194-7.176-17.632-14.851-13.188-29.447-26.682-58.756-40.15-88.076-3.586-7.804-7.487-15.464-11.29-23.933-5.062-10.673-10.076-20.603-14.593-31.226.475-2 .84-3.469.372-4.588-6.358-15.206-12.831-30.363-19.349-46.326-2.314-7.753-4.088-14.904-6.867-21.64-36.442-88.342-73.088-176.6-109.547-264.935-19.054-46.167-37.835-92.448-56.771-138.664-.72-1.757-1.774-3.376-2.894-5.474l-5.891 2.742c3.283 12.048 6.369 23.587 9.575 35.09 7.228 25.934 14.516 51.85 21.76 78.6 5.888 26.223 11.795 51.62 17.726 77.91.824 6.808 1.495 12.746 2.443 18.638 5.16 32.089 10.24 64.191 15.64 96.24 4.022 23.872 8.897 47.607 12.64 71.52 3.897 24.897 6.893 49.935 10.207 75.74.769 12.773 1.614 24.717 2.198 37.54-1.879 10.672-2.888 20.62-5.306 30.211-1.985 7.872-5.852 9.874-14.133 9.414-2.92-.161-5.897-.873-8.67-1.842-6.98-2.44-11.373-7.553-14.768-14.049-3.109-5.948-5.196-13.004-12.247-15.826-6.35 3.519-7.106 9.858-9.194 15.335-4.523 11.864-14.04 17.386-25.974 13.336-6.727-2.282-12.999-6.41-18.862-10.57-4.595-3.261-8.676-7.04-14.985-7.964-2.021 2.218-4.143 4.295-5.974 6.603-4.766 6.01-11.236 6.418-16.55.665-1.779-1.926-3.155-4.295-4.403-6.629-12.222-22.871-24.36-45.787-36.574-68.662-1.543-2.889-3.388-5.616-5.164-9.136-8.307-19.325-17.105-37.641-28.147-55.562-5.335-13.302-11.487-25.573-15.766-38.466-18.946-57.092-37.666-114.264-55.82-171.61-8.612-27.206-16.33-54.728-23.393-82.376-4.665-18.26-7.288-37.033-11.204-55.496-.738-3.483-.198-8.01-4.79-10.786-.452 1.825-.889 3.016-1.028 4.24-1.69 14.848-3.513 29.684-4.948 44.556-1.914 19.84-3.517 39.709-5.7 60.242-2.715 15.695-4.982 30.714-7.727 46.363-3.287 17.274-6.232 33.895-8.864 50.567-2.268 14.365-4.179 28.787-6.487 43.934-2.847 14.78-5.454 28.81-8.547 43.435-2.749 11.562-5.011 22.526-7.637 34.185-6.166 26.507-13.013 52.14-17.526 78.177-6.826 39.38-12.027 79.043-17.918 118.585-2.663 21.068-5.29 42.14-8.004 63.201-1.356 10.527-2.369 21.133-4.45 31.52-2.046 10.208-6.384 19.607-13.903 27.179-7.822 7.877-16.496 9.765-26.35 4.436-6.357-3.438-11.917-8.374-17.754-12.744-3.45-2.583-6.497-5.786-10.16-7.986-7.898-4.744-12.59-3.812-17.898 3.656-3.842 5.405-7.054 11.261-10.48 16.957-2.225 3.7-4.03 7.69-6.543 11.175-6.966 9.659-16.154 9.654-22.477-.291-4.616-7.26-8.387-15.059-12.487-22.643-1.107-2.048-1.87-4.296-3.093-6.263-2.548-4.095-5.268-4.671-9.033-1.976-1.336.956-2.435 2.261-3.58 3.467-5.616 5.915-11.7 6.61-18.194 1.8-2.122-1.573-3.818-3.71-5.798-5.489-7.431-6.675-11.933-6.405-16.665 2.075-3.998 7.166-9.687 11.56-17.813 14.456-3.829-7.164-5.254-14.71-5.646-22.68-1.324-26.885-2.789-53.764-4.337-80.638-1.205-20.89-2.7-41.765-3.911-62.655-1.443-24.879-2.713-49.768-4.074-74.651-.635-11.612-1.306-23.222-1.95-36.71-.555-15.103-1.692-28.336-1.572-41.557.273-30.167 1.032-60.332 1.865-90.49.338-12.237 1.22-24.466 2.139-36.677 1.86-24.728 3.892-49.443 5.908-74.158.268-3.282.854-6.538 1.41-10.705.168-12.458.999-23.914 5.076-35.53 2.164-6.226 4.242-11.843 5.481-17.64 5.121-23.957 10.113-47.945 14.906-71.97 3.3-16.545 6.197-33.172 9.699-50.332 3.474-10.617 6.523-20.664 9.732-31.241-1.807.35-2.708.246-3.035.63-3.003 3.542-6.2 6.969-8.795 10.8-21.072 31.12-42.087 62.278-62.959 93.532-3.846 5.76-6.966 12.005-10.904 18.497-6.51 9.736-12.536 19-19.214 28.493-1.383.905-2.228 1.492-2.826 2.268-33.982 44.082-67.967 88.162-101.884 132.295-5.817 7.57-11.332 15.371-16.987 23.066-7.916 9.375-15.893 18.7-23.739 28.134-32.012 38.493-66.362 74.52-108.172 102.68-5.515 3.714-11.224 7.14-16.821 10.734-7.056 4.53-14.902 3.444-22.33 2.244-6.138-.99-12.199-3.386-17.884-6.037-11.445-5.336-15.126-14.135-11.708-26.26.812-2.878 2.019-5.669 2.577-8.59 2.199-11.5-.826-16.578-12.45-18.058-7.848-.999-11.978-4.755-14.065-11.823-.374-1.267-.991-2.472-1.571-3.669-4.144-8.553-7.386-8.961-13.693-1.744-10.336 11.83-10.336 11.83-25.064 15.459-1.725-7.06.447-13.655 2.802-19.865 19.918-52.524 39.436-105.213 60.416-157.313 11.785-29.269 26.102-57.519 39.293-86.22 1.526-3.322 3.145-6.6 5.406-10.995 4.983-8.57 9.185-16.102 13.598-23.507 25.839-43.36 51.756-86.672 77.582-130.04 8.818-14.807 17.447-29.728 26.708-45.005 7.625-10.609 14.702-20.809 22.403-31.292 13.59-12.68 24.782-26.443 33.636-42.772a653 653 0 0 0 15.65-17.53 9139 9139 0 0 0 32.983-38.556c1.615-1.898 4.227-3.797.683-7.246-2.019 1.025-4.378 1.97-6.465 3.332a1150 1150 0 0 0-21.502 14.375c-11.463 7.848-22.866 15.78-34.932 23.926-7.965 4.783-15.492 9.031-22.56 13.941-5.93 4.12-11.326 9.012-17.625 13.765-10.37 6.077-20.072 11.95-30.44 17.99-10.587 5.536-20.569 10.796-30.418 16.294-39.098 21.823-78.148 43.731-117.23 65.584-10.973 6.135-21.992 12.19-32.99 18.281m979.5-429.931c3.439 3.869 7.659 7.29 10.176 11.687 9.093 15.88 17.506 32.146 26.379 48.153 8.546 15.418 17.145 30.815 26.112 45.99 4.809 8.137 12.727 12.779 20.928 17.455 3.081-9.53 4.408-18.128 2.088-26.669-7.049-25.96-14.395-51.839-21.735-77.719-6.706-23.643-13.591-47.234-20.28-70.882-.661-2.337-.502-4.906-.714-7.269 6.27-1.645 9.997 1.172 13.627 4.178 19.188 15.89 38.842 31.262 57.339 47.92 9.344 8.416 18.893 7.792 29.586 6.278 2.568-9.186.561-17.003-4.737-23.928-15.741-20.577-31.66-41.019-47.49-61.527-2.097-2.717-4.092-5.514-6.134-8.274l1.335-1.782c3.959 1.42 8.009 2.63 11.862 4.295 30.83 13.32 61.687 26.577 92.393 40.173 13.481 5.97 27.257 9.8 43.118 9.505-6.433-12.128-11.584-23.613-23.333-31.073-40.71-25.852-81.115-52.186-121.525-78.509-3.979-2.592-7.192-6.359-11.487-10.236 2.745-1.77 3.972-3.166 5.367-3.36 6.892-.965 13.815-1.797 20.753-2.335 19.518-1.513 39.052-2.807 58.572-4.296 8.266-.63 16.513-1.507 24.764-2.32 11.54-1.138 23.071-2.348 34.611-3.473 7.922-.773 15.895-1.158 23.762-2.289 4.605-.662 8.74-2.872 11.166-7.676-3.402-5.863-8.909-8.504-14.712-9.62-7.458-1.435-15.14-1.795-22.744-2.361-11.588-.863-23.202-1.368-34.785-2.27-23.803-1.852-47.593-3.855-71.385-5.838-1.801-.15-3.574-.636-7.555-1.372 6.002-4.214 10.102-7.445 14.526-10.143 28.393-17.31 56.783-34.628 85.346-51.656 8.144-4.855 12.237-11.656 13.481-21-6.2-3.766-11.633-8.655-19.266-7.49-10.143 1.548-20.226 3.482-30.331 5.273-11.621 2.06-23.238 4.145-36.318 6.48 2.43-3.737 3.812-6.38 5.668-8.635 19.425-23.597 38.979-47.088 58.377-70.707 7.167-8.726 14.225-17.558 20.93-26.64 3.753-5.084 6.13-10.872 3.546-17.572-10.28-1.45-19.08-1.002-27.326 6.37-14.85 13.275-30.582 25.562-45.956 38.25-18.19 15.01-36.32 30.096-54.626 44.964-6.563 5.33-12.598 11.775-22.9 13.44.52-4.59.529-8.536 1.457-12.253a52838 52838 0 0 1 41.282-164.21c2.07-8.18 1.91-16.197.282-24.922-9.365 1.444-15.667 6.362-20.643 13.314-22.247 31.084-44.427 62.216-66.735 93.257-4.386 6.101-9.23 11.874-14.012 17.99-6.536-4.635-6.447-11.14-7.246-16.705-3.11-21.639-5.33-43.406-8.512-65.033-.617-4.19-3.268-8.81-6.383-11.742-5.542-5.22-10.873-4.49-15.135 1.903-2.871 4.308-4.589 9.528-6.12 14.555-3.077 10.1-5.674 20.346-9.055 32.67-1.36-5.933-2.53-9.64-3.03-13.437-2.806-21.346-5.398-42.72-8.175-64.07-1.248-9.595-4.087-18.582-10.762-26.181-6.798 4.544-11.107 10.47-12.73 17.792-1.427 6.437-1.687 13.14-2.365 19.734-1.493 14.51-2.884 29.032-4.39 43.542-1.847 17.794-3.57 35.606-5.755 53.36-.9 7.327-.613 15.07-5.324 22.978-3.501-3.022-7.217-5.038-9.175-8.156a226 226 0 0 1-12.92-23.625c-11.923-25.276-23.487-50.722-35.291-76.055-2.858-6.132-7.446-10.679-13.712-13.881-4.938 7.11-6.24 14.558-5.157 22.285 1.473 10.49 4.188 20.842 5.079 31.363.516 6.102 4.167 12.224 1.398 20.418-5.853-8.2-10.737-14.86-15.433-21.65-36.943-53.401-68.132-110.338-101.662-165.834-3.597-5.954-8.047-9.162-14.705-10.333-4.32 7.577-3.996 14.967-1.342 22.467 13.42 37.927 26.889 75.837 40.291 113.77 11.63 32.919 23.255 65.84 34.724 98.815 1.677 4.822 2.48 9.948 4.274 17.357-5.915-2.633-9.669-3.777-12.839-5.824-6.695-4.325-13.095-9.109-19.6-13.728-18.43-13.088-36.81-26.248-55.302-39.25-6.033-4.241-12.544-7.286-20.258-5.516-.219 6.626.632 10.316 4.285 15.11 7.45 9.78 15.104 19.402 22.698 29.07 17.444 22.21 34.938 44.38 52.294 66.656 1.61 2.066 2.382 4.783 4.016 8.183-12.333-2.08-20.547-8.561-29.312-13.796-27.693-16.54-55.3-33.22-82.914-49.893-6.605-3.987-13.535-4.983-21.947-2.944.51 8.51 4.135 15.419 9.557 21.254 13.819 14.875 27.912 29.495 41.943 44.17 16.795 17.567 33.647 35.08 50.457 52.632 2.882 3.01 5.697 6.091 6.88 12.052-13.537-1.437-26.068-2.473-38.511-4.154-20.68-2.793-41.293-6.08-61.955-9.007-16.401-2.324-32.945-3.83-49.212-6.846-9.711-1.8-16.32 2.352-23.94 6.998 4.871 8.066 10.595 13.51 18.551 15.743 17.9 5.02 35.946 9.512 53.888 14.383 22.207 6.028 44.37 12.221 68.428 18.861-3.683 1.414-5.427 2.419-7.29 2.745-12.72 2.229-25.403 4.862-38.217 6.322-20.74 2.362-41.574 3.903-62.365 5.832-8.253.766-16.505 1.565-24.74 2.494-10.163 1.147-16.276 7.731-21.362 15.525 7.714 12.03 18.302 17.104 31.932 18.188 16.163 1.286 32.23 3.93 48.296 6.278 25.233 3.689 50.426 7.657 75.647 11.441 14.087 2.114 28.21 3.993 42.283 6.199 3.834.6 7.837 1.583 9.6 6.938-2.99 2.077-5.743 4.498-8.908 6.106-25.812 13.115-51.785 25.914-77.532 39.153-13.31 6.844-26.353 14.224-39.34 21.67-7.873 4.515-12.461 11.51-13.873 20.705 7.96 3.822 15.864 4.598 23.7 2.14 13.005-4.078 25.914-8.508 38.704-13.223 28.381-10.464 56.656-21.215 84.999-31.785 2.163-.807 4.515-1.108 8.01-1.935-12.853 22.999-24.826 44.463-36.837 65.908-14.629 26.119-29.323 52.201-43.923 78.336-9.248 16.555-18.18 33.29-27.634 49.724-5.275 9.171-2.961 18.265-2.524 28.157 11.718-2.129 18.545-8.93 24.26-16.707 13.78-18.75 27.112-37.828 40.69-56.726 16.677-23.215 33.124-46.603 50.222-69.506 15.496-20.757 31.67-41.012 47.68-61.383 4.599-5.852 9.662-11.339 14.512-16.993 1.735 5.696 2.267 10.62 1.646 15.392-3.204 24.639-6.275 49.309-10.325 73.814-1.469 8.89 2.004 15.04 6.048 21.658 9.304-3.688 14.873-9.955 17.994-18.49 2.854-7.805 5.448-15.708 8.426-23.464 3.277-8.53 6.92-16.91 13.377-25.929 1.931 14.19 3.393 26.564 5.336 38.863 4.342 27.484 8.881 54.937 13.421 82.389 3.298 19.939 6.535 39.891 10.19 59.766 1.407 7.646 6.557 12.574 14.223 15.606 1.848-2.385 3.318-4.556 5.06-6.482 6.916-7.646 10.591-16.027 6.908-26.485-.634-1.797-.274-3.965-.275-5.963-.011-42.997-.022-85.994.026-128.99.003-2.465.514-4.928.788-7.392 4.052 2.947 6.566 6.305 8.468 9.98 5.038 9.735 9.726 19.65 14.703 29.416a38758 38758 0 0 0 52.307 102.31c3.647 7.102 7.57 14.065 11.501 21.015 4.456 7.875 11.66 11.087 19.965 12.502 5.805-11.59 3.347-22.078-.184-32.594-11.012-32.793-22.04-65.58-32.87-98.433-2.065-6.265-3.25-12.82-3.421-19.22m-504.38 456.763-.249.515s.449-.098.248-.515"/><path fill="#97999a" d="M1451.974 3109.99c1.705 2.802 3.55 5.53 5.093 8.418 12.214 22.875 24.352 45.791 36.574 68.662 1.248 2.334 2.624 4.703 4.403 6.63 5.314 5.752 11.784 5.345 16.55-.666 1.83-2.308 3.953-4.385 5.974-6.603 6.309.923 10.39 4.703 14.985 7.964 5.863 4.16 12.135 8.288 18.862 10.57 11.934 4.05 21.451-1.472 25.974-13.336 2.088-5.477 2.845-11.816 9.194-15.335 7.05 2.822 9.138 9.878 12.247 15.826 3.395 6.496 7.789 11.61 14.768 14.049 2.773.97 5.75 1.68 8.67 1.842 8.28.46 12.148-1.542 14.133-9.414 2.418-9.591 3.427-19.539 6.062-30.086 2.333-.633 3.665-.599 4.966-.38 39.227 6.6 78.451 13.216 117.676 19.83 3.756 7.727 7.657 15.387 11.242 23.191 13.469 29.32 26.963 58.63 40.151 88.076 3.438 7.675 9.429 11.481 17.632 14.85 3.052-7.113 5.753-13.831 8.815-20.381 1.802-3.856 3.74-7.805 6.414-11.055 2.865-3.482 6.936-5.296 11.59-2.956 11.225 5.647 19.811.502 27.874-6.75 2.723-2.448 5.13-5.285 8.019-7.505 6.578-5.053 11.722-4.88 17.633 1.018 4.143 4.135 8.685 7.052 14.351 8.525 10.41 2.707 15.096.281 17.941-9.827.898-3.19 1.282-6.529 2.24-9.697 1.916-6.34 4.053-12.615 6.123-18.908 1.305-3.966 3.905-4.959 7.806-3.63 1.846.63 3.91.957 5.856.891 6.605-.222 10.335-4.548 9.88-11.131-.57-8.266-1.129-16.533-.732-25.69 15.562-1.552 30.177-1.984 44.76-2.931 16.212-1.053 32.441-2.163 48.58-3.984 26.663-3.007 53.42-5.662 79.845-10.181 36.252-6.2 72.422-13.16 108.283-21.313 51.581-11.726 101.855-28.01 151.563-46.13 41.297-15.052 81.665-32.232 121.268-51.21 18.008-8.629 35.822-17.75 53.223-27.538 28.112-15.815 56.232-31.69 83.58-48.77 38.367-23.966 75.279-50.083 110.87-78.097 30.587-24.074 60.433-49.026 88.604-75.809 36.911-35.094 72.487-71.527 105.362-110.564 27.649-32.831 54.031-66.603 78.567-101.777 34.881-50.007 65.784-102.467 93.326-156.836 11.87-23.43 22.962-47.333 32.911-71.634 13.724-33.52 27.306-67.203 38.59-101.59 11.687-35.608 21.11-71.999 30.527-108.306 13.004-50.14 20.666-101.32 26.884-152.67 2.948-24.348 4.628-48.88 6.046-73.376 1.288-22.236 1.68-44.534 1.981-66.811.125-9.265-1.483-18.546-1.49-27.82-.017-28.938-.853-57.814-4.06-86.605-2.2-19.763-3.635-39.617-6.12-59.342-3.104-24.653-5.89-49.422-10.698-73.769-7-35.452-15.019-70.74-23.815-105.793-10.767-42.904-24.85-84.835-40.67-126.143-17.743-46.33-37.864-91.638-61.6-135.207-15.905-29.194-32.39-58.135-50.007-86.319-25.925-41.471-54.144-81.424-86.075-118.568-22.744-26.46-45.26-53.187-69.33-78.412-20.872-21.876-43.444-42.183-65.895-62.486-18.97-17.157-38.272-34.052-58.445-49.755-36.21-28.188-73.2-55.404-112.554-79.133-26.198-15.797-52.353-31.792-79.433-45.97-31.244-16.356-63.326-31.148-95.33-46.003-36.835-17.097-74.903-31.232-113.427-43.94-30.591-10.09-61.506-19.355-92.653-27.562-29.498-7.772-59.381-14.206-89.29-20.26-23.694-4.796-47.667-8.23-71.55-12.061-10.467-1.68-20.993-3.093-31.539-4.177-16.164-1.663-32.357-3.083-48.558-4.345-25.794-2.01-51.58-4.816-77.415-5.451-37.641-.926-75.322-.226-112.986-.21-2.333 0-4.676-.049-6.996.14-22.804 1.86-45.61 3.705-68.403 5.681-15.528 1.347-31.147 2.178-46.532 4.51-30.785 4.666-61.496 9.887-92.133 15.453a1144.6 1144.6 0 0 0-162.822 42.141c-34.927 11.834-69.39 25.15-103.623 38.89-50.086 20.105-98.105 44.58-144.986 71.297-5.145 2.931-10.63 5.267-15.956 7.88-5.57-8.991-11.48-17.79-16.648-27.006-17.77-31.688-37.761-61.799-61.623-89.283-4.15-4.779-7.667-9.89-13.976-12.33-11.08-4.286-19.686.553-21.29 12.372-2.035 15.006-4.99 16.626-19.635 12.508-7.599-2.136-15.514-3.774-23.368-4.224-10.71-.614-18.39 5.05-22.102 15.175-1.466 3.995-2.095 8.336-2.781 12.572-1.31 8.079-2.943 11.525-9.62 18.083l-30.962-25.282c-4.677 9.78-9.626 17.703-9.292 27.444.203 5.922-1.798 10.894-6.08 16.334l-14.79-16.502c-5.747 2.186-8.116 6.404-8.987 11.441-5.537 32.036-11.716 63.99-10.061 96.806 1.004 19.912 1.236 39.862 2.105 59.782 1.157 26.536 2.55 53.061 3.95 79.585.332 6.281 1.1 12.54.917 19.76-5.59 5.847-10.567 10.612-15.239 15.66-15.084 16.305-30.673 32.195-44.926 49.202-21.69 25.881-42.48 52.518-63.53 78.93-7.599 9.535-14.848 19.349-22.256 29.035-7.418-5.506-14.848-10.995-22.251-16.52-26.112-19.493-52.19-39.031-78.336-58.48-7.473-5.558-15.45-10.48-22.616-16.397-8.351-6.896-17.831-9.535-29.944-10.236 2.1 7.63 3.953 14.494 5.892 21.335.54 1.91 1.628 3.698 1.953 5.629.93 5.52-1.106 8.417-6.786 8.472-4.907.047-10.1-.264-14.67-1.849-6.137-2.13-11.026-.762-15.789 2.796-3.1 2.316-4.586 4.865-3.703 9.35 2.872 14.6-.627 18.397-14.606 15.197-8.452-1.935-16.426-1.586-26.042.495-1.884-.057-2.302-.088-2.721-.12 6.742-11.446 13.13-23.119 20.288-34.299 30.18-47.143 62.842-92.541 98.202-135.918 18.497-22.69 37.587-44.986 57.65-66.29 28.543-30.308 57.256-60.583 87.698-88.939 30.895-28.778 63.5-55.794 96.23-82.511 37.935-30.966 78.214-58.832 119.448-85.237 37.862-24.245 76.75-46.731 116.519-67.773 58.374-30.885 118.662-57.397 180.469-80.451 58.955-21.99 119.058-40.501 180.47-54.253 37.897-8.486 76.125-15.639 114.406-22.227 28.443-4.895 57.153-8.402 85.847-11.619 20.461-2.294 41.106-2.908 61.644-4.575 44.184-3.584 88.46-4.44 132.725-3.291 28.884.75 57.73 3.235 86.575 5.202 17.9 1.22 35.81 2.54 53.638 4.51 20.455 2.261 40.956 4.556 61.205 8.147 37.923 6.724 75.846 13.626 113.462 21.856 52.006 11.38 103.123 26.192 153.471 43.538 47.54 16.378 94.213 34.925 139.948 55.862 70.985 32.496 139.212 69.92 204.475 112.797 47.625 31.288 93.318 65.107 137.31 101.33 48.16 39.656 93.68 82.13 136.425 127.481 52.58 55.785 100.769 115.21 144.333 178.365 32.554 47.195 62.273 96.064 89.377 146.584 35.648 66.444 65.571 135.35 90.737 206.398 16.9 47.712 31.546 96.11 42.614 145.454 8.935 39.832 16.449 80.021 23.243 120.28 4.636 27.466 7.08 55.31 10.264 83.012 4.144 36.049 6.108 72.225 6.16 108.522.024 15.962 1.547 31.941 1.144 47.88-.756 29.92-1.661 59.874-3.909 89.708-2.42 32.11-5.397 64.252-10.052 96.1-5.424 37.106-12.307 74.033-19.68 110.813-10.466 52.213-24.973 103.413-41.82 153.913-18.551 55.615-40.477 109.874-65.341 163.006-32.116 68.629-69.62 134.139-111.764 197.024-30.784 45.938-64.205 89.896-99.93 132.135-32.94 38.946-67.57 76.295-104.316 111.639a1584 1584 0 0 1-96.386 85.407c-46.488 37.952-94.84 73.313-145.689 105.104-31.594 19.753-63.95 38.351-96.527 56.457-53.91 29.962-110.023 55.335-167.443 77.827-65.453 25.64-132.34 46.69-200.66 63.26-42.645 10.343-85.65 18.926-129.013 25.434-29.864 4.483-59.978 7.343-90.012 10.647-33.07 3.638-66.23 5.89-99.526 6.153-22.625.179-45.26 1.692-67.863 1.248-31.59-.62-63.23-1.57-94.711-4.098a1923 1923 0 0 1-108.92-11.898c-45.74-6.314-91.067-15.185-136.02-25.855-49.218-11.681-97.83-25.498-145.619-42.065-45.292-15.701-90.006-32.936-133.499-53.185-14.187-6.605-28.27-13.434-42.458-20.04-2.68-1.248-5.625-1.922-9.186-3.01 5.153-39.691 10.354-79.353 17.18-118.734 4.513-26.037 11.36-51.67 18.217-78.049 13.287 6.109 25.293 13.246 37.796 19.366 31.922 15.627 63.866 31.24 96.2 45.982 18.07 8.24 36.935 14.735 55.442 22.016"/><path fill="#97999a" d="M622.233 1669.663c-17.18-1-34.36-1.995-51.54-3.005-2.316-.137-4.626-.414-6.944-.516-17.893-.785-35.795-1.399-53.68-2.347-22.167-1.175-44.318-2.637-66.478-3.941-12.573-.74-25.15-1.41-38.644-2.276 1.606-14.2 3.916-28.281 6.703-42.267 5.45-27.35 10.611-54.775 16.899-81.937 10.65-46.005 23.85-91.322 39.404-135.921 17.648-50.601 37.118-100.482 60.58-148.707 12.23-25.136 25.03-49.995 37.634-74.948 1.341-2.655 3.1-5.1 5.233-8.12-.17 19.816 6.447 38.242 16.407 55.286 17.904 30.638 35.903 61.275 55.327 90.953 17.057 26.062 36.1 50.825 54.33 76.116 1.74 2.413 3.93 4.5 5.442 7.446-2.126 3.068-4.368 5.207-5.352 7.82-9.582 25.463-19.689 50.762-28.214 76.581-12.782 38.712-24.323 77.842-32.86 117.752-5.118 23.931-9.522 48.015-14.247 72.03m-234.002 243.431c18.546 2.667 37.05 6.275 55.571 9.78 34.136 6.46 68.299 12.778 102.42 19.315 19.495 3.735 38.93 7.785 59.126 12.786 1.432 14.992 2.015 28.897 2.87 42.786a399 399 0 0 0 2.194 23.719c1.718 14.103 3.51 28.203 5.592 42.256 2.907 19.613 5.84 39.23 9.265 58.757 3.254 18.56 7.154 37.008 10.77 55.505-1.696 1.517-3.243 3.252-5.11 4.519-31.912 21.668-63.864 43.28-95.808 64.902-27.796 18.815-55.593 37.629-84.044 56.579-15.253-48.897-27.825-98.452-36.918-148.796-6.01-33.27-11.275-66.708-15.669-100.228-3.23-24.652-4.787-49.539-6.58-74.358-1.6-22.183-2.502-44.417-3.679-67.522m603.202 898.675c-.438 3.268-1.024 6.524-1.292 9.806-2.016 24.715-4.049 49.43-5.908 74.158-.918 12.211-1.801 24.44-2.139 36.677-.833 30.158-1.592 60.323-1.865 90.49-.12 13.221 1.017 26.454 1.481 40.661a455 455 0 0 1-32.701-23.549c-48.91-38.633-94.313-81.14-138.594-125.89 5.08-8.079 10.596-15.88 16.413-23.45 33.917-44.133 67.902-88.213 101.884-132.295.598-.776 1.443-1.363 3.503-2.204 5.673 4.305 10.055 8.738 14.351 13.253 11.678 12.269 23.273 24.617 35.01 36.828 2.663 2.77 4.945 6.603 9.857 5.515"/><path fill="#97999b" d="M562.213 2574.593c10.704-6.73 21.723-12.785 32.697-18.92 39.081-21.853 78.131-43.761 117.23-65.584 9.848-5.498 19.83-10.758 30.689-15.57 9.742 16.956 18.546 33.354 27.35 49.751-8.714 14.87-17.343 29.79-26.161 44.598-25.826 43.367-51.743 86.68-77.582 130.039-4.413 7.405-8.615 14.936-13.449 22.79-23.274-35.5-46.203-71.262-68.65-107.326-7.886-12.667-14.588-26.071-22.124-39.778"/><path fill="#999b9f" d="M600.965 1114.215c.96-.333 1.378-.302 2.426-.238.663 2.328.062 4.871.841 6.878 3.711 9.555-2.042 15.007-8.539 19.83-3.905 2.9-8.525 4.84-13.594 7.202 5.595-11.108 11.96-22.208 18.866-33.672"/><path fill="#0025e0" d="M2268.092 1574.155c22.716-18.484 45.504-36.88 68.132-55.47 51.947-42.681 103.84-85.427 155.704-128.209 22.85-18.849 45.55-37.883 68.376-56.762 8.288-6.855 10.218-16.774 13.439-26.274-16.632-11.577-35.45-9.874-54.991-11.086 3.25-2.918 6.38-5.988 9.78-8.72 5.823-4.679 11.009-9.94 13.024-17.26 2.358-8.569.65-11.538-7.053-13.208-6.7-1.452-13.17-3.963-19.813-6.029 1.852-9.267 7.388-14.84 13.633-19.958 2.823-2.313 5.767-4.562 8.189-7.26 3.595-4.005 4.809-8.706 2.21-13.827-2.795-5.512-7.912-4.772-12.26-3.548-19.765 5.562-39.495 3.273-59.935.701-.279-13.225 11.607-20.52 15.34-31.887-12.3-4.22-23.368-5.52-35.82-.108-44.535 19.358-89.538 37.638-135.845 56.539-4.948 1.174-8.625 1.681-11.846 3.173-15.082 6.989-30.059 14.205-45.035 21.42-38.646 18.62-77.381 37.059-115.876 55.987-41.51 20.411-82.81 41.254-124.153 62.008-8.61 4.322-16.86 9.373-25.532 13.557-8.554 4.126-17.434 7.578-26.171 11.326 1.473-2.883 2.644-5.974 4.465-8.617 34.561-50.132 70.368-99.452 103.497-150.511 34.577-53.291 66.662-108.202 99.689-162.494 14.697-24.16 29.034-48.54 44.578-72.659 3.827 1.123 6.554 2.67 9.402 2.94 9.56.909 19.154 1.633 28.75 1.936 26.233.83 52.472 1.66 78.715 2.015 26.639.36 53.297-.296 79.926.353 16.512.402 32.453-1.73 48.03-6.793 20.492-6.66 37.113-17.952 44.384-39.478 7.07-20.93 2.918-40.642-7.402-59.39-9.23-16.766-21.696-30.67-36.546-42.923-25.72-21.22-52.972-40.066-82.166-56.039-35.075-19.19-71.713-34.968-109.695-47.435-44.46-14.593-89.734-26.29-135.54-35.761-28.834-5.963-57.81-11.348-86.873-16.064-25.784-4.184-51.9-6.366-77.642-10.764-24.666-4.215-49.553-3.78-74.316-5.134-20.482-1.12-41.135 1.302-61.713 1.342-12.405.024-24.53 1.19-36.42 4.452-11.111 3.05-22.093 6.57-33.131 9.883-9.143-1.023-17.455.384-25.64 5.412-9.407 5.779-14.352 3.44-18.477-6.703-3.08-7.572-3.08-7.572-8.571-11.517-5.177 1.16-8.704 4.374-10.968 9.138-.712 1.498-1.404 3.01-2.205 4.462-6.103 11.056-13.407 11.701-21.58 1.851-1.689-2.036-2.983-4.397-4.644-6.46-5.872-7.294-9.048-7.811-16.771-2.825-1.95 1.26-3.816 2.649-7.023 3.909-11.522-4.967-16.573-4.103-23.391 3.402-7.593 8.357-15.381 16.537-22.958 24.909-7.266 8.03-16.06 13.74-25.719 18.53-43.513 21.575-86.806 43.597-130.392 65.025-34.758 17.087-66.954 38.045-97.432 61.836-13.59 10.609-27.612 20.666-41.438 30.974-8.738-24.747-17.476-49.495-25.684-75.278 79.71-48.411 162.97-87.028 250.374-116.564 118.65-40.096 240.645-63.305 365.669-69.697 57.866-2.96 115.82-1.583 173.552 3.912 24.498 2.332 48.911 5.75 73.27 9.308 77.305 11.292 152.695 30.433 226.36 56.361 167.026 58.79 315.327 148.543 444.38 269.812 63.121 59.314 119.141 124.845 167.777 196.543 102.335 150.861 168.32 316.17 196.068 496.491 3.936 25.58 7.314 51.288 9.68 77.053 2.677 29.164 4.747 58.437 5.55 87.704.748 27.28-.504 54.613-.895 81.923-.66 45.974-6.05 91.553-13.048 136.874-4.97 32.19-11.414 64.227-18.8 95.96-28.986 124.515-76.72 241.601-141.593 351.7-78.454 133.15-177.7 248.55-297.293 346.36-80.832 66.11-168.497 121.525-262.853 166.38-75.427 35.858-153.642 63.892-234.419 84.918-40.904 10.647-82.441 17.988-124.263 23.86-9.52 1.336-18.998 2.969-28.524 4.258-20.763 2.812-41.716 4.611-62.248 8.595-10.302 2-22.075 2.352-29.89 11.63-1.054-6.127-2.54-12.218-3.07-18.39-1.078-12.534-1.664-25.11-2.406-37.671-1.348-22.804-2.662-45.61-3.01-69.295 4.581-.416 8.174.152 11.788.494 9.549.905 19.102 2.326 28.663 2.394 10.909.078 21.83-1.024 32.74-1.724 10.247-.657 20.611-.69 30.7-2.355 20.542-3.392 41.052-7.173 61.356-11.761 25.046-5.66 49.245-14.431 71.424-27.26 23.08-13.35 46.363-16.068 71.712-8.666 10.706 3.126 22.048 4.076 33.1 6.015 5.614 2.034 11.165 4.264 16.854 6.059 10.838 3.42 15.622 1.926 22.102-7.566 6.556-9.603 12.747-19.464 18.846-29.367 11.396-18.503 11.324-18.563 31.949-13.368 7.633 1.923 15.245 3.927 23.828 6.143.23-11.71-3.963-21.555-5.538-32.64 11.457-4.382 22.368-7.363 32.852-11.442 17.33-6.742 35.014-12.994 51.428-21.593 33.576-17.59 65.608-37.827 96.034-60.565 30.894-23.087 60.79-47.398 88.466-74.222 33.212-32.188 66.159-64.678 96.324-99.847 12.543-14.622 26.018-28.445 38.52-43.101a1937 1937 0 0 0 44.234-53.824c23.705-29.904 47.49-59.762 70.427-90.252 36.237-48.171 67.7-99.458 96.079-152.585 19.131-35.814 36.803-72.406 52.005-110.075 22.017-54.554 41.862-109.882 53.923-167.636 5.079-24.318 9.592-48.771 9.303-73.835-.083-7.25 1.553-14.514 1.55-21.77-.004-6.925-1.06-13.855-1.755-20.772-1.46-14.537-6.095-28.007-15.228-39.445-9.161-11.475-22.418-16.016-36.272-15.551-13.593.455-26.775 4.963-38.396 12.6-9.439 6.204-18.58 12.858-27.895 19.251-9.86 6.767-19.446 14.013-29.736 20.055-13.74 8.067-20.38 3.834-20.548-11.996-.25-23.601 1.334-47.07 3.802-70.541 1.525-14.5 1.678-29.154 2.184-43.748.794-22.915 1.658-45.834 1.904-68.758.117-10.916-1.01-21.854-1.78-32.768-.63-8.923-.803-17.974-2.508-26.708-5.474-28.047-15.506-54.145-33.73-76.75-19.323-23.968-44.22-33.509-74.19-28.68-26.065 4.2-47.875 17.42-66.672 35.597-20.14 19.475-36.983 41.743-53.23 64.446-27.197 38.008-49.315 78.973-69.383 121.06-5.7 11.954-10.068 24.545-15.047 36.843-23.43-2.6-46.855-5.247-70.292-7.783-14.86-1.608-29.707-3.499-44.612-4.473-28.194-1.843-56.425-3.09-84.638-4.636-23.229-1.272-46.454-2.619-70.85-4.21-1.825-.11-2.478.058-3.132.225-64.383-4.735-128.857-4.606-193.346-3.618-6.65.102-13.297.379-21.345.46-1.974.223-2.549.56-3.123.896-31.514 2.263-63.042 4.339-94.537 6.848-27.172 2.165-54.298 4.922-81.463 7.19-6.62.553-13.314.212-20.535-.406 30.301-23.655 61.246-46.51 92-69.62 30.222-22.707 60.36-45.531 90.331-68.567 24.47-18.807 48.887-37.711 70.478-59.926 1.838-1.89 4.183-3.283 6.05-5.149 7.96-7.952 15.83-15.996 23.731-24.007 0 0 .028.14.426-.027.992-.515 1.428-1.005 1.704-1.637m323.575-484.746c9.067 8.21 17.897 16.7 27.246 24.573 26.27 22.126 56.406 37.28 88.793 48.174 7.531 2.533 15.086 3.658 23.273 2.04 21.497-4.251 34.479-23.64 30.586-45.018-5.81-31.902-23.778-56.101-47.951-75.917-24.625-20.185-53.351-33.33-82.826-45.049-9.585-3.811-20.425-1.741-29.34-7.66-.894-.593-3.162.478-4.6 1.176-8.085 3.924-16.186 7.83-24.135 12.02-6.124 3.23-10.972 8.072-11.943 15.1-2.379 17.212-1.684 33.906 10.883 47.822 6.454 7.147 12.817 14.378 20.014 22.74"/><path fill="#00219a" d="M2671.876 1813.05c4.348-12.753 8.716-25.344 14.416-37.299 20.068-42.086 42.186-83.051 69.384-121.059 16.246-22.703 33.09-44.97 53.229-64.446 18.797-18.177 40.607-31.397 66.673-35.597 29.969-4.829 54.866 4.712 74.19 28.68 18.223 22.605 28.255 48.703 33.729 76.75 1.705 8.734 1.878 17.785 2.508 26.708.77 10.914 1.897 21.852 1.78 32.768-.246 22.924-1.11 45.843-1.904 68.758-.506 14.594-.66 29.248-2.184 43.748-2.468 23.472-4.053 46.94-3.802 70.54.167 15.831 6.808 20.064 20.548 11.997 10.29-6.042 19.876-13.288 29.736-20.055 9.315-6.393 18.456-13.047 27.895-19.25 11.621-7.638 24.803-12.146 38.396-12.601 13.854-.465 27.11 4.076 36.272 15.551 9.133 11.438 13.768 24.908 15.228 39.445.695 6.917 1.75 13.847 1.755 20.771.003 7.257-1.633 14.521-1.55 21.77.289 25.065-4.224 49.518-9.303 73.836-12.06 57.754-31.906 113.082-53.923 167.636-15.202 37.67-32.874 74.26-52.005 110.075-28.38 53.127-59.842 104.414-96.079 152.585-22.936 30.49-46.722 60.348-70.427 90.252a1937 1937 0 0 1-44.234 53.824c-12.502 14.656-25.977 28.479-38.52 43.1-30.165 35.17-63.112 67.66-96.324 99.848-27.676 26.824-57.572 51.135-88.466 74.222-30.426 22.738-62.458 42.975-96.034 60.565-16.414 8.599-34.097 14.85-51.428 21.593-10.484 4.079-21.395 7.06-32.93 10.68-12.227-23.417-23.64-46.98-34.536-71.58 1.635-2.239 2.913-3.33 3.85-4.66 13.939-19.796 27.88-39.592 41.727-59.453 30.919-44.345 61.747-88.752 92.713-133.064 4.542-6.499 9.642-12.607 14.484-18.897 22.41 8.398 44.818 16.807 67.236 25.188 4.67 1.746 9.301 3.664 14.086 5.027 11.445 3.259 20.585 1.495 24.26-10.283 1.55-4.973 5.502-5.533 9.41-5.79 8.63-.568 17.29-.646 25.934-.992 1.953-.078 3.896-.437 6.114-.698.467-7.237-2.076-13.193-5.822-18.804-2.03-3.04-4.26-5.987-5.935-9.218-3.763-7.252-3.694-15.097 2.645-20.13 10.436-8.284 13.057-19.517 15.034-31.425.327-1.97.523-3.968.974-5.908 2.235-9.616 3.626-10.6 13.78-9.94.996.065 1.99.18 2.98.316 10.533 1.46 11.993-2.855 9.883-13.497-.534-2.694-2.956-5.174-4.912-7.4-18.666-21.246-37.419-42.416-56.112-64.81 4.38-7.07 8.756-12.913 13.064-18.806 23.784-32.537 45.006-66.575 60.747-103.819 7.31-17.296 11.188-35.425 11.734-54.1.533-18.195-7.763-30.3-25.003-34.98-16.568-4.499-33.634-7.153-50.465-10.695-12.61-2.654-25.532-4.402-37.707-8.404-16.73-5.5-31.088-15.094-40.269-30.883-8.014-13.782-11.996-28.804-12.19-44.627-.116-9.574 1.02-19.173 1.786-28.745.688-8.58 1.152-17.22 2.567-25.69 4.138-24.779 8.702-49.487 13.1-74.223 18.314-3.157 36.572-6.7 54.954-9.393 42.098-6.168 82.642-17.325 121.107-35.776 6.582-3.156 11.774-7.455 15.614-13.485 4.217-6.62 3.978-8.318-2.093-13.388-7.923-6.616-16.003-13.043-23.976-19.6-2.57-2.113-5.212-4.195-7.481-6.61-4.991-5.31-4.463-8.935 1.935-12.657 2.852-1.658 6.103-2.625 9.155-3.946 11.483-4.968 12.14-11.057 2.696-18.815-6.632-5.448-12.71-11.615-18.676-17.807-2.334-2.422-6.239-4.757-4.291-9.235 2.145-4.932 6.737-4.96 11.107-4.772 12.568.538 22.422-4.679 31.115-14.089-5.203-8.27-11.029-14.429-21.35-16.246-26.85-4.727-53.566-10.225-80.323-15.476-3.584-.704-7.098-1.762-11.276-3.11"/><path fill="#83734e" d="M1977.544 3159.083c7.813-10.196 19.586-10.549 29.888-12.548 20.532-3.984 41.485-5.783 62.248-8.595 9.526-1.29 19.004-2.922 28.524-4.258 41.822-5.872 83.36-13.213 124.263-23.86 80.777-21.026 158.992-49.06 234.42-84.917 94.355-44.856 182.02-100.272 262.852-166.38 119.593-97.811 218.839-213.212 297.293-346.36 64.872-110.1 112.607-227.186 141.593-351.702 7.386-31.732 13.83-63.768 18.8-95.96 6.998-45.32 12.389-90.899 13.048-136.873.391-27.31 1.643-54.644.894-81.923-.802-29.267-2.872-58.54-5.55-87.704-2.365-25.765-5.743-51.474-9.68-77.053-27.747-180.321-93.732-345.63-196.067-496.491-48.636-71.698-104.656-137.23-167.777-196.543-129.053-121.269-277.354-211.023-444.38-269.812-73.665-25.928-149.055-45.069-226.36-56.36-24.359-3.559-48.772-6.977-73.27-9.309-57.733-5.495-115.686-6.871-173.552-3.912-125.024 6.392-247.018 29.601-365.67 69.697-87.403 29.536-170.662 68.153-250.487 115.84-7.414-4.31-12.088-10.566-15.767-17.862-6.874-13.636-14.138-27.076-21.364-41.34 5.203-3.355 10.687-5.69 15.832-8.622 46.881-26.718 94.9-51.192 144.986-71.297 34.233-13.74 68.696-27.056 103.623-38.89a1144.6 1144.6 0 0 1 162.822-42.141c30.637-5.566 61.348-10.787 92.133-15.453 15.385-2.332 31.004-3.163 46.532-4.51 22.794-1.976 45.6-3.82 68.403-5.68 2.32-.19 4.663-.14 6.996-.142 37.664-.015 75.345-.715 112.986.21 25.835.636 51.62 3.442 77.415 5.452 16.201 1.262 32.394 2.682 48.558 4.345 10.546 1.084 21.072 2.498 31.54 4.177 23.882 3.83 47.855 7.265 71.548 12.06 29.91 6.055 59.793 12.489 89.291 20.261 31.147 8.207 62.062 17.472 92.653 27.563 38.524 12.707 76.592 26.842 113.427 43.94 32.004 14.854 64.086 29.646 95.33 46.003 27.08 14.177 53.235 30.172 79.433 45.97 39.354 23.728 76.343 50.944 112.554 79.132 20.173 15.703 39.474 32.598 58.445 49.755 22.451 20.303 45.023 40.61 65.896 62.486 24.068 25.225 46.585 51.953 69.329 78.412 31.93 37.144 60.15 77.097 86.075 118.568 17.617 28.184 34.102 57.125 50.007 86.32 23.736 43.568 43.857 88.876 61.6 135.206 15.82 41.308 29.903 83.24 40.67 126.143 8.796 35.054 16.815 70.34 23.815 105.793 4.807 24.347 7.594 49.116 10.699 73.77 2.484 19.724 3.919 39.578 6.12 59.341 3.206 28.79 4.042 57.667 4.06 86.606.006 9.273 1.614 18.554 1.49 27.819-.301 22.277-.694 44.575-1.982 66.811-1.418 24.497-3.098 49.028-6.046 73.376-6.218 51.35-13.88 102.53-26.884 152.67-9.416 36.307-18.84 72.698-30.526 108.307-11.285 34.386-24.867 68.068-38.59 101.589-9.95 24.3-21.043 48.205-32.912 71.634-27.542 54.369-58.445 106.83-93.326 156.836-24.536 35.174-50.918 68.946-78.567 101.777-32.875 39.037-68.451 75.47-105.362 110.564-28.17 26.783-58.017 51.735-88.604 75.81-35.591 28.013-72.503 54.13-110.87 78.095-27.348 17.082-55.468 32.956-83.58 48.77-17.4 9.79-35.215 18.91-53.223 27.54-39.603 18.977-79.97 36.157-121.268 51.21-49.708 18.118-99.982 34.403-151.563 46.13-35.86 8.152-72.03 15.113-108.283 21.312-26.425 4.519-53.182 7.174-79.845 10.181-16.139 1.82-32.368 2.931-48.58 3.984-14.583.947-29.198 1.38-44.732 2.01-1.762-12.04-2.592-24.05-3.424-36.978"/><path fill="#c3cdfe" d="M1540 2144c1.59 6.421 2.775 12.977 4.84 19.242 10.83 32.853 21.858 65.64 32.87 98.433 3.531 10.516 5.989 21.003.184 32.594-8.306-1.415-15.51-4.627-19.965-12.502-3.932-6.95-7.854-13.913-11.5-21.015a38758 38758 0 0 1-52.308-102.31c-4.977-9.766-9.665-19.681-14.703-29.416-1.902-3.675-4.416-7.033-8.468-9.98-.274 2.464-.785 4.927-.788 7.391-.048 42.997-.037 85.994-.026 128.991 0 1.998-.359 4.166.275 5.963 3.683 10.458.008 18.839-6.908 26.485-1.742 1.926-3.212 4.097-5.06 6.482-7.666-3.032-12.816-7.96-14.222-15.606-3.656-19.875-6.893-39.827-10.19-59.766-4.54-27.452-9.08-54.905-13.422-82.39-1.943-12.298-3.405-24.673-5.336-38.862-6.458 9.019-10.1 17.399-13.377 25.929-2.978 7.756-5.572 15.659-8.426 23.464-3.12 8.535-8.69 14.802-17.994 18.49-4.044-6.618-7.517-12.768-6.048-21.658 4.05-24.505 7.121-49.175 10.325-73.814.62-4.773.09-9.696-1.646-15.392-4.85 5.654-9.913 11.141-14.512 16.993-16.01 20.371-32.184 40.626-47.68 61.383-17.098 22.903-33.545 46.29-50.222 69.506-13.578 18.898-26.91 37.977-40.69 56.726-5.715 7.777-12.542 14.578-24.26 16.707-.437-9.892-2.751-18.986 2.524-28.157 9.454-16.435 18.386-33.17 27.634-49.724 14.6-26.135 29.294-52.217 43.923-78.336 12.011-21.445 23.984-42.91 36.836-65.908-3.494.827-5.846 1.128-8.01 1.935-28.342 10.57-56.617 21.32-84.998 31.785-12.79 4.715-25.699 9.145-38.704 13.223-7.836 2.458-15.74 1.682-23.7-2.14 1.412-9.195 6-16.19 13.873-20.704 12.987-7.447 26.03-14.827 39.34-21.67 25.747-13.24 51.72-26.04 77.532-39.154 3.165-1.608 5.917-4.03 8.908-6.106-1.763-5.355-5.766-6.337-9.6-6.938-14.073-2.206-28.196-4.085-42.283-6.199-25.22-3.784-50.414-7.752-75.647-11.44-16.066-2.35-32.133-4.993-48.296-6.279-13.63-1.084-24.218-6.159-31.932-18.188 5.086-7.794 11.199-14.378 21.361-15.525 8.236-.93 16.488-1.728 24.741-2.494 20.79-1.93 41.625-3.47 62.365-5.832 12.814-1.46 25.497-4.093 38.217-6.322 1.863-.326 3.607-1.33 7.29-2.745-24.058-6.64-46.22-12.833-68.428-18.861-17.942-4.87-35.989-9.362-53.888-14.383-7.956-2.232-13.68-7.677-18.552-15.743 7.622-4.646 14.23-8.798 23.94-6.998 16.268 3.015 32.812 4.522 49.213 6.846 20.662 2.928 41.275 6.214 61.955 9.007 12.443 1.68 24.974 2.717 38.512 4.154-1.184-5.96-3.999-9.042-6.881-12.052-16.81-17.552-33.662-35.065-50.457-52.631-14.031-14.676-28.124-29.296-41.943-44.17-5.422-5.836-9.047-12.746-9.557-21.255 8.412-2.039 15.342-1.043 21.947 2.944 27.613 16.672 55.221 33.354 82.914 49.893 8.765 5.235 16.979 11.717 29.312 13.796-1.634-3.4-2.407-6.117-4.016-8.183-17.356-22.277-34.85-44.447-52.294-66.656-7.594-9.668-15.248-19.29-22.698-29.07-3.653-4.794-4.504-8.484-4.285-15.11 7.714-1.77 14.225 1.275 20.258 5.516 18.492 13.002 36.872 26.162 55.303 39.25 6.504 4.62 12.904 9.403 19.6 13.728 3.17 2.047 6.923 3.191 12.838 5.824-1.794-7.41-2.597-12.535-4.274-17.357-11.47-32.975-23.094-65.896-34.724-98.814-13.402-37.934-26.87-75.844-40.29-113.771-2.655-7.5-2.98-14.89 1.341-22.467 6.658 1.17 11.108 4.38 14.705 10.333 33.53 55.496 64.72 112.433 101.662 165.834 4.696 6.79 9.58 13.45 15.433 21.65 2.77-8.194-.882-14.316-1.398-20.418-.89-10.52-3.606-20.873-5.079-31.363-1.084-7.727.219-15.175 5.157-22.285 6.266 3.202 10.854 7.75 13.712 13.881 11.804 25.333 23.368 50.779 35.291 76.055a226 226 0 0 0 12.92 23.625c1.958 3.118 5.674 5.134 9.175 8.156 4.711-7.907 4.423-15.651 5.324-22.978 2.184-17.754 3.908-35.566 5.755-53.36 1.506-14.51 2.897-29.031 4.39-43.542.678-6.595.938-13.297 2.365-19.734 1.623-7.323 5.932-13.248 12.73-17.792 6.675 7.599 9.514 16.586 10.762 26.181 2.777 21.35 5.37 42.724 8.176 64.07.499 3.796 1.668 7.504 3.029 13.437 3.381-12.324 5.978-22.57 9.055-32.67 1.531-5.027 3.249-10.247 6.12-14.555 4.262-6.393 9.593-7.122 15.135-1.903 3.115 2.932 5.766 7.552 6.383 11.742 3.182 21.627 5.403 43.394 8.512 65.033.8 5.566.71 12.07 7.246 16.706 4.783-6.117 9.626-11.89 14.012-17.991 22.308-31.04 44.488-62.173 66.735-93.257 4.976-6.952 11.278-11.87 20.643-13.314 1.628 8.725 1.789 16.741-.282 24.921a52838 52838 0 0 0-41.282 164.211c-.928 3.717-.936 7.663-1.457 12.253 10.302-1.665 16.337-8.11 22.9-13.44 18.307-14.868 36.436-29.953 54.626-44.965 15.374-12.687 31.107-24.974 45.956-38.25 8.246-7.371 17.047-7.819 27.326-6.369 2.585 6.7.207 12.488-3.547 17.573-6.704 9.081-13.762 17.913-20.929 26.64-19.398 23.618-38.952 47.109-58.377 70.706-1.856 2.254-3.238 4.898-5.668 8.635 13.08-2.335 24.697-4.42 36.318-6.48 10.105-1.791 20.188-3.725 30.33-5.273 7.634-1.165 13.067 3.724 19.267 7.49-1.244 9.344-5.337 16.145-13.481 21-28.563 17.028-56.953 34.346-85.346 51.656-4.424 2.698-8.524 5.929-14.526 10.143 3.981.736 5.754 1.222 7.555 1.372 23.792 1.983 47.582 3.986 71.385 5.838 11.583.902 23.197 1.407 34.785 2.27 7.604.566 15.286.926 22.744 2.36 5.803 1.117 11.31 3.758 14.712 9.621-2.425 4.804-6.56 7.014-11.166 7.676-7.867 1.13-15.84 1.516-23.762 2.289-11.54 1.125-23.072 2.335-34.611 3.473-8.25.813-16.498 1.69-24.764 2.32-19.52 1.49-39.054 2.783-58.572 4.296-6.938.538-13.86 1.37-20.753 2.334-1.395.195-2.622 1.59-5.367 3.36 4.295 3.878 7.508 7.645 11.487 10.237 40.41 26.323 80.815 52.657 121.525 78.509 11.75 7.46 16.9 18.945 23.333 31.073-15.861.295-29.637-3.535-43.118-9.505-30.706-13.596-61.564-26.853-92.393-40.173-3.853-1.664-7.903-2.874-11.862-4.295l-1.335 1.782c2.042 2.76 4.037 5.557 6.134 8.274 15.83 20.508 31.749 40.95 47.49 61.527 5.298 6.925 7.305 14.742 4.737 23.928-10.693 1.514-20.242 2.138-29.586-6.278-18.497-16.658-38.151-32.03-57.34-47.92-3.629-3.006-7.356-5.823-13.626-4.178.212 2.363.053 4.932.714 7.269 6.689 23.648 13.574 47.24 20.28 70.882 7.34 25.88 14.686 51.76 21.735 77.72 2.32 8.54.993 17.138-2.088 26.668-8.201-4.676-16.119-9.318-20.928-17.455-8.967-15.175-17.566-30.572-26.112-45.99-8.873-16.007-17.286-32.273-26.379-48.153-2.517-4.396-6.737-7.818-10.974-11.986-.978-.395-1.159-.49-1.34-.587z"/><path fill="#00219a" d="M1761.808 708.784a408 408 0 0 1 32.904-10.548c11.89-3.263 24.015-4.428 36.42-4.452 20.578-.04 41.23-2.463 61.713-1.342 24.763 1.354 49.65.92 74.316 5.134 25.742 4.398 51.858 6.58 77.642 10.764 29.063 4.716 58.039 10.101 86.873 16.064 45.806 9.472 91.08 21.168 135.54 35.761 37.982 12.467 74.62 28.245 109.695 47.435 29.194 15.973 56.447 34.82 82.166 56.039 14.85 12.252 27.315 26.157 36.546 42.924 10.32 18.747 14.472 38.459 7.402 59.39-7.271 21.525-23.892 32.818-44.383 39.477-15.578 5.062-31.519 7.195-48.03 6.793-26.63-.65-53.288.006-79.927-.353-26.243-.354-52.482-1.186-78.715-2.015-9.596-.303-19.19-1.027-28.75-1.935-2.848-.271-5.575-1.818-8.883-3.36 9.819-21.826 20.158-43.073 30.507-64.315 4.522-9.283 8.883-18.65 13.639-27.811 7.315-14.094 8.819-28.366 1.904-43.628-7.674 1.533-14.824 4.473-21.334 9.379-7.306 5.507-10.661 4.336-11.83-4.671-.98-7.542-.313-15.282-.718-22.916-.492-9.265-1.282-18.516-2.102-27.759-.137-1.54-1.087-3.01-1.915-5.177l-22.673 5.04c-7.659-12.046-8.49-25.851-11.945-40.222l-30.172 19.262c-3.536-4.112-4.35-8.903-4.04-13.792.464-7.292 1.642-14.538 2.105-21.83.354-5.566.07-11.173.07-16.903-8.232-.271-14.265 3.046-19.879 8.124a1204 1204 0 0 1-33.152 28.89c-29.764 25.007-54.105 55.13-79.493 84.231-35.918 41.172-71.545 82.601-106.994 124.178-33.07 38.788-66.079 77.64-98.408 117.043-10.724 13.072-19.28 27.926-28.782 41.996-8.013 11.863-15.962 23.77-24.505 36.01-.567.353-.501.405-.501.405.767-4.86.864-9.947 2.414-14.544 8.186-24.27 16.682-48.435 25.176-72.6 11.826-33.649 21.636-67.802 25.752-103.355 1.109-9.575 2.082-19.207 2.336-28.833.79-29.94 1.703-59.893 1.643-89.838-.086-42.273-1.14-84.542-1.474-126.816-.102-12.884-4.179-24.029-12.403-34.834l-27.223 15.956c-6.508-9.166-12.406-17.473-18.532-26.446"/><path fill="#0025e0" d="M2592.801 2027.486c-3.54 24.705-8.104 49.413-12.242 74.192-1.415 8.47-1.88 17.11-2.567 25.69-.766 9.572-1.902 19.17-1.785 28.745.193 15.823 4.175 30.845 12.189 44.627 9.18 15.789 23.539 25.383 40.269 30.883 12.175 4.002 25.097 5.75 37.707 8.404 16.83 3.542 33.897 6.196 50.465 10.695 17.24 4.68 25.536 16.785 25.003 34.98-.546 18.675-4.423 36.804-11.734 54.1-15.741 37.244-36.963 71.282-60.747 103.82-4.308 5.892-8.684 11.736-13.391 18.227a1171 1171 0 0 1-46.766-35.609c-77.728-62.336-156.812-122.803-240.792-176.628-76.103-48.776-154.98-92.523-236.53-131.49-12.598-6.02-25.028-12.393-37.005-19.296 20.414-1.425 40.3-2.157 60.184-2.887.997-.037 1.997-.022 2.992-.086 19.812-1.285 39.625-2.547 59.432-3.883 9.906-.668 19.865-1 29.689-2.316 21.599-2.894 43.162-6.1 64.675-9.58 26.414-4.272 52.776-8.874 79.132-13.49 15.303-2.68 30.48-6.187 45.854-8.298 7.593-1.043 13.237-3.71 17.185-10.125 16.715-2.687 33.41-5.503 50.149-8.03 24.958-3.77 49.946-7.346 74.926-10.976 4.273-.62 8.567-1.096 13.708-1.67"/><path fill="#01229b" d="M2310.205 2989.338c-10.718-1.33-22.06-2.28-32.766-5.407-25.349-7.402-48.632-4.683-71.712 8.666-22.18 12.829-46.378 21.6-71.424 27.26-20.304 4.588-40.814 8.37-61.357 11.76-10.088 1.666-20.452 1.7-30.699 2.356-10.91.7-21.831 1.802-32.74 1.724-9.56-.068-19.114-1.49-28.663-2.394-3.614-.342-7.207-.91-11.655-1.388-4.926-23.142-9.078-46.258-13.067-69.403-5.226-30.32-10.322-60.662-14.752-91.854 10.86-6.526 20.827-12.523 31.164-17.797 31.787-16.22 65.036-28.327 100.178-35.085 5.375-1.034 11.156-2.065 15.728-8.035-2.67-3.46-5.011-7.466-8.246-10.527-19.054-18.027-38.357-35.792-57.498-53.727-23.027-21.575-46.199-43.002-68.893-64.924-19.864-19.189-39.236-38.891-58.656-58.536-7.462-7.548-14.26-15.754-21.725-23.3-5.064-5.122-10.763-9.615-16.178-14.39l-51.976-118.727c6.533 1.123 8.106 5.114 10.356 8.05 13.768 17.972 26.376 36.948 41.293 53.897 22.642 25.727 46.403 50.516 70.478 74.926 86.305 87.508 172.947 174.684 259.451 261.996 41.02 41.404 82.017 82.833 123.359 124.859M1304.375 910.804c13.823-11.05 27.844-21.107 41.435-31.716 30.478-23.791 62.674-44.75 97.432-61.836 43.586-21.428 86.879-43.45 130.392-65.026 9.658-4.788 18.453-10.5 25.72-18.529 7.576-8.372 15.364-16.552 22.957-24.91 6.818-7.504 11.869-8.368 22.73-3.164-26.043 40.977-51.198 82.548-73.842 125.63-53.503 101.798-94.425 208.559-125.224 319.21-14.182 50.95-26.758 102.345-40.1 153.528-.9 3.455-2.111 6.828-4.917 10.22-1.622-10.848-3.562-21.66-4.818-32.55-13.133-113.906-40.019-224.526-78.987-332.29-4.524-12.513-8.529-25.213-12.778-38.567"/><path fill="#0025e0" d="M2536.21 2630.403c-4.312 6.678-9.412 12.786-13.954 19.285-30.966 44.312-61.794 88.719-92.713 133.064-13.847 19.861-27.788 39.657-41.727 59.454-.937 1.33-2.215 2.42-4.027 3.944-9.593-15.637-18.543-31.569-27.384-47.56-21.406-38.723-42.101-77.857-64.304-116.117-28.247-48.672-60.93-94.496-93.205-140.548-19.667-28.063-39.383-56.092-59.014-84.181a43.3 43.3 0 0 1-5.569-10.962c4.05.429 7.657 1.22 10.845 2.837 27.004 13.686 53.936 27.516 80.882 41.317 27.835 14.256 55.61 28.63 83.509 42.76 25.833 13.084 51.962 25.595 77.65 38.955 22.55 11.728 46.43 19.723 70.648 26.889 6.618 1.958 13.528 2.927 20.304 4.35 0 0-.116.086.246.584 1.67.796 2.98 1.094 4.288 1.393 17.665 8.05 35.33 16.1 53.525 24.536"/><path fill="#0126e0" d="M1013.79 1740.337c-14.283-2.863-28.599-5.577-42.845-8.614-51.56-10.991-102.974-22.718-154.687-32.927-34.132-6.737-68.687-11.32-103.042-16.937-7.19-1.175-14.331-2.656-22.75-4.674-8.696-6.4-7.798-13.836-5.53-21.542 9.96-33.835 19.867-67.686 29.917-101.495 4.639-15.604 9.564-31.123 15.009-46.315 10.284 8.468 19.93 16.557 29.55 24.674 22.028 18.582 43.92 37.326 66.095 55.73 29.045 24.107 58.106 48.202 87.54 71.83 26.338 21.145 53.24 41.584 79.782 62.477 7.197 5.665 13.985 11.848 20.961 17.793"/><path fill="#0125e0" d="M1857.418 2585.085c5.241 4.027 10.94 8.52 16.004 13.641 7.465 7.547 14.263 15.753 21.725 23.301 19.42 19.645 38.792 39.347 58.656 58.536 22.694 21.922 45.866 43.349 68.893 64.924 19.141 17.935 38.444 35.7 57.498 53.727 3.235 3.06 5.576 7.066 8.246 10.527-4.572 5.97-10.353 7.001-15.728 8.035-35.142 6.758-68.391 18.865-100.178 35.085-10.337 5.274-20.305 11.271-31.098 17.005-12.738-43.821-25.12-87.63-36.822-131.62-13.256-49.824-28.25-99.087-45.566-147.647-.557-1.563-.974-3.176-1.63-5.514"/><path fill="#02239d" d="M663.742 1960.216c15.258.83 30.54 1.375 45.77 2.565 17.894 1.4 35.737 3.42 53.613 5.062 28.47 2.615 56.947 5.175 85.427 7.691 16.892 1.493 33.808 2.725 50.692 4.306 41.042 3.843 82.071 7.825 123.107 11.741 3.81.364 7.626.66 11.44.987l.524 2.063c-11.738 5.065-23.195 10.954-35.26 15.062-78.87 26.856-155.63 58.74-230.045 96.181-23.776 11.963-46.945 25.127-70.53 37.477-6.412 3.357-13.327 5.75-20.893 7.707-1.311-5.442-1.742-10.007-1.425-14.761 9.868-4.956 19.067-9.581 28.097-14.515 33.823-18.48 67.552-37.13 101.393-55.578 25.971-14.157 52.09-28.046 78.077-42.173 10.974-5.966 21.782-12.238 34.057-19.155-9.177-1.066-16.543-2.335-23.955-2.702-18.562-.92-37.145-1.423-55.719-2.11-17.576-.65-35.15-1.33-52.727-1.979-18.574-.684-37.145-1.524-55.725-1.962-14.31-.337-28.634-.015-42.947-.288-4.986-.095-9.254.742-12.348 4.917-3.702 4.995-8.21 6.34-13.996 2.344-1.332-8.275-2.137-15.776-3.64-23.134-1.67-8.174-.282-14.92 7.013-19.746"/><path fill="#83734e" d="M729.212 1507.467c-4.795 15.558-9.72 31.077-14.359 46.681-10.05 33.809-19.956 67.66-29.917 101.495-2.268 7.706-3.166 15.142 4.723 21.413-8.66-1.145-17.708-3.407-26.894-4.396-12.856-1.385-25.814-1.822-39.63-2.83 3.823-24.183 8.227-48.267 13.345-72.198 8.537-39.91 20.078-79.04 32.86-117.752 8.525-25.819 18.632-51.118 28.214-76.581.984-2.613 3.226-4.752 5.577-7.195 15.812 18.945 30.93 37.974 46.05 58.209-4.365 11.96-8.842 22.672-13.053 33.487-2.52 6.472-4.625 13.106-6.916 19.667m102.149-352.619c7.172-10.356 14.421-20.17 22.02-29.705 21.05-26.412 41.84-53.049 63.53-78.93 14.253-17.007 29.842-32.897 44.926-49.201 4.672-5.05 9.65-9.814 15.14-14.767 1.529 24.035 3.4 47.95 10.342 71.272 1.55 5.21.691 11.136.389 18.02-12.816 16.337-25.08 31.386-37.822 46.934-2.999 3.6-5.541 6.686-8.037 9.808-19.972 24.98-39.936 49.965-59.902 74.949-9.183-8.08-18.593-15.918-27.48-24.31-7.924-7.482-15.27-15.577-23.106-24.07"/><path fill="#02239d" d="M1961.6 1399.333c8.726-3.82 17.606-7.273 26.16-11.4 8.672-4.183 16.922-9.234 25.532-13.556 41.342-20.754 82.642-41.597 124.153-62.008 38.495-18.928 77.23-37.367 115.876-55.987 14.976-7.215 29.953-14.431 45.035-21.42 3.221-1.492 6.898-2 11.183-2.94-5.41 4.932-11.078 10.874-17.947 14.606-132.51 72.003-257.509 155.42-376.888 247.4-19.245 14.829-38.195 30.04-57.282 45.072-5.976 4.706-11.818 9.702-20.23 9.682 3.14-7.557 78.693-98.98 121.382-146.325 1.726-1.355 2.42-2.14 3.115-2.926 0 0-.077-.126-.089-.198"/><path fill="#02229c" d="M1301.553 2803.337c1.737-19.856 3.34-39.725 5.254-59.565 1.435-14.872 3.259-29.708 4.948-44.555.14-1.225.576-2.416 1.027-4.24 4.593 2.775 4.053 7.302 4.791 10.785 3.916 18.463 6.539 37.237 11.204 55.496 7.063 27.648 14.781 55.17 23.393 82.375 18.154 57.347 36.874 114.52 55.82 171.61 4.279 12.894 10.43 25.165 15.029 38.326-12.633-4.135-24.626-8.75-36.501-13.65-10.92-4.506-21.71-9.32-32.647-14.75-3.389-11.87-7.206-22.865-9.883-34.131-6.348-26.716-12.23-53.545-18.16-80.36-5.427-24.544-10.575-49.151-16.038-73.688-2.51-11.27-5.477-22.438-8.237-33.653"/><path fill="#02239c" d="M950.364 1117.973c12.264-15.05 24.528-30.099 37.35-45.52 5.77 19.522 11.278 39.344 16.135 59.325 12.572 51.717 25.743 103.258 43.053 153.64 18.397 53.545 39.733 105.908 63.44 157.314 4.672 10.13 5.508 14.851 4.665 23.767-6.705-4.587-79.537-91.908-110.493-133.985 4.019-10.287 8.43-19.291 11.145-28.78 4.374-15.295 4.315-30.92-1.815-45.809-4.91-11.923-11.214-23.264-16.377-35.092-11.401-26.12-22.318-52.454-33.763-78.555-3.942-8.99-8.865-17.55-13.34-26.305"/><path fill="#0126df" d="M949.886 1118.47c4.953 8.259 9.876 16.818 13.818 25.808 11.445 26.101 22.362 52.434 33.763 78.555 5.163 11.828 11.467 23.17 16.377 35.092 6.13 14.889 6.189 30.514 1.815 45.809-2.715 9.489-7.126 18.493-11.37 28.144-14.871-13.967-29.202-28.31-43.406-42.78-7.69-7.833-15.147-15.892-22.734-23.825-16.559-17.312-33.187-34.558-49.645-51.965-2.461-2.603-4.156-5.932-6.381-9.503 19.79-25.561 39.754-50.547 59.726-75.526 2.496-3.122 5.038-6.207 8.037-9.808"/><path fill="#02239d" d="M2265.208 1575.75c-7.148 8.08-15.016 16.124-22.976 24.076-1.868 1.866-4.213 3.258-6.05 5.149-21.592 22.215-46.01 41.119-70.479 59.926-29.972 23.036-60.109 45.86-90.33 68.568-30.755 23.108-61.7 45.964-92.908 69.458-36.772 7.222-73.321 13.129-109.688 19.215-1.91-6.124 2.114-7.136 4.659-8.751 17.703-11.239 35.446-22.415 53.278-33.448 105.303-65.152 210.62-130.283 315.996-195.317 5.616-3.466 11.816-5.986 18.498-8.876"/><path fill="#02229c" d="M729.862 1507.833c1.64-6.927 3.745-13.561 6.266-20.033 4.211-10.815 8.688-21.526 13.366-32.895 4.672 2.893 9.718 5.815 13.286 9.997 54.064 63.356 110.782 124.23 171.23 181.519 28.733 27.23 58.767 53.09 88.254 79.522 5.617 5.035 11.209 10.042 16.897 18.667-8.788-1.094-15.175-1.89-22.631-3.296-1.557-1.025-2.119-1.21-2.756-1.17 0 0 .09.088.053.14-7.013-5.892-13.801-12.075-20.998-17.74-26.541-20.893-53.444-41.332-79.783-62.476-29.433-23.629-58.494-47.724-87.54-71.831-22.174-18.404-44.066-37.148-66.093-55.73-9.622-8.117-19.267-16.206-29.551-24.674m1723.263 540.225c-3.055 6.517-8.699 9.185-16.292 10.228-15.374 2.111-30.551 5.618-45.854 8.298-26.356 4.616-52.718 9.218-79.132 13.49a2407 2407 0 0 1-64.675 9.58c-9.824 1.316-19.783 1.648-29.689 2.316-19.807 1.336-39.62 2.598-59.432 3.883-.995.064-1.995.05-2.992.086-19.885.73-39.77 1.462-60.606 2.337-26.622-9.959-52.296-20.05-77.96-30.166a1973 1973 0 0 1-22.224-8.898c-2.845-1.16-5.794-2.414-3.364-7.522 4.11.193 8.703.181 13.246.655 50.972 5.31 102.08 8.204 153.324 8.172 41.224-.026 82.468.132 123.667-1.053 34.877-1.004 69.717-3.597 104.546-5.906 22.207-1.473 44.363-3.71 67.437-5.5"/><path fill="#82734f" d="M662.838 1960.115c-6.391 4.926-7.78 11.673-6.11 19.847 1.504 7.358 2.31 14.859 3.613 23.961 4.005 35.864 7.799 70.066 11.645 104.261 1.062 9.443 2.282 18.868 3.43 28.301.43 4.566.86 9.131 1.457 14.548-13.042 9.494-26.25 18.136-40.146 26.87-4.304-18.403-8.204-36.85-11.458-55.411-3.424-19.527-6.358-39.144-9.265-58.757-2.083-14.053-3.874-28.153-5.592-42.256a399 399 0 0 1-2.194-23.72c-.855-13.888-1.438-27.793-2.083-42.586 18.488 2.44 36.83 6.68 56.703 4.942"/><path fill="#03259f" d="M1583.872 2789.97c-7.263-25.923-14.551-51.838-21.779-77.771-3.206-11.504-6.292-23.043-9.575-35.091l5.891-2.742c1.12 2.098 2.174 3.717 2.894 5.474 18.936 46.216 37.717 92.497 56.771 138.664 36.459 88.335 73.105 176.593 109.547 264.935 2.779 6.736 4.553 13.887 5.985 21.683-12.59 2.305-19.71-3.544-23.955-13.907-.503-1.23-1.028-2.45-1.52-3.683-6.026-15.111-11.988-30.249-18.082-45.332-15.425-38.172-30.728-76.394-46.42-114.455-15.567-37.76-31.448-75.393-47.428-112.98-3.606-8.48-8.193-16.54-12.33-24.795"/><path fill="#03249e" d="M2477.924 2603.232c-6.549-.765-13.46-1.734-20.077-3.692-24.219-7.166-48.098-15.161-70.648-26.89-25.688-13.36-51.817-25.87-77.65-38.954-27.9-14.13-55.674-28.504-83.51-42.76-26.945-13.8-53.877-27.63-80.88-41.317-3.19-1.617-6.796-2.408-11.029-3.535-22.008-22.925-43.197-45.898-64.085-68.544 1.1-4.488 2.813-6.293 6.53-3.941 2.25 1.423 4.47 2.894 6.683 4.375 88.602 59.28 180.052 113.793 274.482 163.252 35.962 18.836 72.421 36.722 108.633 55.081 3.846 1.95 7.553 4.172 11.551 6.925"/><path fill="#02239c" d="M1642.584 3130.016c-3.39-24.975-6.385-50.013-10.282-74.91-3.743-23.913-8.618-47.648-12.64-71.52-5.4-32.049-10.48-64.151-15.64-96.24-.948-5.892-1.62-11.83-1.815-18.251 4.55 8.972 8.851 18.318 12.38 27.948 18.976 51.768 37.775 103.6 56.602 155.422a18534 18534 0 0 1 25.718 71.225c1.895 5.283 3.48 10.675 4.4 16.137-3.367-.377-6.038-.556-8.464-1.42-16.264-5.799-33.394-6.278-50.259-8.39"/><path fill="#0126dd" d="M1702.114 3139.708c-1.727-5.343-3.312-10.735-5.207-16.018a18534 18534 0 0 0-25.718-71.225c-18.827-51.822-37.626-103.654-56.601-155.422-3.53-9.63-7.832-18.976-12.405-28.84-6.535-25.785-12.442-51.182-18.33-77.406 4.155 7.427 8.742 15.489 12.348 23.968 15.98 37.587 31.86 75.22 47.428 112.98 15.692 38.061 30.995 76.283 46.42 114.455 6.094 15.083 12.056 30.22 18.082 45.332.492 1.234 1.017 2.454 1.52 3.683 4.245 10.363 11.364 16.212 24.028 14.702 7.327 15.125 13.8 30.282 20.158 45.488.468 1.12.103 2.588-1.002 4.325-17.658-5.053-34.19-10.538-50.72-16.022"/><path fill="#82734f" d="M1353.96 3025.92c10.848 4.678 21.639 9.493 32.558 13.999 11.875 4.9 23.868 9.515 36.546 14.394 11.734 17.318 20.532 35.634 28.84 54.96-18.437-6.564-37.302-13.06-55.372-21.299-32.334-14.743-64.278-30.355-96.2-45.982-12.503-6.12-24.51-13.257-37.433-20.06 1.572-11.093 3.834-22.057 7.29-33.423 15.988 6.487 30.75 13.443 45.584 20.243 12.687 5.815 25.455 11.452 38.187 17.167"/><path fill="#0227de" d="M1353.87 3025.168c-12.642-4.964-25.41-10.6-38.097-16.416-14.834-6.8-29.596-13.756-45.097-20.84 1.899-14.225 4.506-28.254 7.84-42.577 4.018 8.783 7.498 17.694 18.137 20.36 6.707-6.055 8.982-9.398 9.197-16.112.517-16.187.614-32.381-2.416-48.413-3.239-17.132-6.388-34.281-9.576-51.423 2.267-15.019 4.534-30.038 7.248-45.733a450 450 0 0 1 8.684 32.976c5.463 24.537 10.611 49.144 16.039 73.689 5.93 26.814 11.81 53.643 18.159 80.359 2.677 11.266 6.494 22.261 9.883 34.13"/><path fill="#82734f" d="M1701.306 3139.827c17.34 5.365 33.87 10.85 51.032 16.597 5.644 10.192 10.658 20.122 15.72 30.795-39.178-5.872-78.402-12.489-117.63-19.088-1.3-.219-2.632-.253-4.705-.499-1.6-12.069-2.445-24.013-3.214-36.786 16.94 1.283 34.07 1.762 50.334 7.56 2.426.865 5.097 1.044 8.463 1.42"/><path fill="#0529df" d="M1026.287 2635.967c-3.076 16.59-5.972 33.217-9.273 49.762-4.793 24.025-9.785 48.013-14.906 71.97-1.239 5.797-3.317 11.414-6.035 17.28-12.774-12.858-24.522-25.883-35.654-39.2 4.972-4.851 10.152-8.873 13.528-14.07 9.76-15.025 18.8-30.52 28.112-45.836 8.083-13.298 16.153-26.604 24.228-39.906"/><path fill="#827350" d="M959.804 2736.072c11.747 13.024 23.495 26.05 35.796 39.433-3.05 11.45-3.881 22.906-4.048 35.364-5.031 1.987-7.313-1.847-9.975-4.616-11.738-12.21-23.333-24.56-35.01-36.828-4.297-4.515-8.679-8.948-13.7-13.483 5.35-9.328 11.375-18.591 18.246-27.679 3.46 2.72 6.075 5.265 8.69 7.809"/><path fill="#0626a2" d="M960.42 2735.779c-3.232-2.251-5.847-4.796-8.824-7.987 3.094-6.67 6.214-12.914 10.06-18.674 20.872-31.254 41.887-62.413 62.96-93.533 2.593-3.83 5.79-7.257 8.794-10.798.327-.385 1.228-.281 3.035-.631-3.21 10.577-6.258 20.624-9.732 31.241-8.501 13.872-16.57 27.178-24.654 40.476-9.312 15.317-18.352 30.811-28.112 45.837-3.376 5.196-8.556 9.218-13.528 14.069"/><path fill="#0224a0" d="M1293.38 2850.377c3.666 16.512 6.815 33.661 10.054 50.793 3.03 16.032 2.933 32.226 2.416 48.413-.215 6.714-2.49 10.057-9.197 16.112-10.64-2.666-14.119-11.577-17.896-21.11a867 867 0 0 1 5.76-43.641c2.63-16.672 5.576-33.293 8.863-50.567"/><path fill="#062adf" d="M826.195 2450.127c-8.284 16-19.475 29.764-33.413 41.728-7.02-12.373-13.069-24.313-19.119-36.253 5.633-4.55 11.029-9.441 16.96-13.562 7.067-4.91 14.594-9.158 22.864-13.306 4.864 7.389 8.786 14.391 12.708 21.393"/><path fill="#827351" d="M772.997 2455.805c6.716 11.737 12.766 23.677 19.162 36.333-6.73 10.915-13.808 21.115-21.433 31.724-9.35-15.99-18.155-32.387-27.231-49.509 9.43-6.598 19.133-12.471 29.502-18.548"/><path fill="#0829a3" d="M826.765 2449.798c-4.492-6.673-8.414-13.675-12.64-21.312 11.123-8.532 22.526-16.465 33.989-24.313 7.114-4.87 14.28-9.666 21.502-14.375 2.087-1.361 4.446-2.307 6.465-3.332 3.544 3.449.932 5.348-.683 7.246a9139 9139 0 0 1-32.982 38.555 653 653 0 0 1-15.65 17.53"/><path fill="#03249e" d="M2482.247 2605.348c-.87.22-2.18-.078-3.86-.946.892-.237 2.157.095 3.86.946"/><path fill="#0025e0" d="M1961.117 1399.51c-.122.807-.817 1.592-2.072 2.45.126-.777.813-1.624 2.072-2.45"/><path fill="#0626a2" d="M1037.138 2600.993c.1.209-.348.307-.348.307s.248-.515.348-.307"/><path fill="#00219a" d="M1764.032 1190.008c-.02-.034-.627.757-.627.757s.188-.61.45-.64c.264-.031.198-.083.177-.117"/><path fill="#5b73e0" d="M2398.333 1791.822c.042-.271.695-.439 1.597-.316-.163.333-.574.376-1.597.316"/><path fill="#2b4ae3" d="M2180.401 1789.532c.08-.412.655-.749 1.733-.957-.076.43-.657.732-1.733.957"/><path fill="#0126e0" d="M1013.968 1740.595c.443-.492 1.005-.306 1.776.459.284.351-.696.415-.696.415s-.886-.423-1.08-.874"/><path fill="#02239d" d="M2267.55 1574.227c.266.56-.17 1.05-1.234 1.563-.082-.386.305-.939 1.234-1.563"/><path fill="#00219a" d="M2591.27 1088.825c-6.8-7.777-13.163-15.008-19.617-22.155-12.567-13.916-13.262-30.61-10.883-47.821.971-7.029 5.819-11.871 11.943-15.1 7.949-4.192 16.05-8.097 24.136-12.021 1.437-.698 3.705-1.769 4.6-1.175 8.914 5.918 19.754 3.848 29.34 7.66 29.474 11.718 58.2 24.863 82.825 45.048 24.173 19.816 42.142 44.015 47.95 75.917 3.894 21.378-9.088 40.767-30.585 45.017-8.187 1.619-15.742.494-23.273-2.039-32.387-10.894-62.523-26.048-88.793-48.174-9.349-7.874-18.179-16.364-27.642-25.157"/><path fill="#8397fe" d="M1539.912 2143.712c-.151 0-.39-.287-.63-.575.18.096.36.192.63.575"/><path fill="#0025df" d="M676.162 2136.297c-1.894-9.245-3.114-18.67-4.176-28.113-3.846-34.195-7.64-68.397-11.426-103.423 5.594 2.33 10.103.986 13.805-4.01 3.094-4.174 7.362-5.01 12.348-4.916 14.313.273 28.637-.05 42.947.288 18.58.438 37.15 1.278 55.725 1.962 17.576.648 35.151 1.329 52.727 1.979 18.574.687 37.157 1.19 55.72 2.11 7.41.367 14.777 1.636 23.954 2.702-12.275 6.917-23.083 13.189-34.057 19.155-25.988 14.127-52.106 28.016-78.077 42.173-33.84 18.447-67.57 37.099-101.393 55.578-9.03 4.934-18.23 9.56-28.097 14.515"/></svg>