<svg xmlns="http://www.w3.org/2000/svg" xml:space="preserve" style="fill-rule:evenodd;clip-rule:evenodd;stroke-linejoin:round;stroke-miterlimit:2" viewBox="0 0 441 441"><path d="M38.438 303.914c-11.827-25.523-18.428-53.953-18.428-83.913 0-7.754.44-15.405 1.302-22.93a201 201 0 0 1 3.857-22.362c9.493-40.94 31.574-77.078 61.936-104.11 25.502-22.675 56.744-38.853 90.991-46.186a200.4 200.4 0 0 1 57.123-3.818c24.204 1.849 47.076 7.942 67.944 17.495a200.3 200.3 0 0 1 46.349 29.559c35.003 29.818 59.416 71.356 67.534 117.967a201 201 0 0 1 2.95 34.385 203 203 0 0 1-.589 15.239c-1.474 19.32-5.654 37.79-12.139 55.07-9.05 24.068-22.611 45.934-39.65 64.57-22.161 22.628-50.323 32.696-73.844 32.277-17.104-.305-33.839-7.11-45.403-17.067-16.52-14.226-23.193-30.487-25.48-48.632-.568-4.51-.234-16.802 2.113-25.312 1.75-6.343 6.187-18.594 12.677-23.953-7.592-3.27-17.362-10.39-20.442-13.807-.757-.84-.66-2.155.018-3.06a2.575 2.575 0 0 1 2.932-.88c6.527 2.24 14.475 4.45 22.856 5.852 11.023 1.842 24.731 4.164 38.618 4.846 33.86 1.663 69.227-13.536 80.204-43.774s6.719-60.147-32.661-78.088-57.57-39.271-89.387-52.137c-20.782-8.405-43.913-3.416-67.661 9.709-63.966 35.349-121.274 147.037-94.856 250.515a3.184 3.184 0 0 1-5.226 3.17 201 201 0 0 1-20.83-27.227 200 200 0 0 1-12.808-23.398"/><path d="M3053.7 5296.9c1317.95 0 2387.96 1070.01 2387.96 2387.96S4371.65 10072.8 3053.7 10072.8 665.74 9002.81 665.74 7684.86 1735.75 5296.9 3053.7 5296.9m691.33 2846.32c-150.91-.4-300.72-18.65-421.16-33.07-91.58-10.97-178.88-30.92-250.77-51.92a27.965 27.965 0 0 0-31.35 11.01c-6.89 10.16-7.29 24.47 1.34 33.2 35.12 35.5 144.65 107.77 228.61 139.39-67.66 61.37-109.6 196.45-125.37 266.11-21.16 93.46-18.58 226.89-10.14 275.51 33.95 195.59 114.5 368.54 300.8 514.45 130.41 102.13 315.29 167.48 500.89 162.16 256.13-7.35 557.6-131.55 786.77-389.89 298.6-359.59 483.87-817.72 498.82-1320.67 35.61-1197.6-907.77-2198.81-2105.37-2234.42-1197.59-35.61-2198.799 907.78-2234.411 2105.37-18.443 620.21 225.681 1187.76 631.741 1595.75 11.3 11.19 28.78 13.23 42.35 4.94s19.73-24.78 14.92-39.94c-338.63-1108.65 226.41-2348.56 902.14-2764.1 250.87-154.28 499.15-220.04 728.72-139.4 351.48 123.45 559.47 345.56 995.5 520.23 436.03 174.66 497.29 496.81 393.52 830.21s-479.58 516.03-847.55 515.08m-827.86-1700.71c-139.42 17.46-223.24 194.93-230.09 306.91-6.9 111.97 56.95 293.28 239.11 281.21 213.33-14.14 269.7-199.93 238.05-375.69-23.76-132-130.51-227.04-247.07-212.43" style="fill:#fff" transform="rotate(2.679 10746.654 -858.107)scale(.09213)"/><path d="M212.847 105.026c10.79-.846 20.202 8.363 21.825 20.61 2.164 16.313-3.822 33.165-23.511 33.553-16.819.335-21.915-16.625-20.8-26.9 1.107-10.275 9.577-26.25 22.486-27.263"/></svg>