<svg xmlns="http://www.w3.org/2000/svg" width="256" height="256"><defs><radialGradient id="b" cx="161.8" cy="68.9" r="95.4" gradientTransform="matrix(1 0 0 -.95 0 249)" gradientUnits="userSpaceOnUse"><stop offset=".7" stop-opacity="0"/><stop offset=".9" stop-opacity=".5"/><stop offset="1"/></radialGradient><radialGradient id="d" cx="-340.3" cy="63" r="143.2" gradientTransform="matrix(.15 -.99 -.8 -.12 177 -125)" gradientUnits="userSpaceOnUse"><stop offset=".8" stop-opacity="0"/><stop offset=".9" stop-opacity=".5"/><stop offset="1"/></radialGradient><radialGradient id="e" cx="113.4" cy="570.2" r="202.4" gradientTransform="matrix(-.04 1 2.13 .08 -1180 -107)" gradientUnits="userSpaceOnUse"><stop offset="0" stop-color="#35c1f1"/><stop offset=".1" stop-color="#34c1ed"/><stop offset=".2" stop-color="#2fc2df"/><stop offset=".3" stop-color="#2bc3d2"/><stop offset=".7" stop-color="#36c752"/></radialGradient><radialGradient id="f" cx="376.5" cy="568" r="97.3" gradientTransform="matrix(.28 .96 .78 -.23 -304 -148)" gradientUnits="userSpaceOnUse"><stop offset="0" stop-color="#66eb6e"/><stop offset="1" stop-color="#66eb6e" stop-opacity="0"/></radialGradient><linearGradient id="a" x1="63.3" y1="84" x2="241.7" y2="84" gradientTransform="matrix(1 0 0 -1 0 266)" gradientUnits="userSpaceOnUse"><stop offset="0" stop-color="#0c59a4"/><stop offset="1" stop-color="#114a8b"/></linearGradient><linearGradient id="c" x1="157.3" y1="161.4" x2="46" y2="40.1" gradientTransform="matrix(1 0 0 -1 0 266)" gradientUnits="userSpaceOnUse"><stop offset="0" stop-color="#1b9de2"/><stop offset=".2" stop-color="#1595df"/><stop offset=".7" stop-color="#0680d7"/><stop offset="1" stop-color="#0078d4"/></linearGradient></defs><path d="M236 195a94 94 0 01-11 5 102 102 0 01-36 7c-47 0-88-33-88-75a31 31 0 0116-27c-43 2-54 46-54 73 0 73 68 81 83 81 8 0 20-2 27-5h1a128 128 0 0067-53 4 4 0 00-5-6z" transform="translate(-5 -5)" fill="url(#a)"/><path d="M236 195a94 94 0 01-11 5 102 102 0 01-36 7c-47 0-88-33-88-75a31 31 0 0116-27c-43 2-54 46-54 73 0 73 68 81 83 81 8 0 20-2 27-5h1a128 128 0 0067-53 4 4 0 00-5-6z" transform="translate(-5 -5)" style="isolation:isolate" opacity=".3" fill="url(#b)"/><path d="M110 246a79 79 0 01-22-21 81 81 0 0129-120c3-1 9-4 16-4a32 32 0 0125 13 32 32 0 017 19c0-1 24-80-80-80-44 0-80 42-80 78a130 130 0 0012 56 128 128 0 00156 67 76 76 0 01-63-8z" transform="translate(-5 -5)" fill="url(#c)"/><path d="M110 246a79 79 0 01-22-21 81 81 0 0129-120c3-1 9-4 16-4a32 32 0 0125 13 32 32 0 017 19c0-1 24-80-80-80-44 0-80 42-80 78a130 130 0 0012 56 128 128 0 00156 67 76 76 0 01-63-8z" transform="translate(-5 -5)" style="isolation:isolate" opacity=".4" fill="url(#d)"/><path d="M157 154c-1 1-3 2-3 5s1 6 4 8c15 10 42 8 42 8a60 60 0 0030-8 61 61 0 0031-53c0-22-8-37-12-44-21-41-67-65-116-65A128 128 0 005 131c0-36 36-66 80-66 3 0 23 0 42 10 16 9 25 19 30 29 7 11 8 25 8 30s-3 13-8 20z" transform="translate(-5 -5)" fill="url(#e)"/><path d="M157 154c-1 1-3 2-3 5s1 6 4 8c15 10 42 8 42 8a60 60 0 0030-8 61 61 0 0031-53c0-22-8-37-12-44-21-41-67-65-116-65A128 128 0 005 131c0-36 36-66 80-66 3 0 23 0 42 10 16 9 25 19 30 29 7 11 8 25 8 30s-3 13-8 20z" transform="translate(-5 -5)" fill="url(#f)"/></svg>