<svg xmlns="http://www.w3.org/2000/svg" viewBox="0 0 512 512"><defs><radialGradient id="b" cx="428.5" cy="55.1" r="501" gradientUnits="userSpaceOnUse"><stop offset=".1" stop-color="#ffbd4f"/><stop offset=".2" stop-color="#ffac31"/><stop offset=".3" stop-color="#ff9d17"/><stop offset=".3" stop-color="#ff980e"/><stop offset=".4" stop-color="#ff563b"/><stop offset=".5" stop-color="#ff3750"/><stop offset=".7" stop-color="#f5156c"/><stop offset=".8" stop-color="#eb0878"/><stop offset=".9" stop-color="#e50080"/></radialGradient><radialGradient id="c" cx="245.4" cy="259.9" r="501" gradientUnits="userSpaceOnUse"><stop offset=".3" stop-color="#960e18"/><stop offset=".3" stop-color="#b11927" stop-opacity=".7"/><stop offset=".4" stop-color="#db293d" stop-opacity=".3"/><stop offset=".5" stop-color="#f5334b" stop-opacity=".1"/><stop offset=".5" stop-color="#ff3750" stop-opacity="0"/></radialGradient><radialGradient id="d" cx="305.8" cy="-58.6" r="363" gradientUnits="userSpaceOnUse"><stop offset=".1" stop-color="#fff44f"/><stop offset=".3" stop-color="#ffdc3e"/><stop offset=".5" stop-color="#ff9d12"/><stop offset=".5" stop-color="#ff980e"/></radialGradient><radialGradient id="e" cx="190" cy="390.8" r="238.6" gradientUnits="userSpaceOnUse"><stop offset=".3" stop-color="#3a8ee6"/><stop offset=".5" stop-color="#5c79f0"/><stop offset=".7" stop-color="#9059ff"/><stop offset="1" stop-color="#c139e6"/></radialGradient><radialGradient id="f" cx="252.2" cy="201.3" r="126.5" gradientTransform="matrix(.97 -.24 .28 1.14 -48.4 31.4)" gradientUnits="userSpaceOnUse"><stop offset=".2" stop-color="#9059ff" stop-opacity="0"/><stop offset=".3" stop-color="#8c4ff3" stop-opacity=".1"/><stop offset=".8" stop-color="#7716a8" stop-opacity=".5"/><stop offset="1" stop-color="#6e008b" stop-opacity=".6"/></radialGradient><radialGradient id="g" cx="239.1" cy="34.6" r="171.6" gradientUnits="userSpaceOnUse"><stop offset="0" stop-color="#ffe226"/><stop offset=".1" stop-color="#ffdb27"/><stop offset=".3" stop-color="#ffc82a"/><stop offset=".5" stop-color="#ffa930"/><stop offset=".7" stop-color="#ff7e37"/><stop offset=".8" stop-color="#ff7139"/></radialGradient><radialGradient id="h" cx="374" cy="-74.3" r="732.2" gradientUnits="userSpaceOnUse"><stop offset=".1" stop-color="#fff44f"/><stop offset=".5" stop-color="#ff980e"/><stop offset=".6" stop-color="#ff5634"/><stop offset=".7" stop-color="#ff3647"/><stop offset=".9" stop-color="#e31587"/></radialGradient><radialGradient id="i" cx="304.6" cy="7.1" r="536.4" gradientTransform="matrix(.1 .99 -.65 .07 277.3 -296.3)" gradientUnits="userSpaceOnUse"><stop offset="0" stop-color="#fff44f"/><stop offset=".1" stop-color="#ffe847"/><stop offset=".2" stop-color="#ffc830"/><stop offset=".3" stop-color="#ff980e"/><stop offset=".4" stop-color="#ff8b16"/><stop offset=".5" stop-color="#ff672a"/><stop offset=".6" stop-color="#ff3647"/><stop offset=".7" stop-color="#e31587"/></radialGradient><radialGradient id="j" cx="235" cy="98.1" r="457.1" gradientUnits="userSpaceOnUse"><stop offset=".1" stop-color="#fff44f"/><stop offset=".5" stop-color="#ff980e"/><stop offset=".6" stop-color="#ff5634"/><stop offset=".7" stop-color="#ff3647"/><stop offset=".9" stop-color="#e31587"/></radialGradient><radialGradient id="k" cx="355.7" cy="124.9" r="500.3" gradientUnits="userSpaceOnUse"><stop offset=".1" stop-color="#fff44f"/><stop offset=".2" stop-color="#ffe141"/><stop offset=".5" stop-color="#ffaf1e"/><stop offset=".6" stop-color="#ff980e"/></radialGradient><linearGradient id="a" x1="446.9" x2="47.9" y1="76.8" y2="461.8" gradientUnits="userSpaceOnUse"><stop offset=".1" stop-color="#fff44f"/><stop offset=".1" stop-color="#ffe847"/><stop offset=".2" stop-color="#ffc830"/><stop offset=".4" stop-color="#ff980e"/><stop offset=".4" stop-color="#ff8b16"/><stop offset=".5" stop-color="#ff672a"/><stop offset=".5" stop-color="#ff3647"/><stop offset=".7" stop-color="#e31587"/></linearGradient><linearGradient id="l" x1="442.1" x2="102.6" y1="74.8" y2="414.3" gradientUnits="userSpaceOnUse"><stop offset=".2" stop-color="#fff44f" stop-opacity=".8"/><stop offset=".3" stop-color="#fff44f" stop-opacity=".6"/><stop offset=".5" stop-color="#fff44f" stop-opacity=".2"/><stop offset=".6" stop-color="#fff44f" stop-opacity="0"/></linearGradient></defs><path fill="url(#a)" d="M478.7 166.4c-10.4-25.2-31.6-52.3-48.2-60.9a249.4 249.4 0 0 1 24.4 73.4C427.7 111 381.6 83.9 344 24.4a255 255 0 0 1-8.3-14.3A43.7 43.7 0 0 1 332 .7a.6.6 0 0 0-.5-.7.9.9 0 0 0-.5 0 .5.5 0 0 0-.1.1h-.2.1c-60.3 35.3-80.8 100.7-82.7 133.5A120.3 120.3 0 0 0 182 159a71 71 0 0 0-6.2-4.7 111.4 111.4 0 0 1-.7-58.8 177.9 177.9 0 0 0-57.8 44.7h-.1c-9.6-12-9-51.9-8.4-60.2 0-.5-7 3.7-8 4.3a174.7 174.7 0 0 0-23.5 20.1 210 210 0 0 0-22.4 27 202.9 202.9 0 0 0-32.2 72.7l-.4 1.6-2.3 15v.6a229 229 0 0 0-4 33.1v1.3a240.3 240.3 0 0 0 477.2 40.6l1.1-9.3a247 247 0 0 0-15.6-120.7zm-277 188.1 3.3 1.6.2.1zM455 179v-.2z"/><path fill="url(#b)" d="M478.7 166.4c-10.4-25.2-31.6-52.3-48.2-60.9a249.4 249.4 0 0 1 24.3 73v.5c22.7 61.5 10.3 124-7.5 162.2-27.5 59-94.2 119.7-198.5 116.7C136 454.7 36.8 371 18.2 261.5c-3.4-17.3 0-26.1 1.7-40.1-2 10.8-2.8 13.9-3.9 33.1v1.3a240.3 240.3 0 0 0 477.2 40.6l1.1-9.3c4.8-41.2-.5-84.5-15.6-120.7"/><path fill="url(#c)" d="M478.7 166.4c-10.4-25.2-31.6-52.3-48.2-60.9a249.4 249.4 0 0 1 24.3 73v.5c22.7 61.5 10.3 124-7.5 162.2-27.5 59-94.2 119.7-198.5 116.7C136 454.7 36.8 371 18.2 261.5c-3.4-17.3 0-26.1 1.7-40.1-2 10.8-2.8 13.9-3.9 33.1v1.3a240.3 240.3 0 0 0 477.2 40.6l1.1-9.3c4.8-41.2-.5-84.5-15.6-120.7"/><path fill="url(#d)" d="m362 194.6 1.4 1.1a130.5 130.5 0 0 0-22.3-29C266.4 91.8 321.5 4.6 330.8.1l.1-.1c-60.4 35.3-80.8 100.7-82.7 133.5 2.8-.2 5.6-.5 8.4-.5 45 0 84.3 24.8 105.3 61.5z"/><path fill="url(#e)" d="M256.8 209.5c-.4 6-21.5 26.6-29 26.6-68.3 0-79.4 41.4-79.4 41.4 3 34.8 27.3 63.5 56.6 78.6l4 2 7.1 2.9a106.9 106.9 0 0 0 31.3 6c119.8 5.6 143-143.3 56.5-186.5a83 83 0 0 1 58 14 121.3 121.3 0 0 0-105.3-61.4c-2.9 0-5.7.2-8.5.4a120.3 120.3 0 0 0-66.1 25.6c3.7 3 7.8 7.2 16.5 15.8 16.4 16.1 58.2 32.7 58.3 34.6"/><path fill="url(#f)" d="M256.8 209.5c-.4 6-21.5 26.6-29 26.6-68.3 0-79.4 41.4-79.4 41.4 3 34.8 27.3 63.5 56.6 78.6l4 2 7.1 2.9a106.9 106.9 0 0 0 31.3 6c119.8 5.6 143-143.3 56.5-186.5a83 83 0 0 1 58 14 121.3 121.3 0 0 0-105.3-61.4c-2.9 0-5.7.2-8.5.4a120.3 120.3 0 0 0-66.1 25.6c3.7 3 7.8 7.2 16.5 15.8 16.4 16.1 58.2 32.7 58.3 34.6"/><path fill="url(#g)" d="m170.8 151 5 3.4a111.4 111.4 0 0 1-.6-58.8 177.9 177.9 0 0 0-57.9 44.7c1.1 0 36-.6 53.5 10.8z"/><path fill="url(#h)" d="M18.2 261.4C36.8 371 136.1 454.8 249 458c104.3 3 171-57.6 198.5-116.7C465.2 303 477.6 240.5 455 179v-.5.4c8.6 55.7-19.7 109.6-64 146a7 7 0 0 0-.1.4c-86.3 70.2-168.8 42.4-185.5 31l-3.5-1.7c-50.3-24-71-69.9-66.6-109.2-42.5 0-57-35.8-57-35.8s38.2-27.2 88.4-3.5a119.6 119.6 0 0 0 90.3 3.5c-.1-2-42-18.6-58.3-34.7-8.7-8.5-12.8-12.7-16.5-15.8a71 71 0 0 0-6.2-4.7l-5-3.3c-17.5-11.4-52.4-10.7-53.5-10.7h-.2c-9.5-12-8.8-51.9-8.3-60.2 0-.5-7 3.6-8 4.3a174.7 174.7 0 0 0-23.5 20 210 210 0 0 0-22.4 27 202.9 202.9 0 0 0-32.3 72.8c-.1.5-8.7 37.8-4.5 57.2z"/><path fill="url(#i)" d="M341.1 166.6a130.5 130.5 0 0 1 22.3 29.1 46 46 0 0 1 3.6 3C421.5 249 393 320 390.8 325c44.3-36.5 72.6-90.4 64-146-27-67.8-73.2-95.2-110.8-154.6a255 255 0 0 1-8.3-14.2A43.7 43.7 0 0 1 332 .7a.6.6 0 0 0-.5-.7.9.9 0 0 0-.5 0 .5.5 0 0 0-.1.1h-.2c-9.3 4.5-64.4 91.8 10.3 166.5z"/><path fill="url(#j)" d="M367 198.7a46 46 0 0 0-3.6-3l-1.5-1.1a83 83 0 0 0-58-14.1c86.5 43.2 63.3 192-56.5 186.4a106.9 106.9 0 0 1-31.3-6 131 131 0 0 1-11-4.8l.1.1c16.7 11.4 99.3 39.3 185.5-31l.2-.3c2.1-5 30.6-76-23.9-126.2"/><path fill="url(#k)" d="M148.4 277.5S159.5 236 228 236c7.4 0 28.5-20.6 28.9-26.6S213 228 166.5 206c-50.2-23.6-88.3 3.5-88.3 3.5s14.5 35.9 57 35.9c-4.5 39.3 16.2 85 66.5 109.1l3.3 1.6c-29.3-15.1-53.5-43.8-56.6-78.6"/><path fill="url(#l)" d="M478.7 166.4c-10.4-25.2-31.6-52.3-48.2-60.9a249.4 249.4 0 0 1 24.4 73.4C427.7 111 381.6 83.9 344 24.4a255 255 0 0 1-8.3-14.3A43.7 43.7 0 0 1 332 .7a.6.6 0 0 0-.5-.7.9.9 0 0 0-.5 0 .5.5 0 0 0-.1.1h-.2.1c-60.3 35.3-80.8 100.7-82.7 133.5 2.8-.2 5.6-.5 8.4-.5 45 0 84.3 24.8 105.3 61.5a83 83 0 0 0-58-14c86.5 43.2 63.3 192-56.5 186.4a106.9 106.9 0 0 1-31.2-6 131 131 0 0 1-11-4.8c-1-.5-2.3-1-3.4-1.7l3.3 1.7c-29.4-15.2-53.6-43.9-56.7-78.7 0 0 11.1-41.4 79.5-41.4 7.4 0 28.5-20.6 28.9-26.6-.1-2-42-18.5-58.3-34.6-8.7-8.6-12.8-12.7-16.5-15.8a71 71 0 0 0-6.2-4.7 111.4 111.4 0 0 1-.7-58.8 177.9 177.9 0 0 0-57.8 44.7h-.1c-9.6-12-8.9-51.9-8.3-60.2-.2-.5-7.1 3.7-8 4.3a174.7 174.7 0 0 0-23.5 20.1 210 210 0 0 0-22.5 27 202.9 202.9 0 0 0-32.2 72.7l-.3 1.6c-.5 2.1-2.5 12.9-2.8 15.2 0 .2 0-.2 0 0a279 279 0 0 0-3.6 33.5v1.3a240.3 240.3 0 0 0 477.2 40.6l1.1-9.3a247 247 0 0 0-15.6-120.7zM455 178.7v.3z"/></svg>