<svg xmlns="http://www.w3.org/2000/svg" width="32" height="32" fill="none"><path fill="#2C7493" d="M6.381 27.137s1.575.004 1.577.002c1.231 0 1.37-.648 1.9-1.315.532-.666.812-.982 1.138-.735 1.145.918 2.099 1.615 2.933.987 1.51-1.157 2.178-3.993 3.592-5.624.33-.422 1.067-1.048 1.417-1.453.165-.173.07-.337-.1-.235-.712.479-2.32 1.526-3.51 3.74-1.1 2.005-1.893 2.69-2.78 2.158-.455-.254-.735-.62-1.353-1.053-.619-.433-1.222.455-1.54.773s-.965 1.24-1.521 1.345c-.557.107-1.18-.052-1.564.716-.225.438-.189.694-.189.694m14.565-15.434c.648.873.6 1.618.076 2.324-.373.565-.6 1.036-.673 1.8-.095 1.262.86 2.425 2.006 2.539a1.9 1.9 0 0 0 1.48-.57c1.354-1.34 1.348-4.601 1.338-5.093l.59-.008c.061.157.263.632.675 1.242 1.515 2.243 2.774 2.793 3.782 2.589.69-.158-1.31-1.627-1.473-1.783-.163-.157-.057-.287.233-.123.093.052 3.945 2.055 2.794 2.896-.965.659-2.603.482-3.84-.572-1.251-1.103-2.31-3.238-2.32-3.26l-.068-.138s-.01-.02-.01.002l.008.321c.06 3.324-.985 5.106-2.977 5.298-1.512.118-3.254-.992-3.478-2.844-.252-2.673 1.493-4.31 1.857-4.62M6.716 5.604s.248-.475.892-.178c.506.245 1.544 1.304 2.647 3.551 1.95 4.059 1.483 2.02.583-.113-.374-.887-.808-1.76-1.287-2.46-.485-.71-1.272-1.562-1.948-1.945-1.025-.571-1.25-.012-1.179.52.04.331.292.625.292.625M.287 27.543c.364-.443.696-.607 1.534-.607.847 0 1.12-.236 1.83-1.576.782-1.48 1.532-1.97 2.196-2.403.606-.34 1.461-.772 1.879-1.802.09-.198.207-.523.341-.898l.01-.027c.15-.417.325-.904.509-1.345l.001.009s.568-1.443.307.51c-.117.88-.064 1.435.03 1.784.086.24.238.5.504.726.368.313-.099.156-.726.405-.145.058-.292.16-.442.287a5.4 5.4 0 0 1-1.405 1.072c-1.472.754-2.254 2.243-2.75 2.88l-.132.19c-.693 1.002-1.074 1.553-1.834 1.553 0 0-2.102.002-2.104 0 .005-.122.036-.495.252-.758"/><path fill="#2C7493" d="M14.597 11.2c.905-1.463 2.792-3.084 5.241-3.084q.233 0 .473.02l.006.001c.355-.563.88-1.298 1.32-1.508.51-.245 1.19-.053 1.414.648.153.478.033 1.38-.102 1.283-.172-.123-.153-1.71-1.004-1.174-.33.207-.578.765-.659.963.91.282 1.597.769 2.051 1.454.292.462.767 1.507.455 2.773-.139.56-.22-.134-.37-.862-.14-.614-.32-1.296-1.03-1.882-.708-.586-1.757-.952-3-.815-1.203.135-2.281.729-3.08 1.672-.197.233-.671.937-.76 1.074-.531.82-.835 1.287-1.884 1.277.167-.445.451-1.07.929-1.84M4.795 4.775c.567.347 1.263.913 2.008 1.785.814.954 1.746 2.29 2.769 3.971.596.979.77 1.546.737 1.613-.017 0-.233-.027-1.197-1.373-2.124-3.085-3.988-5.128-4.44-4.87l-.002.001q-.081.051-.084.207c.035 1.21 2.61 5.76 6.289 7.924-.538 1.364-.339 2.502.283 3.625.425.77 1.989 2.35 3.433 1.937 1.445-.413.99-4.415-1.385-5.219-.68-.208-1.109.218-1.26.792-.144.542-.077 1.208-.031 1.525.017.115-.037.082-.068.032-.867-1.423-.207-2.687.602-2.942.945-.298 2.232.378 3.01 1.66 1.252 2.24.663 4.136-.34 4.736-1.8 1.1-4.745-.82-5.361-3.077-.231-.938-.089-1.91.26-2.7-5.222-3.63-6.394-7.036-6.626-8.75-.125-1.123.647-1.34 1.403-.877"/></svg>