<svg xmlns="http://www.w3.org/2000/svg" viewBox="0 0 66.166 65.804"><defs><linearGradient id="b"><stop offset="0" stop-color="#06c2e7"/><stop offset=".25" stop-color="#0db8ec"/><stop offset=".5" stop-color="#12aef1"/><stop offset=".75" stop-color="#1f86f9"/><stop offset="1" stop-color="#107ddd"/></linearGradient><linearGradient id="a"><stop offset="0" stop-color="#bdbdbd"/><stop offset="1" stop-color="#fff"/></linearGradient><linearGradient id="d" x1="412.975" x2="412.975" y1="237.608" y2="59.392" gradientTransform="translate(206.79 159.773)scale(.35154)" gradientUnits="userSpaceOnUse" href="#a"/><filter id="f" width="1.042" height="1.045" x="-.021" y="-.022" color-interpolation-filters="sRGB"><feGaussianBlur stdDeviation=".958"/></filter><filter id="c" width="1.096" height="1.096" x="-.048" y="-.048" color-interpolation-filters="sRGB"><feGaussianBlur stdDeviation="3.564"/></filter><radialGradient id="e" cx="413.061" cy="136.818" r="82.125" fx="413.061" fy="136.818" gradientTransform="translate(194.545 155.58)scale(.38143)" gradientUnits="userSpaceOnUse" href="#b"/></defs><path d="M502.083 148.5a89.11 89.11 0 0 1-89.108 89.108 89.11 89.11 0 0 1-89.108-89.108 89.11 89.11 0 0 1 89.108-89.108 89.11 89.11 0 0 1 89.108 89.108" filter="url(#c)" opacity=".53" paint-order="markers stroke fill" transform="matrix(.33865 0 0 .3261 -106.77 -14.478)"/><path fill="url(#d)" stroke="#cdcdcd" stroke-linecap="round" stroke-linejoin="round" stroke-width=".093" d="M383.294 211.977a31.325 31.325 0 0 1-31.325 31.325 31.325 31.325 0 0 1-31.326-31.325 31.325 31.325 0 0 1 31.326-31.325 31.325 31.325 0 0 1 31.325 31.325" paint-order="markers stroke fill" transform="translate(-318.886 -180.595)"/><path fill="url(#e)" d="M380.84 211.977a28.87 28.87 0 0 1-28.871 28.87 28.87 28.87 0 0 1-28.871-28.87 28.87 28.87 0 0 1 28.87-28.87 28.87 28.87 0 0 1 28.871 28.87z" paint-order="markers stroke fill" transform="translate(-318.886 -180.595)"/><path fill="#f4f2f3" d="M33.083 4.017a.42.42 0 0 0-.421.42v4.856a.42.42 0 1 0 .842 0V4.438a.42.42 0 0 0-.421-.421m-2.754.174a.42.42 0 0 0-.46.463l.212 2.03a.42.42 0 1 0 .837-.087l-.212-2.03a.42.42 0 0 0-.377-.376m5.527.002a.42.42 0 0 0-.377.375l-.214 2.03a.42.42 0 1 0 .837.089l.214-2.031a.42.42 0 0 0-.46-.463M27.5 4.6a.42.42 0 0 0-.41.508l1.005 4.75a.42.42 0 1 0 .824-.174l-1.005-4.75A.42.42 0 0 0 27.5 4.6m11.183.004a.42.42 0 0 0-.414.333l-1.009 4.75a.42.42 0 1 0 .824.175l1.009-4.75a.42.42 0 0 0-.41-.508M24.8 5.361a.42.42 0 0 0-.437.55l.632 1.942a.42.42 0 1 0 .8-.26l-.63-1.942a.42.42 0 0 0-.365-.29m16.568.001a.42.42 0 0 0-.364.29l-.632 1.942a.42.42 0 1 0 .8.26l.632-1.942a.42.42 0 0 0-.436-.55M22.13 6.34a.42.42 0 0 0-.377.592l1.972 4.437a.42.42 0 1 0 .77-.342L22.523 6.59a.42.42 0 0 0-.393-.25m21.937.015a.42.42 0 0 0-.392.25l-1.978 4.434a.42.42 0 1 0 .769.343l1.978-4.434a.42.42 0 0 0-.377-.593M19.654 7.65a.42.42 0 0 0-.394.63l1.02 1.77a.42.42 0 1 0 .73-.421L19.989 7.86a.42.42 0 0 0-.335-.21m26.858 0a.42.42 0 0 0-.335.21l-1.021 1.769a.42.42 0 1 0 .73.42l1.02-1.768a.42.42 0 0 0-.394-.63zm-29.265 1.5a.422.422 0 0 0-.326.669l2.85 3.93a.42.42 0 1 0 .682-.494l-2.85-3.93a.42.42 0 0 0-.356-.174zm31.702.022a.42.42 0 0 0-.356.174l-2.856 3.926a.42.42 0 1 0 .681.495l2.856-3.926a.42.42 0 0 0-.325-.669m-33.852 1.783a.42.42 0 0 0-.335.702l1.366 1.518a.42.42 0 1 0 .626-.563l-1.366-1.518a.42.42 0 0 0-.291-.14zm35.975.003a.42.42 0 0 0-.29.139l-1.367 1.517a.42.42 0 1 0 .625.564l1.367-1.518a.42.42 0 0 0-.335-.702m-38.037 1.977a.42.42 0 0 0-.26.733l3.61 3.249a.42.42 0 1 0 .563-.626l-3.609-3.248a.42.42 0 0 0-.304-.108m40.109.014a.42.42 0 0 0-.304.108l-3.61 3.245a.42.42 0 1 0 .562.626l3.61-3.245a.42.42 0 0 0-.258-.734m-41.823 2.19a.42.42 0 0 0-.262.762l1.652 1.2a.42.42 0 1 0 .495-.681l-1.652-1.2a.4.4 0 0 0-.233-.081m43.535.015a.4.4 0 0 0-.233.08l-1.653 1.2a.42.42 0 1 0 .495.681l1.653-1.2a.42.42 0 0 0-.262-.76zM9.72 17.49a.42.42 0 0 0-.18.785l4.204 2.427a.42.42 0 1 0 .42-.729L9.96 17.546a.4.4 0 0 0-.24-.056m46.728 0a.4.4 0 0 0-.24.056l-4.205 2.427a.42.42 0 1 0 .42.73l4.206-2.428a.42.42 0 0 0-.181-.785m-47.94 2.506a.42.42 0 0 0-.18.806l1.866.832a.42.42 0 1 0 .343-.77l-1.866-.831a.4.4 0 0 0-.163-.037m49.158.017a.4.4 0 0 0-.164.037l-1.865.83a.42.42 0 1 0 .342.77l1.866-.831a.42.42 0 0 0-.179-.806M7.429 22.615a.42.42 0 0 0-.094.82l4.615 1.504a.42.42 0 1 0 .261-.8l-4.616-1.504a.4.4 0 0 0-.166-.02m51.314.018a.4.4 0 0 0-.166.02l-4.617 1.5a.42.42 0 1 0 .26.801l4.617-1.5a.42.42 0 0 0-.094-.82zM6.756 25.365a.42.42 0 0 0-.09.833l1.998.424a.42.42 0 1 0 .175-.823l-1.998-.425a.4.4 0 0 0-.085-.009m52.655.004-.085.009-1.998.424a.42.42 0 1 0 .175.823l1.998-.424a.42.42 0 0 0-.09-.833zM6.247 28.13a.42.42 0 0 0-.003.838l4.828.51a.42.42 0 1 0 .089-.837l-4.829-.51a.4.4 0 0 0-.085 0zm53.676.037a.4.4 0 0 0-.085 0l-4.83.504a.42.42 0 1 0 .088.837l4.83-.504a.42.42 0 0 0-.003-.837M6.165 30.96a.42.42 0 1 0 0 .842h2.043a.42.42 0 1 0 0-.842zm51.793 0a.42.42 0 1 0 0 .842h2.043a.42.42 0 1 0 0-.842zm-46.803 2.295a.4.4 0 0 0-.085 0l-4.83.504a.42.42 0 1 0 .088.838l4.83-.504a.42.42 0 0 0-.003-.838m43.853.03a.42.42 0 0 0-.003.838l4.828.51a.42.42 0 1 0 .089-.837l-4.828-.51a.4.4 0 0 0-.086-.001M8.748 36.13a.4.4 0 0 0-.085.009l-1.998.424a.42.42 0 1 0 .175.823l1.998-.424a.42.42 0 0 0-.09-.833zm48.67.004a.42.42 0 0 0-.09.833l1.997.424a.42.42 0 1 0 .175-.824l-1.998-.424a.4.4 0 0 0-.085-.01zM12.111 37.79a.4.4 0 0 0-.166.02l-4.617 1.5a.42.42 0 1 0 .26.801l4.617-1.5a.42.42 0 0 0-.094-.82zm41.937.015a.42.42 0 0 0-.094.82l4.616 1.504a.42.42 0 1 0 .26-.8l-4.615-1.504a.4.4 0 0 0-.167-.02M10.35 41.08a.4.4 0 0 0-.163.036l-1.866.831a.42.42 0 1 0 .342.769l1.866-.83a.42.42 0 0 0-.179-.806m45.459.016a.42.42 0 0 0-.18.805l1.865.832a.42.42 0 1 0 .343-.769l-1.865-.832a.4.4 0 0 0-.163-.036m-41.826.912a.4.4 0 0 0-.24.056L9.538 44.49a.42.42 0 1 0 .421.73l4.205-2.428a.42.42 0 0 0-.181-.785zm38.2 0a.42.42 0 0 0-.181.785l4.205 2.427a.42.42 0 1 0 .42-.729l-4.204-2.427a.4.4 0 0 0-.24-.056M12.934 45.57a.4.4 0 0 0-.233.08l-1.653 1.2a.42.42 0 1 0 .495.682l1.653-1.2a.42.42 0 0 0-.262-.762m40.288.015a.42.42 0 0 0-.262.762l1.652 1.2a.42.42 0 1 0 .495-.681l-1.652-1.2a.4.4 0 0 0-.233-.081m-36.544.145a.42.42 0 0 0-.304.108l-3.61 3.245a.42.42 0 1 0 .562.626l3.61-3.245a.42.42 0 0 0-.258-.734m32.8.011a.421.421 0 0 0-.26.734l3.609 3.248a.42.42 0 1 0 .563-.625l-3.608-3.249a.42.42 0 0 0-.304-.107zm-29.375 3.084a.42.42 0 0 0-.355.173l-2.856 3.927a.42.42 0 1 0 .68.495l2.857-3.926a.42.42 0 0 0-.326-.669m25.936.018a.421.421 0 0 0-.326.668l2.85 3.93a.42.42 0 1 0 .682-.494l-2.851-3.93a.42.42 0 0 0-.355-.174m-29.623.606a.42.42 0 0 0-.29.14l-1.367 1.517a.42.42 0 1 0 .625.563l1.367-1.517a.42.42 0 0 0-.335-.703m33.331.002a.42.42 0 0 0-.335.702l1.366 1.518a.42.42 0 1 0 .626-.563l-1.366-1.518a.42.42 0 0 0-.291-.139m-25.655 1.684a.42.42 0 0 0-.393.25l-1.978 4.433a.42.42 0 1 0 .77.343l1.977-4.434a.42.42 0 0 0-.376-.592m17.955.012a.42.42 0 0 0-.377.592l1.972 4.437a.42.42 0 1 0 .77-.342l-1.972-4.437a.42.42 0 0 0-.393-.25m-21.431 1.359a.42.42 0 0 0-.335.21l-1.021 1.768a.42.42 0 1 0 .729.421l1.02-1.769a.42.42 0 0 0-.393-.63m24.934 0a.42.42 0 0 0-.394.63l1.021 1.77a.42.42 0 1 0 .73-.422l-1.022-1.769a.42.42 0 0 0-.335-.21zm-17.054.063a.42.42 0 0 0-.415.334l-1.009 4.749a.42.42 0 1 0 .824.175l1.009-4.75a.42.42 0 0 0-.41-.508zm9.16.003a.42.42 0 0 0-.41.508l1.006 4.75a.42.42 0 1 0 .823-.175l-1.006-4.75a.42.42 0 0 0-.414-.333zm-4.573.48a.42.42 0 0 0-.421.42v4.855a.42.42 0 1 0 .842 0v-4.855a.42.42 0 0 0-.421-.42m-7.727 1.568a.42.42 0 0 0-.364.29l-.631 1.942a.42.42 0 1 0 .8.26l.632-1.942a.42.42 0 0 0-.437-.55m15.45 0a.42.42 0 0 0-.437.55l.632 1.943a.42.42 0 1 0 .8-.26l-.63-1.942a.42.42 0 0 0-.365-.29zm-10.365 1.083a.42.42 0 0 0-.378.375l-.213 2.03a.42.42 0 1 0 .837.088l.214-2.03a.42.42 0 0 0-.46-.463m5.267.002a.42.42 0 0 0-.46.463l.212 2.03a.42.42 0 1 0 .837-.088l-.212-2.03a.42.42 0 0 0-.377-.375" paint-order="markers stroke fill"/><path d="m469.096 100.607-65.51 38.061-41.42 65.207 60.595-44.882z" filter="url(#f)" opacity=".409" paint-order="markers stroke fill" transform="translate(-112.095 -20.822)scale(.35154)"/><path fill="#ff5150" d="m36.383 34.838-6.6-6.913 23.416-15.752z" paint-order="markers stroke fill"/><path fill="#f1f1f1" d="m36.383 34.838-6.6-6.913L12.966 50.59z" paint-order="markers stroke fill"/><path d="m12.967 50.59 23.416-15.752L53.2 12.173z" opacity=".243"/></svg>