<svg xmlns="http://www.w3.org/2000/svg" width="257.25" height="107.62"><defs><linearGradient id="linearGradient842" x1="125.02" x2="162.32" y1="63.615" y2="63.615" gradientTransform="translate(10 10)" gradientUnits="userSpaceOnUse"><stop offset="0" stop-color="#654ff0"/><stop offset="1" stop-color="#a8b9cc"/></linearGradient><style>.cls-2{fill:#654ff0}</style></defs><g data-name="Layer 2" transform="translate(-22.722 -22.406)"><g id="icon"><path d="M88.842 22.406v.58a12.34 12.34 0 0 1-24.68 0v-.58h-41.44v107.62h107.62V22.406zm-14.76 96.1-5.24-25.93h-.09l-5.67 25.93h-7.22l-8.18-38.1h7.13l4.88 25.93h.09l5.88-25.93h6.67l5.28 26.25h.09l5.57-26.25h7l-9.09 38.1zm39.26 0-2.43-8.48h-12.83l-1.87 8.48h-7.13l9.22-38.1h11.25l11.21 38.1z" class="cls-2"/><path d="m109.162 103.776-3.57-13.98h-3l-3.11 13.98z" class="cls-2"/></g><path fill="#a8b9cc" d="M252.52 64.154s-1.522-14.191-15.603-14.586-21.312 10.644-21.312 26.412 7.992 28.383 21.692 28.383c13.701 0 15.223-15.768 15.223-15.768l26.259 1.577s1.546 14.24-9.442 25.106c-10.99 10.864-24.476 12.639-33.896 12.566-9.42-.076-22.48.147-35.108-12.787-12.63-12.935-14.772-25.5-14.772-37.844s2.395-28.696 17.41-41.096c10.206-8.427 20.552-11.531 30.899-11.531 43.196 0 46.097 39.84 46.097 39.84z"/><path fill="url(#linearGradient842)" d="M180.88 74.839v2.753l-12.023 12.023-3.671-3.67 7.128-7.129h-37.293v-5.2h37.293l-7.128-7.129 3.671-3.671z"/></g></svg>