<svg xmlns="http://www.w3.org/2000/svg" width="257.25" height="107.62"><title>wasm2c logo</title><defs><linearGradient id="linearGradient842" x1="125.02" x2="162.32" y1="63.62" y2="63.62" gradientTransform="translate(10 10)" gradientUnits="userSpaceOnUse"><stop offset="0" stop-color="#654ff0"/><stop offset="1" stop-color="#a8b9cc"/></linearGradient><style>.cls-2{fill:#654ff0}</style></defs><path d="M66.12 0v.6a12.34 12.34 0 0 1-24.68 0V.02H0v107.62h107.62V0zM51.36 96.1l-5.24-25.92h-.09l-5.67 25.93h-7.22l-8.18-38.1h7.13l4.88 25.93h.1l5.87-25.93h6.67l5.28 26.25h.1l5.56-26.25h7l-9.09 38.1zm39.26 0-2.43-8.47H75.36l-1.87 8.48h-7.13l9.22-38.1h11.25l11.21 38.1z" class="cls-2"/><path d="M86.44 81.38 82.88 67.4h-3l-3.1 13.98z" class="cls-2"/><path fill="#a8b9cc" d="M229.8 41.75s-1.52-14.19-15.6-14.58c-14.08-.4-21.31 10.64-21.31 26.41s7.99 28.38 21.69 28.38c13.7 0 15.22-15.77 15.22-15.77l26.26 1.58s1.55 14.24-9.44 25.1c-11 10.87-24.48 12.65-33.9 12.57-9.42-.07-22.48.15-35.1-12.78-12.64-12.94-14.78-25.5-14.78-37.85 0-12.34 2.4-28.7 17.41-41.1 10.2-8.42 20.55-11.52 30.9-11.52 43.2 0 46.1 39.84 46.1 39.84z"/><path fill="url(#linearGradient842)" d="M180.88 74.84v2.75l-12.02 12.03-3.67-3.68 7.12-7.12h-37.29v-5.2h37.3l-7.13-7.13 3.67-3.67z" transform="translate(-22.72 -22.4)"/></svg>