<svg width="32" height="20" viewBox="0 0 32 20" fill="none" xmlns="http://www.w3.org/2000/svg">
<path d="M30.2045 7.10711C30.0486 6.739 29.6239 6.56694 29.2557 6.72282L21.9239 9.82744L23.0528 12.4936C23.2087 12.8617 23.6335 13.0337 24.0016 12.8779L31.3335 9.77325L30.2045 7.10711Z" fill="#001AFF"/>
<path d="M22.5904 9.5452C22.2223 9.70107 21.7975 9.52901 21.6416 9.1609L21.9239 9.82744L22.5904 9.5452Z" fill="#001AFF"/>
<path d="M19.7795 2.907C19.4114 3.06287 18.9866 2.89081 18.8307 2.5227L19.1129 3.18924L19.7795 2.907Z" fill="#001AFF"/>
<path d="M10.3584 2.93403C9.9903 3.0899 9.56552 2.91784 9.40964 2.54973L9.69188 3.21627L10.3584 2.93403Z" fill="#001AFF"/>
<path d="M13.1808 9.59938C12.8127 9.75525 12.3879 9.58319 12.232 9.21508L12.5143 9.88161L13.1808 9.59938Z" fill="#001AFF"/>
<path d="M15.8621 15.9315C15.4939 16.0873 15.0692 15.9153 14.9133 15.5472L15.1955 16.2137L15.8621 15.9315Z" fill="#001AFF"/>
<path d="M6.45241 15.9857C6.0843 16.1415 5.65952 15.9695 5.50364 15.6014L5.78588 16.2679L6.45241 15.9857Z" fill="#001AFF"/>
<path d="M3.77115 9.65357C3.40304 9.80944 2.97826 9.63738 2.82238 9.26927L3.10462 9.93581L3.77115 9.65357Z" fill="#001AFF"/>
<path d="M0.948773 2.98822C0.580658 3.1441 0.155879 2.97204 0 2.60393L0.282238 3.27046L0.948773 2.98822Z" fill="#001AFF"/>
<path d="M25.2716 15.8773C24.9035 16.0332 24.4788 15.8611 24.3229 15.493L24.6051 16.1595L25.2716 15.8773Z" fill="#001AFF"/>
<path d="M21.2573 10.1097C21.6254 9.95381 22.0502 10.1259 22.2061 10.494L21.9239 9.82744L21.2573 10.1097Z" fill="#001AFF"/>
<path d="M11.8477 10.1639C12.2158 10.008 12.6406 10.1801 12.7965 10.5482L12.5143 9.88161L11.8477 10.1639Z" fill="#001AFF"/>
<path d="M9.02531 3.49852C9.39342 3.34264 9.8182 3.5147 9.97408 3.88281L9.69188 3.21627L9.02531 3.49852Z" fill="#001AFF"/>
<path d="M18.4349 3.44434C18.803 3.28846 19.2278 3.46052 19.3837 3.82863L19.1015 3.1621L18.4349 3.44434Z" fill="#001AFF"/>
<path d="M14.529 16.4959C14.8971 16.3401 15.3219 16.5121 15.4778 16.8802L15.1955 16.2137L14.529 16.4959Z" fill="#001AFF"/>
<path d="M32 9.49101C31.6319 9.64689 31.2071 9.47483 31.0512 9.10672L31.3335 9.77325L32 9.49101Z" fill="#001AFF"/>
<path d="M29.1776 2.82568C28.8095 2.98155 28.3847 2.80949 28.2288 2.44138L28.5111 3.10792L29.1776 2.82568Z" fill="#001AFF"/>
<path d="M20.7949 7.16131C20.639 6.79319 20.2142 6.62113 19.8461 6.77701L12.5143 9.88161L13.6432 12.5478C13.7991 12.9159 14.2238 13.0879 14.5919 12.9321L21.9239 9.82744L20.7949 7.16131Z" fill="#001AFF"/>
<path d="M11.3853 7.21549C11.2294 6.84737 10.8046 6.67532 10.4365 6.83119L3.10462 9.93581L4.23357 12.6019C4.38944 12.9701 4.81422 13.1421 5.18234 12.9862L12.5143 9.88161L11.3853 7.21549Z" fill="#001AFF"/>
<path d="M27.3821 0.441777C27.2262 0.07366 26.8015 -0.0983955 26.4333 0.0574802L19.1015 3.1621L20.2304 5.82824C20.3863 6.19635 20.8111 6.36841 21.1792 6.21253L28.5111 3.10792L27.3821 0.441777Z" fill="#001AFF"/>
<path d="M8.56289 0.55014C8.40702 0.182023 7.98224 0.00996743 7.61412 0.165843L0.282238 3.27046L1.41119 5.9366C1.56706 6.30472 1.99184 6.47677 2.35996 6.3209L9.69188 3.21627L8.56289 0.55014Z" fill="#001AFF"/>
<path d="M17.9725 0.495958C17.8166 0.127841 17.3918 -0.0442141 17.0237 0.111662L9.69188 3.21627L10.8208 5.88242C10.9767 6.25054 11.4015 6.42259 11.7696 6.26672L19.1015 3.1621L17.9725 0.495958Z" fill="#001AFF"/>
<path d="M23.4762 13.4934C23.3203 13.1253 22.8955 12.9532 22.5274 13.1091L15.1955 16.2137L16.3245 18.8798C16.4803 19.248 16.9051 19.42 17.2732 19.2641L24.6051 16.1595L23.4762 13.4934Z" fill="#001AFF"/>
<path d="M14.0665 13.5476C13.9107 13.1795 13.4859 13.0074 13.1178 13.1633L5.78588 16.2679L6.91483 18.934C7.0707 19.3021 7.49548 19.4742 7.8636 19.3183L15.1955 16.2137L14.0665 13.5476Z" fill="#001AFF"/>
</svg>
