<?xml version="1.0" encoding="UTF-8"?>
<svg width="48px" height="48px" viewBox="0 0 48 48" version="1.1" xmlns="http://www.w3.org/2000/svg" xmlns:xlink="http://www.w3.org/1999/xlink">
    <title>wazero</title>
    <g id="wazero" stroke="none" fill="none" fill-rule="evenodd" stroke-width="1">
        <g id="Group" transform="translate(8.9447, 9.3882)" fill="#000000">
            <path d="M13.6896823,0.0527686282 C16.8743758,-0.21425704 20.0616733,0.536915014 22.7897072,2.19772443 C25.5178782,3.85853385 27.6452101,6.34256987 28.8634716,9.29010667 C30.08187,12.2376435 30.3280167,15.495548 29.5662778,18.5919793 C28.8045389,21.6884106 27.0743857,24.462579 24.6266245,26.5125103 L20.7562564,21.9129145 C22.224913,20.6829284 23.2629502,19.0185641 23.7200209,17.160596 C24.1769546,15.3027645 24.0293489,13.3479944 23.2983098,11.579445 C22.5672707,9.81103232 21.2908989,8.32058336 19.6540786,7.32398833 C18.0171212,6.32753002 16.1048249,5.87688148 14.1940362,6.03712423 L13.6896823,0.0527686282 Z" id="Path"></path>
            <path d="M5.0124649,3.79946827 C2.63117429,5.92582935 0.990105306,8.75332081 0.327318465,11.8723119 C-0.335605427,14.9913029 0.0140160013,18.2397734 1.32547325,21.1472495 C2.63693051,24.0547256 4.84210839,26.470262 7.62167413,28.0438403 C10.4012399,29.6175553 13.6107399,30.2675502 16.7852915,29.8997576 L16.0909826,23.9344069 C14.1862242,24.1550825 12.2604967,23.7650035 10.5927025,22.8209112 C8.92504527,21.8766822 7.60193854,20.4273877 6.81498196,18.682902 C6.02816243,16.9384164 5.81833475,14.9892521 6.21606168,13.1178848 C6.6137886,11.2465175 7.59837517,9.55002259 9.02728659,8.27423329 L5.0124649,3.79946827 Z" id="Path"></path>
        </g>
    </g>
</svg>