<svg xmlns="http://www.w3.org/2000/svg" width="48" height="48" viewBox="0 0 48 48"><title>wazero</title><path fill-rule="evenodd" d="M22.634 9.441a15.08 15.08 0 0 1 9.1 2.145 15.02 15.02 0 0 1 6.074 7.092 14.98 14.98 0 0 1 .703 9.302 15 15 0 0 1-4.94 7.92l-3.87-4.599a8.99 8.99 0 0 0 2.542-10.333 9 9 0 0 0-3.644-4.256 9.05 9.05 0 0 0-5.46-1.287zm-8.677 3.747a15 15 0 0 0-4.685 8.073 14.98 14.98 0 0 0 .998 9.274 15.03 15.03 0 0 0 6.296 6.897 15.08 15.08 0 0 0 9.164 1.856l-.694-5.965a9.05 9.05 0 0 1-5.499-1.114 9 9 0 0 1-3.777-4.138 8.99 8.99 0 0 1 2.212-10.409z"/></svg>