<svg class="svg-logo" viewBox="25 0 110 50" fill="none" xmlns="http://www.w3.org/2000/svg"><path d="M62.5775 31C62.4225 30.47 62.255 29.9025 62.075 29.2975 61.9 28.6925 61.735 28.1325 61.58 27.6175L60.5975 24.2725C60.4275 23.6775 60.235 23.025 60.02 22.315 59.81 21.6 59.615 20.93 59.435 20.305H60.59C60.815 21.1 61.0525 21.9375 61.3025 22.8175 61.5525 23.6925 61.7875 24.53 62.0075 25.33L63.26 29.7625H63.38L64.595 25.27C64.73 24.76 64.875 24.22 65.03 23.65S65.34 22.51 65.495 21.94C65.65 21.365 65.7975 20.82 65.9375 20.305H67.22C67.44 21.1 67.6675 21.93 67.9025 22.795 68.1425 23.655 68.375 24.4875 68.6 25.2925l1.23 4.47H69.95l1.2675-4.5C71.4375 24.4875 71.67 23.6625 71.915 22.7875 72.165 21.9075 72.3975 21.08 72.6125 20.305h1.155C73.5825 20.94 73.385 21.6075 73.175 22.3075 72.97 23.0025 72.78 23.65 72.605 24.25L71.6075 27.6175C71.4475 28.1525 71.28 28.7225 71.105 29.3275 70.93 29.9275 70.765 30.485 70.61 31H69.2075C68.9925 30.23 68.765 29.4175 68.525 28.5625 68.285 27.7025 68.0575 26.8975 67.8425 26.1475l-1.23-4.3875H66.5l-1.215 4.3875C65.075 26.8975 64.85 27.705 64.61 28.57 64.37 29.435 64.145 30.245 63.935 31H62.5775zm11.0014.0C73.7939 30.42 74.0189 29.815 74.2539 29.185 74.4889 28.55 74.7139 27.945 74.9289 27.37l1.3575-3.6675C76.5314 23.0475 76.7514 22.4525 76.9464 21.9175 77.1464 21.3825 77.3464 20.845 77.5464 20.305h1.41C79.1564 20.855 79.3539 21.395 79.5489 21.925 79.7439 22.455 79.9614 23.05 80.2014 23.71L81.5514 27.3925C81.7664 27.9825 81.9889 28.59 82.2189 29.215 82.4489 29.835 82.6664 30.43 82.8714 31h-1.095C81.5464 30.36 81.3089 29.7025 81.0639 29.0275 80.8239 28.3475 80.5964 27.705 80.3814 27.1l-2.0775-5.805H78.1839l-2.0925 5.7525C75.8664 27.6725 75.6289 28.3275 75.3789 29.0125 75.1339 29.6925 74.8939 30.355 74.6589 31h-1.08zM75.4014 28.1875 75.4764 27.3325h5.595L81.1314 28.1875h-5.73zM84.1407 31V30.4975C84.4357 30.1075 84.7682 29.6675 85.1382 29.1775 85.5132 28.6875 85.8907 28.195 86.2707 27.7 86.6557 27.2 87.0032 26.7425 87.3132 26.3275L91.6407 20.65 91.9782 20.9875h-3.255C88.0532 20.9875 87.3407 20.9875 86.5857 20.9875c-.75.0-1.5325.0-2.3475.0V20.305H92.3757V20.905C91.8757 21.56 91.3857 22.2025 90.9057 22.8325 90.4257 23.4625 89.9432 24.0925 89.4582 24.7225l-4.605 6.045L84.6507 30.3175H87.6282c.474999999999994.0 1.0025.0 1.5825.0s1.1525.0 1.7175.0 1.065.0 1.5.0V31H84.1407zm10.7188.0c0-.605.0-1.185.0-1.74.0-.560000000000002.0-1.1675.0-1.8225V23.875c0-.66.0-1.27.0-1.83.0-.560000000000002.0-1.14.0-1.74H101.257V20.9875c-.52000000000001.0-1.08.0-1.68000000000001.0-.594999999999999.0-1.2975.0-2.1075.0h-2.265L95.602 20.395c0 .605.0 1.1875.0 1.7475.0.560000000000002.0 1.1675.0 1.8225V27.34c0 .649999999999999.0 1.255.0 1.815.0.555.0 1.135.0 1.74L95.227 30.3175h2.3175c.689999999999998.0 1.34.0 1.95.0C100.104 30.3175 100.689 30.3175 101.249 30.3175V31H94.8595zM95.452 25.9V25.2325h2.145C98.307 25.2325 98.9195 25.2325 99.4345 25.2325s1.0125.0 1.49250000000001.0V25.9C100.417 25.9 99.9045 25.9 99.3895 25.9 98.8795 25.9 98.277 25.9 97.582 25.9h-2.13zM103.736 31c0-.605.0-1.185.0-1.74.0-.560000000000002.0-1.1675.0-1.8225V23.875c0-.66.0-1.27.0-1.83.0-.560000000000002.0-1.14.0-1.74C104.006 20.305 104.309 20.305 104.644 20.305c.334999999999994.0.704999999999998.0 1.11.0s.85199999999999.0 1.342.0C107.876 20.305 108.521 20.4025 109.031 20.5975 109.541 20.7875 109.921 21.0875 110.171 21.4975S110.546 22.44 110.546 23.095C110.546 23.66 110.436 24.18 110.216 24.655 110.001 25.13 109.629 25.5125 109.099 25.8025 108.569 26.0875 107.841 26.2325 106.916 26.2375L107.074 25.8625l1.807 2.1C109.166 28.2825 109.466 28.625 109.781 28.99 110.096 29.355 110.404 29.7125 110.704 30.0625 111.004 30.4125 111.274 30.725 111.514 31H110.584C110.184 30.53 109.794 30.0775 109.414 29.6425 109.039 29.2075 108.669 28.7775 108.304 28.3525L106.309 26.02 106.796 26.3275H104.351V25.675H106.519C107.269 25.675 107.884 25.59 108.364 25.42 108.844 25.25 109.199 24.98 109.429 24.61 109.659 24.235 109.774 23.745 109.774 23.14 109.774 22.61 109.686 22.1975 109.511 21.9025 109.341 21.6075 109.119 21.395 108.844 21.265 108.574 21.135 108.281 21.055 107.966 21.025 107.651 20.99 107.349 20.9725 107.059 20.9725h-3.023L104.479 20.395c0 .609999999999999.0 1.195.0 1.755.0.555.0 1.16.0 1.815v3.4725c0 .655000000000001.0 1.2625.0 1.8225.0.555.0 1.135.0 1.74H103.736zM118.054 31.1425C117.179 31.1425 116.409 31 115.744 30.715 115.079 30.425 114.521 30.025 114.071 29.515 113.626 29 113.289 28.4125 113.059 27.7525 112.834 27.0875 112.721 26.3825 112.721 25.6375 112.721 24.5975 112.934 23.6625 113.359 22.8325 113.784 21.9975 114.391 21.3375 115.181 20.8525 115.976 20.3625 116.924 20.1175 118.024 20.1175 118.864 20.1175 119.609 20.26 120.259 20.545 120.909 20.83 121.459 21.225 121.909 21.73 122.364 22.235 122.706 22.82 122.936 23.485 123.171 24.15 123.289 24.865 123.289 25.63 123.289 26.685 123.076 27.6275 122.651 28.4575 122.231 29.2875 121.629 29.9425 120.844 30.4225 120.064 30.9025 119.134 31.1425 118.054 31.1425zM118.024 30.4375C118.809 30.4375 119.484 30.3075 120.049 30.0475 120.614 29.7825 121.076 29.4225 121.436 28.9675 121.801 28.5125 122.071 28 122.246 27.43 122.421 26.855 122.509 26.255 122.509 25.63 122.509 24.96 122.414 24.335 122.224 23.755 122.039 23.17 121.759 22.66 121.384 22.225 121.009 21.785 120.541 21.4425 119.981 21.1975 119.421 20.9475 118.769 20.8225 118.024 20.8225 117.254 20.8225 116.584 20.9525 116.014 21.2125 115.449 21.4725 114.979 21.83 114.604 22.285 114.234 22.735 113.956 23.2475 113.771 23.8225 113.591 24.3975 113.501 25 113.501 25.63 113.501 26.265 113.589 26.8725 113.764 27.4525 113.944 28.0275 114.216 28.54 114.581 28.99 114.951 29.44 115.421 29.795 115.991 30.055 116.561 30.31 117.239 30.4375 118.024 30.4375z"></path><path d="M38.0079 14.0775C40.3316 13.8822 42.6572 14.4316 44.6477 15.6463c1.9906 1.2147 3.5428 3.0315 4.4317 5.1873C49.9684 22.9894 50.148 25.3722 49.5922 27.6369 49.0364 29.9016 47.774 31.9306 45.988 33.4299l-2.824-3.3641c1.0716-.8996 1.829-2.1169 2.1625-3.4758C45.6599 25.2312 45.5522 23.8015 45.0188 22.508c-.5334-1.2934-1.4647-2.3835-2.659-3.1124C41.1654 18.6668 39.7701 18.3372 38.3759 18.4544L38.0079 14.0775z"></path><path d="M31.6766 16.8178c-1.7375 1.5552-2.9349 3.6232-3.4185 5.9044C27.7744 25.0034 28.0295 27.3793 28.9864 29.5058s2.5659 3.8932 4.594 5.0441c2.0281 1.151 4.3699 1.6264 6.6862 1.3574L39.76 31.5443C38.3702 31.7057 36.9651 31.4204 35.7482 30.7299 34.5314 30.0393 33.566 28.9793 32.9918 27.7034 32.4177 26.4275 32.2646 25.0019 32.5548 23.6332 32.845 22.2645 33.5634 21.0237 34.606 20.0906l-2.9294-3.2728z"></path></svg>