<svg xmlns="http://www.w3.org/2000/svg" xmlns:xlink="http://www.w3.org/1999/xlink" width="469.668" height="523.464" viewBox="0 0 469.668 523.464"><defs><linearGradient id="d"><stop offset="0" style="stop-color:#000;stop-opacity:1"/><stop offset="1" style="stop-color:#000;stop-opacity:0"/></linearGradient><linearGradient id="c"><stop offset="0" style="stop-color:#ffde73;stop-opacity:1"/><stop offset="1" style="stop-color:#ffc43b;stop-opacity:1"/></linearGradient><linearGradient id="b"><stop offset="0" style="stop-color:#3a0077;stop-opacity:1"/><stop offset="1" style="stop-color:#8400bf;stop-opacity:1"/></linearGradient><linearGradient id="a"><stop offset="0" style="stop-color:#43007f;stop-opacity:1"/><stop offset="1" style="stop-color:#7d00b8;stop-opacity:1"/></linearGradient><linearGradient xlink:href="#a" id="e" x1="355.58" x2="355.58" y1="365.582" y2="222.742" gradientUnits="userSpaceOnUse"/><linearGradient xlink:href="#b" id="f" x1="360.831" x2="360.831" y1="-103.267" y2="-253.527" gradientTransform="translate(919.416 171.812)" gradientUnits="userSpaceOnUse"/><linearGradient xlink:href="#c" id="g" x1="364.19" x2="364.19" y1="-164.536" y2="-135.986" gradientTransform="translate(912.344 173.226)" gradientUnits="userSpaceOnUse"/><linearGradient xlink:href="#d" id="h" x1="1148.703" x2="1148.703" y1="-122.725" y2="-141.131" gradientTransform="translate(202.363 53.967)" gradientUnits="userSpaceOnUse"/></defs><path d="m-364.223 278.258-25.12 14.502-13.825-7.982 25.176-14.535zm40.496 23.508-25.119 14.502-13.825-7.982 25.176-14.536zm40.264 23.269-25.12 14.502-13.825-7.982 25.177-14.535zm40.497 23.508-25.12 14.502-13.825-7.982 25.176-14.535zm-60.457-35.073-25.12 14.502-13.825-7.982 25.176-14.536zm100.593 57.96-25.119 14.503-13.826-7.983 25.177-14.535zm-19.833-11.184-25.119 14.503-13.825-7.982 25.176-14.536zm-121.257-70.285-25.119 14.503-13.825-7.982 25.176-14.536zm80.76 46.778-25.118 14.502-13.826-7.982 25.176-14.536zm80.634 46.395-25.12 14.502-13.825-7.982 25.176-14.535z" style="fill:#ffdb6b;fill-opacity:1;stroke:#000;stroke-width:1px;stroke-linecap:round;stroke-linejoin:round;stroke-opacity:1" transform="translate(640.893 -24.114)"/><path d="m-364.223 278.258-25.12 14.502-13.825-7.982 25.176-14.535zm40.496 23.508-25.119 14.502-13.825-7.982 25.176-14.536zm40.264 23.269-25.12 14.502-13.825-7.982 25.177-14.535zm40.497 23.508-25.12 14.502-13.825-7.982 25.176-14.535zm-60.457-35.073-25.12 14.502-13.825-7.982 25.176-14.536zm100.593 57.96-25.119 14.503-13.826-7.983 25.177-14.535zm-19.833-11.184-25.119 14.503-13.825-7.982 25.176-14.536zm-121.257-70.285-25.119 14.503-13.825-7.982 25.176-14.536zm80.76 46.778-25.118 14.502-13.826-7.982 25.176-14.536zm80.634 46.395-25.12 14.502-13.825-7.982 25.176-14.535z" style="fill:#ffdb6b;fill-opacity:1;stroke:#000;stroke-width:1px;stroke-linecap:round;stroke-linejoin:round;stroke-opacity:1" transform="matrix(-1 0 0 1 -171.693 -24.096)"/><path d="m154.363 315.436-4.274 4.274 203.543 117.515-.044-5.67z" style="fill:#6900a4;fill-opacity:1;stroke:#000;stroke-width:1px;stroke-linecap:round;stroke-linejoin:round;stroke-opacity:1" transform="translate(-119.16 38.207)"/><path d="M150.09 319.71v30.04l203.797 117.663-.255-30.188z" style="fill:#8300cc;fill-opacity:1;stroke:#000;stroke-width:1.00157475;stroke-linecap:round;stroke-linejoin:round;stroke-miterlimit:4;stroke-dasharray:none;stroke-opacity:1" transform="translate(-119.16 38.207)"/><path d="m277.125 249.582-51.844 29.932 49.762 14.142 28.745-30.898z" style="fill:#5f009b;fill-opacity:1;stroke:#000;stroke-width:1px;stroke-linecap:butt;stroke-linejoin:miter;stroke-opacity:1" transform="translate(-119.16 38.207)"/><path d="m310.322 230.232-26 15.154-.035-2.256-7.205.78.043 5.672 1.074.625c12.617 7.354 12.588 19.29-.059 26.662-12.65 7.373-33.132 7.387-45.746.035l-1.074-.627-2.836 1.652v17.918c0 .55.429.992.963.992h94.564a.977.977 0 0 0 .965-.992v-64.623c0-.55-.43-.992-.965-.992z" style="fill:#411c63;fill-opacity:1;stroke:#000;stroke-width:1;stroke-linejoin:round;stroke-opacity:1" transform="translate(-119.16 38.207)"/><path d="m277.082 243.91 1.074.626c12.617 7.354 12.587 19.29-.06 26.662-12.65 7.373-33.13 7.387-45.744.035l-1.075-.626-76.914 44.83 199.225 116.117 199.744-116.42-199.225-116.119Z" style="fill:url(#e);fill-opacity:1;stroke:#000;stroke-width:1;stroke-linejoin:round;stroke-opacity:1" transform="translate(-119.16 38.207)"/><path d="m311.706 366.37 13.238-7.715 57.043 22.713.164-.095-37.145-34.311 12.383-7.218 58.407 22.606.192-.112-38.295-34.328 12.984-7.567 53.668 50.947-13.136 7.656-57.736-22.31-.254.15 37.591 34.05-13.382 7.8zm93.896-54.726 20.869-12.164 91.264 29.035-13.656 7.959-20.204-6.522-23.773 13.856 12.217 11.177-13.3 7.752zm25.33 5.503 20.107 18.45 17.97-10.475-32.508-11.22z" style="fill:#fff;stroke-width:1" transform="translate(-119.16 38.207)"/><path d="m353.588 431.554.044 5.67 204.26-117.928-4.56-4.162z" style="fill:#6900a4;fill-opacity:1;stroke:#000;stroke-width:1px;stroke-linecap:round;stroke-linejoin:round;stroke-opacity:1" transform="translate(-119.16 38.207)"/><path d="m353.632 437.225.255 30.188 204.048-117.807v-30.181z" style="fill:#520080;fill-opacity:1;stroke:#000;stroke-width:1.00157475;stroke-linecap:round;stroke-linejoin:round;stroke-miterlimit:4;stroke-dasharray:none;stroke-opacity:1" transform="translate(-119.16 38.207)"/><path d="m-374.489 275.441 9.027-5.188 11.035 6.37-9.007 5.2z" style="fill:#bcbec0;fill-opacity:1;stroke:#000;stroke-width:1px;stroke-linecap:round;stroke-linejoin:round;stroke-opacity:1" transform="translate(582.393 207.633)"/><path d="M-374.489 275.441v17.591l11.055 6.383v-17.591z" style="fill:#a7a9ac;fill-opacity:1;stroke:#000;stroke-width:1px;stroke-linecap:round;stroke-linejoin:round;stroke-opacity:1" transform="translate(582.393 207.633)"/><path d="M-354.427 276.624v17.58l-9.007 5.21v-17.59z" style="fill:#919396;fill-opacity:1;stroke:#000;stroke-width:1px;stroke-linecap:round;stroke-linejoin:round;stroke-opacity:1" transform="translate(582.393 207.633)"/><path d="m-374.489 275.441 9.027-5.188 11.035 6.37-9.007 5.2z" style="fill:#bcbec0;fill-opacity:1;stroke:#000;stroke-width:1px;stroke-linecap:round;stroke-linejoin:round;stroke-opacity:1" transform="translate(562.277 196.116)"/><path d="M-374.489 275.441v17.591l11.055 6.383v-17.591z" style="fill:#a7a9ac;fill-opacity:1;stroke:#000;stroke-width:1px;stroke-linecap:round;stroke-linejoin:round;stroke-opacity:1" transform="translate(562.277 196.116)"/><path d="M-354.427 276.624v17.58l-9.007 5.21v-17.59z" style="fill:#919396;fill-opacity:1;stroke:#000;stroke-width:1px;stroke-linecap:round;stroke-linejoin:round;stroke-opacity:1" transform="translate(562.277 196.116)"/><path d="m-374.489 275.441 9.027-5.188 11.035 6.37-9.007 5.2z" style="fill:#bcbec0;fill-opacity:1;stroke:#000;stroke-width:1px;stroke-linecap:round;stroke-linejoin:round;stroke-opacity:1" transform="translate(542.195 184.417)"/><path d="M-374.489 275.441v17.591l11.055 6.383v-17.591z" style="fill:#a7a9ac;fill-opacity:1;stroke:#000;stroke-width:1px;stroke-linecap:round;stroke-linejoin:round;stroke-opacity:1" transform="translate(542.195 184.417)"/><path d="M-354.427 276.624v17.58l-9.007 5.21v-17.59z" style="fill:#919396;fill-opacity:1;stroke:#000;stroke-width:1px;stroke-linecap:round;stroke-linejoin:round;stroke-opacity:1" transform="translate(542.195 184.417)"/><path d="m-374.489 275.441 9.027-5.188 11.035 6.37-9.007 5.2z" style="fill:#bcbec0;fill-opacity:1;stroke:#000;stroke-width:1px;stroke-linecap:round;stroke-linejoin:round;stroke-opacity:1" transform="translate(522.079 172.9)"/><path d="M-374.489 275.441v17.591l11.055 6.383v-17.591z" style="fill:#a7a9ac;fill-opacity:1;stroke:#000;stroke-width:1px;stroke-linecap:round;stroke-linejoin:round;stroke-opacity:1" transform="translate(522.079 172.9)"/><path d="M-354.427 276.624v17.58l-9.007 5.21v-17.59z" style="fill:#919396;fill-opacity:1;stroke:#000;stroke-width:1px;stroke-linecap:round;stroke-linejoin:round;stroke-opacity:1" transform="translate(522.079 172.9)"/><path d="m-374.489 275.441 9.027-5.188 11.035 6.37-9.007 5.2z" style="fill:#bcbec0;fill-opacity:1;stroke:#000;stroke-width:1px;stroke-linecap:round;stroke-linejoin:round;stroke-opacity:1" transform="translate(501.974 161.339)"/><path d="M-374.489 275.441v17.591l11.055 6.383v-17.591z" style="fill:#a7a9ac;fill-opacity:1;stroke:#000;stroke-width:1px;stroke-linecap:round;stroke-linejoin:round;stroke-opacity:1" transform="translate(501.974 161.339)"/><path d="M-354.427 276.624v17.58l-9.007 5.21v-17.59z" style="fill:#919396;fill-opacity:1;stroke:#000;stroke-width:1px;stroke-linecap:round;stroke-linejoin:round;stroke-opacity:1" transform="translate(501.974 161.339)"/><path d="m-374.489 275.441 9.027-5.188 11.035 6.37-9.007 5.2z" style="fill:#bcbec0;fill-opacity:1;stroke:#000;stroke-width:1px;stroke-linecap:round;stroke-linejoin:round;stroke-opacity:1" transform="translate(481.858 149.823)"/><path d="M-374.489 275.441v17.591l11.055 6.383v-17.591z" style="fill:#a7a9ac;fill-opacity:1;stroke:#000;stroke-width:1px;stroke-linecap:round;stroke-linejoin:round;stroke-opacity:1" transform="translate(481.858 149.823)"/><path d="M-354.427 276.624v17.58l-9.007 5.21v-17.59z" style="fill:#919396;fill-opacity:1;stroke:#000;stroke-width:1px;stroke-linecap:round;stroke-linejoin:round;stroke-opacity:1" transform="translate(481.858 149.823)"/><path d="m-374.489 275.441 9.027-5.188 11.035 6.37-9.007 5.2z" style="fill:#bcbec0;fill-opacity:1;stroke:#000;stroke-width:1px;stroke-linecap:round;stroke-linejoin:round;stroke-opacity:1" transform="translate(461.775 138.123)"/><path d="M-374.489 275.441v17.591l11.055 6.383v-17.591z" style="fill:#a7a9ac;fill-opacity:1;stroke:#000;stroke-width:1px;stroke-linecap:round;stroke-linejoin:round;stroke-opacity:1" transform="translate(461.775 138.123)"/><path d="M-354.427 276.624v17.58l-9.007 5.21v-17.59z" style="fill:#919396;fill-opacity:1;stroke:#000;stroke-width:1px;stroke-linecap:round;stroke-linejoin:round;stroke-opacity:1" transform="translate(461.775 138.123)"/><path d="m-374.489 275.441 9.027-5.188 11.035 6.37-9.007 5.2z" style="fill:#bcbec0;fill-opacity:1;stroke:#000;stroke-width:1px;stroke-linecap:round;stroke-linejoin:round;stroke-opacity:1" transform="translate(441.66 126.607)"/><path d="M-374.489 275.441v17.591l11.055 6.383v-17.591z" style="fill:#a7a9ac;fill-opacity:1;stroke:#000;stroke-width:1px;stroke-linecap:round;stroke-linejoin:round;stroke-opacity:1" transform="translate(441.66 126.607)"/><path d="M-354.427 276.624v17.58l-9.007 5.21v-17.59z" style="fill:#919396;fill-opacity:1;stroke:#000;stroke-width:1px;stroke-linecap:round;stroke-linejoin:round;stroke-opacity:1" transform="translate(441.66 126.607)"/><path d="m-374.489 275.441 9.027-5.188 11.035 6.37-9.007 5.2z" style="fill:#bcbec0;fill-opacity:1;stroke:#000;stroke-width:1px;stroke-linecap:round;stroke-linejoin:round;stroke-opacity:1" transform="translate(421.531 114.804)"/><path d="M-374.489 275.441v17.591l11.055 6.383v-17.591z" style="fill:#a7a9ac;fill-opacity:1;stroke:#000;stroke-width:1px;stroke-linecap:round;stroke-linejoin:round;stroke-opacity:1" transform="translate(421.531 114.804)"/><path d="M-354.427 276.624v17.58l-9.007 5.21v-17.59z" style="fill:#919396;fill-opacity:1;stroke:#000;stroke-width:1px;stroke-linecap:round;stroke-linejoin:round;stroke-opacity:1" transform="translate(421.531 114.804)"/><path d="m-374.489 275.441 9.027-5.188 11.035 6.37-9.007 5.2z" style="fill:#bcbec0;fill-opacity:1;stroke:#000;stroke-width:1px;stroke-linecap:round;stroke-linejoin:round;stroke-opacity:1" transform="translate(401.415 103.288)"/><path d="M-374.489 275.441v17.591l11.055 6.383v-17.591z" style="fill:#a7a9ac;fill-opacity:1;stroke:#000;stroke-width:1px;stroke-linecap:round;stroke-linejoin:round;stroke-opacity:1" transform="translate(401.415 103.288)"/><path d="M-354.427 276.624v17.58l-9.007 5.21v-17.59z" style="fill:#919396;fill-opacity:1;stroke:#000;stroke-width:1px;stroke-linecap:round;stroke-linejoin:round;stroke-opacity:1" transform="translate(401.415 103.288)"/><path d="m-374.489 275.441 9.027-5.188 11.035 6.37-9.007 5.2z" style="fill:#bcbec0;fill-opacity:1;stroke:#000;stroke-width:1px;stroke-linecap:round;stroke-linejoin:round;stroke-opacity:1" transform="matrix(-1 0 0 1 -113.193 207.614)"/><path d="M-374.489 275.441v17.591l11.055 6.383v-17.591z" style="fill:#a7a9ac;fill-opacity:1;stroke:#000;stroke-width:1px;stroke-linecap:round;stroke-linejoin:round;stroke-opacity:1" transform="matrix(-1 0 0 1 -113.193 207.614)"/><path d="M-354.427 276.624v17.58l-9.007 5.21v-17.59z" style="fill:#919396;fill-opacity:1;stroke:#000;stroke-width:1px;stroke-linecap:round;stroke-linejoin:round;stroke-opacity:1" transform="matrix(-1 0 0 1 -113.193 207.614)"/><path d="m-374.489 275.441 9.027-5.188 11.035 6.37-9.007 5.2z" style="fill:#bcbec0;fill-opacity:1;stroke:#000;stroke-width:1px;stroke-linecap:round;stroke-linejoin:round;stroke-opacity:1" transform="matrix(-1 0 0 1 -93.077 196.098)"/><path d="M-374.489 275.441v17.591l11.055 6.383v-17.591z" style="fill:#a7a9ac;fill-opacity:1;stroke:#000;stroke-width:1px;stroke-linecap:round;stroke-linejoin:round;stroke-opacity:1" transform="matrix(-1 0 0 1 -93.077 196.098)"/><path d="M-354.427 276.624v17.58l-9.007 5.21v-17.59z" style="fill:#919396;fill-opacity:1;stroke:#000;stroke-width:1px;stroke-linecap:round;stroke-linejoin:round;stroke-opacity:1" transform="matrix(-1 0 0 1 -93.077 196.098)"/><path d="m-374.489 275.441 9.027-5.188 11.035 6.37-9.007 5.2z" style="fill:#bcbec0;fill-opacity:1;stroke:#000;stroke-width:1px;stroke-linecap:round;stroke-linejoin:round;stroke-opacity:1" transform="matrix(-1 0 0 1 -72.995 184.398)"/><path d="M-374.489 275.441v17.591l11.055 6.383v-17.591z" style="fill:#a7a9ac;fill-opacity:1;stroke:#000;stroke-width:1px;stroke-linecap:round;stroke-linejoin:round;stroke-opacity:1" transform="matrix(-1 0 0 1 -72.995 184.398)"/><path d="M-354.427 276.624v17.58l-9.007 5.21v-17.59z" style="fill:#919396;fill-opacity:1;stroke:#000;stroke-width:1px;stroke-linecap:round;stroke-linejoin:round;stroke-opacity:1" transform="matrix(-1 0 0 1 -72.995 184.398)"/><path d="m-374.489 275.441 9.027-5.188 11.035 6.37-9.007 5.2z" style="fill:#bcbec0;fill-opacity:1;stroke:#000;stroke-width:1px;stroke-linecap:round;stroke-linejoin:round;stroke-opacity:1" transform="matrix(-1 0 0 1 -52.878 172.882)"/><path d="M-374.489 275.441v17.591l11.055 6.383v-17.591z" style="fill:#a7a9ac;fill-opacity:1;stroke:#000;stroke-width:1px;stroke-linecap:round;stroke-linejoin:round;stroke-opacity:1" transform="matrix(-1 0 0 1 -52.878 172.882)"/><path d="M-354.427 276.624v17.58l-9.007 5.21v-17.59z" style="fill:#919396;fill-opacity:1;stroke:#000;stroke-width:1px;stroke-linecap:round;stroke-linejoin:round;stroke-opacity:1" transform="matrix(-1 0 0 1 -52.878 172.882)"/><path d="m-374.489 275.441 9.027-5.188 11.035 6.37-9.007 5.2z" style="fill:#bcbec0;fill-opacity:1;stroke:#000;stroke-width:1px;stroke-linecap:round;stroke-linejoin:round;stroke-opacity:1" transform="matrix(-1 0 0 1 -32.774 161.32)"/><path d="M-374.489 275.441v17.591l11.055 6.383v-17.591z" style="fill:#a7a9ac;fill-opacity:1;stroke:#000;stroke-width:1px;stroke-linecap:round;stroke-linejoin:round;stroke-opacity:1" transform="matrix(-1 0 0 1 -32.774 161.32)"/><path d="M-354.427 276.624v17.58l-9.007 5.21v-17.59z" style="fill:#919396;fill-opacity:1;stroke:#000;stroke-width:1px;stroke-linecap:round;stroke-linejoin:round;stroke-opacity:1" transform="matrix(-1 0 0 1 -32.774 161.32)"/><path d="m-374.489 275.441 9.027-5.188 11.035 6.37-9.007 5.2z" style="fill:#bcbec0;fill-opacity:1;stroke:#000;stroke-width:1px;stroke-linecap:round;stroke-linejoin:round;stroke-opacity:1" transform="matrix(-1 0 0 1 -12.658 149.804)"/><path d="M-374.489 275.441v17.591l11.055 6.383v-17.591z" style="fill:#a7a9ac;fill-opacity:1;stroke:#000;stroke-width:1px;stroke-linecap:round;stroke-linejoin:round;stroke-opacity:1" transform="matrix(-1 0 0 1 -12.658 149.804)"/><path d="M-354.427 276.624v17.58l-9.007 5.21v-17.59z" style="fill:#919396;fill-opacity:1;stroke:#000;stroke-width:1px;stroke-linecap:round;stroke-linejoin:round;stroke-opacity:1" transform="matrix(-1 0 0 1 -12.658 149.804)"/><path d="m-374.489 275.441 9.027-5.188 11.035 6.37-9.007 5.2z" style="fill:#bcbec0;fill-opacity:1;stroke:#000;stroke-width:1px;stroke-linecap:round;stroke-linejoin:round;stroke-opacity:1" transform="matrix(-1 0 0 1 7.425 138.104)"/><path d="M-374.489 275.441v17.591l11.055 6.383v-17.591z" style="fill:#a7a9ac;fill-opacity:1;stroke:#000;stroke-width:1px;stroke-linecap:round;stroke-linejoin:round;stroke-opacity:1" transform="matrix(-1 0 0 1 7.425 138.104)"/><path d="M-354.427 276.624v17.58l-9.007 5.21v-17.59z" style="fill:#919396;fill-opacity:1;stroke:#000;stroke-width:1px;stroke-linecap:round;stroke-linejoin:round;stroke-opacity:1" transform="matrix(-1 0 0 1 7.425 138.104)"/><path d="m-374.489 275.441 9.027-5.188 11.035 6.37-9.007 5.2z" style="fill:#bcbec0;fill-opacity:1;stroke:#000;stroke-width:1px;stroke-linecap:round;stroke-linejoin:round;stroke-opacity:1" transform="matrix(-1 0 0 1 27.541 126.588)"/><path d="M-374.489 275.441v17.591l11.055 6.383v-17.591z" style="fill:#a7a9ac;fill-opacity:1;stroke:#000;stroke-width:1px;stroke-linecap:round;stroke-linejoin:round;stroke-opacity:1" transform="matrix(-1 0 0 1 27.541 126.588)"/><path d="M-354.427 276.624v17.58l-9.007 5.21v-17.59z" style="fill:#919396;fill-opacity:1;stroke:#000;stroke-width:1px;stroke-linecap:round;stroke-linejoin:round;stroke-opacity:1" transform="matrix(-1 0 0 1 27.541 126.588)"/><path d="m-374.489 275.441 9.027-5.188 11.035 6.37-9.007 5.2z" style="fill:#bcbec0;fill-opacity:1;stroke:#000;stroke-width:1px;stroke-linecap:round;stroke-linejoin:round;stroke-opacity:1" transform="matrix(-1 0 0 1 47.67 114.785)"/><path d="M-374.489 275.441v17.591l11.055 6.383v-17.591z" style="fill:#a7a9ac;fill-opacity:1;stroke:#000;stroke-width:1px;stroke-linecap:round;stroke-linejoin:round;stroke-opacity:1" transform="matrix(-1 0 0 1 47.67 114.785)"/><path d="M-354.427 276.624v17.58l-9.007 5.21v-17.59z" style="fill:#919396;fill-opacity:1;stroke:#000;stroke-width:1px;stroke-linecap:round;stroke-linejoin:round;stroke-opacity:1" transform="matrix(-1 0 0 1 47.67 114.785)"/><path d="m-374.489 275.441 9.027-5.188 11.035 6.37-9.007 5.2z" style="fill:#bcbec0;fill-opacity:1;stroke:#000;stroke-width:1px;stroke-linecap:round;stroke-linejoin:round;stroke-opacity:1" transform="matrix(-1 0 0 1 67.785 103.27)"/><path d="M-374.489 275.441v17.591l11.055 6.383v-17.591z" style="fill:#a7a9ac;fill-opacity:1;stroke:#000;stroke-width:1px;stroke-linecap:round;stroke-linejoin:round;stroke-opacity:1" transform="matrix(-1 0 0 1 67.785 103.27)"/><path d="M-354.427 276.624v17.58l-9.007 5.21v-17.59z" style="fill:#919396;fill-opacity:1;stroke:#000;stroke-width:1px;stroke-linecap:round;stroke-linejoin:round;stroke-opacity:1" transform="matrix(-1 0 0 1 67.785 103.27)"/><path d="m-364.223 278.258-25.12 14.502-13.825-7.982 25.176-14.535zm40.496 23.508-25.119 14.502-13.825-7.982 25.176-14.536zm40.264 23.269-25.12 14.502-13.825-7.982 25.177-14.535zm40.497 23.508-25.12 14.502-13.825-7.982 25.176-14.535zm-60.457-35.073-25.12 14.502-13.825-7.982 25.176-14.536zm100.593 57.96-25.119 14.503-13.826-7.983 25.177-14.535zm-19.833-11.184-25.119 14.503-13.825-7.982 25.176-14.536zm-121.257-70.285-25.119 14.503-13.825-7.982 25.176-14.536zm80.76 46.778-25.118 14.502-13.826-7.982 25.176-14.536zm80.634 46.395-25.12 14.502-13.825-7.982 25.176-14.535z" style="fill:#ffdb6b;fill-opacity:1;stroke:#000;stroke-width:1px;stroke-linecap:round;stroke-linejoin:round;stroke-opacity:1" transform="translate(403.668 125.327)"/><path d="m-364.223 278.258-25.12 14.502-13.825-7.982 25.176-14.535zm40.496 23.508-25.119 14.502-13.825-7.982 25.176-14.536zm40.264 23.269-25.12 14.502-13.825-7.982 25.177-14.535zm40.497 23.508-25.12 14.502-13.825-7.982 25.176-14.535zm-60.457-35.073-25.12 14.502-13.825-7.982 25.176-14.536zm100.593 57.96-25.119 14.503-13.826-7.983 25.177-14.535zm-19.833-11.184-25.119 14.503-13.825-7.982 25.176-14.536zm-121.257-70.285-25.119 14.503-13.825-7.982 25.176-14.536zm80.76 46.778-25.118 14.502-13.826-7.982 25.176-14.536zm80.634 46.395-25.12 14.502-13.825-7.982 25.176-14.535z" style="fill:#ffdb6b;fill-opacity:1;stroke:#000;stroke-width:1px;stroke-linecap:round;stroke-linejoin:round;stroke-opacity:1" transform="matrix(-1 0 0 1 66 124.886)"/><path d="m108.465 333.967-14.486-.705-8.794 11.534L81.38 330.8l-13.686-4.799 12.134-7.944.335-14.5 11.305 9.086 13.893-4.162-5.147 13.559zm104.466 1.65-14.486-.706-8.793 11.534-3.806-13.995-13.687-4.799 12.134-7.944.335-14.5 11.305 9.086 13.893-4.163-5.147 13.56zm-20.808 49.418-14.486-.705-8.794 11.534-3.806-13.996-13.686-4.799 12.134-7.944.335-14.5 11.305 9.086 13.893-4.162-5.147 13.559zm115.187-47.348-14.486-.705-8.793 11.534-3.806-13.995-13.687-4.8 12.135-7.943.334-14.5 11.305 9.085 13.894-4.162-5.147 13.56zm91.334-20.568-14.486-.706-8.794 11.534-3.805-13.995-13.687-4.8 12.134-7.943.335-14.5 11.305 9.085 13.893-4.162-5.147 13.56zm-143.989-22.987-14.486-.705-8.794 11.534-3.806-13.995-13.686-4.8 12.134-7.943.335-14.5 11.305 9.085 13.893-4.162-5.147 13.56z" style="opacity:.98999999;fill:#6bf0fe;fill-opacity:1;stroke:#000;stroke-width:1.60000002;stroke-linecap:round;stroke-linejoin:round;stroke-miterlimit:4;stroke-dasharray:none;stroke-opacity:1;paint-order:normal"/><g transform="translate(-1038.123 166.34)"><path d="m1276.504-165.19-64.527 111.766-24.792 97.305-61.294 35.75.162.094h-1.28a157.324 36.611 0 0 0 157.237 36.043 157.324 36.611 0 0 0 157.203-36.043h-1.28l.145-.094-63.263-36.524-27.336-47.35v-62.85l27.38 7.337 32.891 32.89-20.12-75.087-63.235-63.236z" style="fill:url(#f);fill-opacity:1;stroke:#000;stroke-width:2.29999995;stroke-linecap:round;stroke-linejoin:round;stroke-miterlimit:4;stroke-dasharray:none;stroke-opacity:1"/><path d="M1187.94 40.245h185.615l-18.031-30.23H1195.54z" style="fill:#ef8c29;fill-opacity:1;stroke:#000;stroke-width:2.29999995;stroke-linecap:butt;stroke-linejoin:miter;stroke-miterlimit:4;stroke-dasharray:none;stroke-opacity:1"/><rect width="71.418" height="46.669" x="1243.27" y="1.707" rx="4.466" ry="4.201" style="opacity:.98999999;fill:url(#g);fill-opacity:1;stroke:#000;stroke-width:2.29999995;stroke-linecap:round;stroke-linejoin:round;stroke-miterlimit:4;stroke-dasharray:none;stroke-opacity:1;paint-order:normal"/><path d="m1346.316-67.087 9.79 2.623v-23.212l-9.749.063z" style="fill:url(#h);fill-opacity:1;stroke:none;stroke-width:1px;stroke-linecap:butt;stroke-linejoin:miter;stroke-opacity:1"/><path d="M1439.013 78.863a158.893 34.625 0 0 1-157.37 30.117 158.893 34.625 0 0 1-156.87-29.255 158.893 34.625 0 0 0-1.521 4.505 158.893 34.625 0 0 0 158.892 34.625 158.893 34.625 0 0 0 158.893-34.625 158.893 34.625 0 0 0-2.024-5.367" style="opacity:.98999999;fill:#ef8c29;fill-opacity:1;stroke:#000;stroke-width:3;stroke-linecap:round;stroke-linejoin:round;stroke-miterlimit:4;stroke-dasharray:none;stroke-opacity:1;paint-order:normal"/></g></svg>