<svg viewBox="1 1 190 190" xmlns="http://www.w3.org/2000/svg" xmlns:xlink="http://www.w3.org/1999/xlink"><linearGradient id="a" gradientUnits="userSpaceOnUse" x1="29.34" x2="81.84" y1="75.02" y2="44.35"><stop offset="0" stop-color="#a52714" stop-opacity=".6"/><stop offset=".66" stop-color="#a52714" stop-opacity="0"/></linearGradient><linearGradient id="b" gradientUnits="userSpaceOnUse" x1="110.87" x2="52.54" y1="164.5" y2="130.33"><stop offset="0" stop-color="#055524" stop-opacity=".4"/><stop offset=".33" stop-color="#055524" stop-opacity="0"/></linearGradient><linearGradient id="c" gradientUnits="userSpaceOnUse" x1="121.86" x2="136.55" y1="49.8" y2="114.13"><stop offset="0" stop-color="#ea6100" stop-opacity=".3"/><stop offset=".66" stop-color="#ea6100" stop-opacity="0"/></linearGradient><linearGradient id="d" gradientUnits="userSpaceOnUse" x1="121.86" x2="136.55" xlink:href="#c" y1="49.8" y2="114.13"/><linearGradient id="e" gradientUnits="userSpaceOnUse" x1="29.34" x2="81.84" xlink:href="#a" y1="75.02" y2="44.35"/><radialGradient id="f" cx="668.18" cy="55.95" gradientTransform="translate(-576)" gradientUnits="userSpaceOnUse" r="84.08"><stop offset="0" stop-color="#3e2723" stop-opacity=".2"/><stop offset="1" stop-color="#3e2723" stop-opacity="0"/></radialGradient><linearGradient id="g" gradientUnits="userSpaceOnUse" x1="110.87" x2="52.54" xlink:href="#b" y1="164.5" y2="130.33"/><radialGradient id="h" cx="597.88" cy="48.52" gradientTransform="translate(-576)" gradientUnits="userSpaceOnUse" r="78.04" xlink:href="#f"/><radialGradient id="i" cx="95.84" cy="96.14" gradientUnits="userSpaceOnUse" r="87.87"><stop offset="0" stop-color="#263238" stop-opacity=".2"/><stop offset="1" stop-color="#263238" stop-opacity="0"/></radialGradient><radialGradient id="j" cx="34.29" cy="32.01" gradientUnits="userSpaceOnUse" r="176.75"><stop offset="0" stop-color="#fff" stop-opacity=".1"/><stop offset="1" stop-color="#fff" stop-opacity="0"/></radialGradient><clipPath id="k"><circle cx="96" cy="96" r="88"/></clipPath><clipPath id="l"><path d="m8 184h83.8l39-39v-29h-69.6l-53.2-91.5z"/></clipPath><clipPath id="m"><path d="m96 56 34.6 60-38.6 68h92v-128z"/></clipPath><clipPath id="n"><path d="m22 8v40.3l39.4 67.7 34.6-60h88v-48z"/></clipPath><g clip-path="url(#k)"><path d="m22 8v108h39.4l34.6-60h88v-48z" fill="#db4437"/><path d="m22 8v108h39.4l34.6-60h88v-48z" fill="url(#a)"/></g><path clip-path="url(#k)" d="m62.3 115.7-39.8-68.3-.6 1 39 67.8z" fill="#3e2723" fill-opacity=".15"/><g clip-path="url(#k)"><path d="m8 184h83.8l39-39v-29h-69.6l-53.2-91.5z" fill="#0f9d58"/><path d="m8 184h83.8l39-39v-29h-69.6l-53.2-91.5z" fill="url(#b)"/></g><path clip-path="url(#k)" d="m129.8 117.3-.8-.4-38.3 67h1l38.3-67z" fill="#263238" fill-opacity=".15"/><g clip-path="url(#k)"><g clip-path="url(#l)"><path d="m96 56 34.6 60-38.6 68h92v-128z" fill="#ffcd40"/><path d="m96 56 34.6 60-38.6 68h92v-128z" fill="url(#c)"/></g></g><g clip-path="url(#k)"><path d="m96 56 34.6 60-38.6 68h92v-128z" fill="#ffcd40"/><path d="m96 56 34.6 60-38.6 68h92v-128z" fill="url(#d)"/></g><g clip-path="url(#k)"><g clip-path="url(#m)"><path d="m22 8v108h39.4l34.6-60h88v-48z" fill="#db4437"/><path d="m22 8v108h39.4l34.6-60h88v-48z" fill="url(#e)"/></g></g><path clip-path="url(#k)" d="m96 56v21l78.4-21z" fill="url(#f)"/><g clip-path="url(#k)"><g clip-path="url(#n)"><path d="m8 184h83.8l39-39v-29h-69.6l-53.2-91.5z" fill="#0f9d58"/><path d="m8 184h83.8l39-39v-29h-69.6l-53.2-91.5z" fill="url(#g)"/></g></g><path clip-path="url(#k)" d="m22 48.5 57.2 57.2-17.8 10.3z" fill="url(#h)"/><path clip-path="url(#k)" d="m91.8 184 21-78.3 17.8 10.3z" fill="url(#i)"/><g clip-path="url(#k)"><circle cx="96" cy="96" fill="#f1f1f1" r="40"/><circle cx="96" cy="96" fill="#4285f4" r="32"/></g><g clip-path="url(#k)"><path d="m96 55c-22 0-40 18-40 40v1c0-22 18-40 40-40h88v-1z" fill="#3e2723" fill-opacity=".2"/><path d="m130.6 116c-7 12-19.8 20-34.6 20s-27.7-8-34.6-20l-53.4-91.5v1l53.4 91.5c7 12 19.8 20 34.6 20s27.7-8 34.6-20z" fill="#fff" fill-opacity=".1"/><path d="m97 56h-.5c22 .3 39.5 18 39.5 40s-17.6 39.7-39.5 40h.5c22 0 40-18 40-40s-18-40-40-40z" fill="#3e2723" opacity=".1"/><path d="m131 117.3c3.4-5.8 5.4-12.6 5.4-20 0-4-.7-8.2-2-12 1 3.4 1.6 7 1.6 10.7 0 7.3-2 14-5.4 20l-38.6 68h1l38.2-66.5z" fill="#fff" fill-opacity=".2"/></g><g clip-path="url(#k)"><path d="m96 9c48.4 0 87.7 39 88 87.5v-.5c0-48.6-39.4-88-88-88s-88 39.4-88 88v.5c.3-48.5 39.6-87.5 88-87.5z" fill="#fff" fill-opacity=".2"/><path d="m96 183c48.4 0 87.7-39 88-87.5v.5c0 48.6-39.4 88-88 88s-88-39.4-88-88v-.5c.3 48.5 39.6 87.5 88 87.5z" fill="#3e2723" fill-opacity=".15"/></g><circle cx="96" cy="96" fill="url(#j)" r="88"/><path d="m0 0h192v192h-192z" fill="none"/></svg>