<svg viewBox="0 0 953 1022" xmlns="http://www.w3.org/2000/svg" xmlns:xlink="http://www.w3.org/1999/xlink"><radialGradient id="a" cx="-14515.52" cy="-8331.08" fx="-14544.28" gradientTransform="matrix(.76 .03 -.05 1.12 11552.47 10070.53)" gradientUnits="userSpaceOnUse" r="450.88"><stop offset=".1" stop-color="#ffea00"/><stop offset=".17" stop-color="#ffde00"/><stop offset=".28" stop-color="#ffbf00"/><stop offset=".43" stop-color="#ff8e00"/><stop offset=".77" stop-color="#ff272d"/><stop offset=".87" stop-color="#e0255a"/><stop offset=".95" stop-color="#cc2477"/><stop offset="1" stop-color="#c42482"/></radialGradient><radialGradient id="b" cx="625.3059" cy="153.3697" gradientUnits="userSpaceOnUse" r="973.2129"><stop offset="0" stop-color="#00ccda"/><stop offset=".22" stop-color="#0083ff"/><stop offset=".26" stop-color="#007af9"/><stop offset=".33" stop-color="#0060e8"/><stop offset=".33" stop-color="#005fe7"/><stop offset=".44" stop-color="#2639ad"/><stop offset=".52" stop-color="#401e84"/><stop offset=".57" stop-color="#4a1475"/></radialGradient><linearGradient id="c" gradientUnits="userSpaceOnUse" x1="540.67" x2="349.23" y1="729.19" y2="102.96"><stop offset="0" stop-color="#000f43" stop-opacity=".4"/><stop offset=".48" stop-color="#001962" stop-opacity=".17"/><stop offset="1" stop-color="#002079" stop-opacity="0"/></linearGradient><radialGradient id="d" cx="-8295.94" cy="-6518.56" gradientTransform="matrix(1.22 .12 -.12 1.22 10303.7 9601.96)" gradientUnits="userSpaceOnUse" r="266.89"><stop offset="0" stop-color="#ffea00"/><stop offset=".5" stop-color="#ff272d"/><stop offset="1" stop-color="#c42482"/></radialGradient><radialGradient id="e" cx="-8320.09" cy="-6774.47" gradientTransform="matrix(1.22 .12 -.12 1.22 10303.7 9601.96)" gradientUnits="userSpaceOnUse" r="445.68"><stop offset="0" stop-color="#ffe900"/><stop offset=".16" stop-color="#ffaf0e"/><stop offset=".32" stop-color="#ff7a1b"/><stop offset=".47" stop-color="#ff4e26"/><stop offset=".62" stop-color="#ff2c2e"/><stop offset=".76" stop-color="#ff1434"/><stop offset=".89" stop-color="#ff0538"/><stop offset="1" stop-color="#ff0039"/></radialGradient><radialGradient id="f" cx="-8257.05" cy="-6361.33" gradientTransform="matrix(1.22 .12 -.12 1.22 10303.7 9601.96)" gradientUnits="userSpaceOnUse" r="408.96"><stop offset="0" stop-color="#ff272d"/><stop offset=".5" stop-color="#c42482"/><stop offset=".99" stop-color="#620700"/></radialGradient><radialGradient id="g" cx="715.19" cy="394.04" fx="743.17" fy="380.21" gradientUnits="userSpaceOnUse" r="782.18"><stop offset=".16" stop-color="#ffea00"/><stop offset=".23" stop-color="#ffde00"/><stop offset=".37" stop-color="#ffbf00"/><stop offset=".54" stop-color="#ff8e00"/><stop offset=".76" stop-color="#ff272d"/><stop offset=".8" stop-color="#f92433"/><stop offset=".84" stop-color="#e91c45"/><stop offset=".89" stop-color="#cf0e62"/><stop offset=".94" stop-color="#b5007f"/></radialGradient><radialGradient id="h" cx="670.34" cy="31.29" gradientUnits="userSpaceOnUse" r="891.45"><stop offset=".28" stop-color="#ffea00"/><stop offset=".4" stop-color="#fd0"/><stop offset=".63" stop-color="#ffba00"/><stop offset=".86" stop-color="#ff9100"/><stop offset=".93" stop-color="#ff6711"/><stop offset=".99" stop-color="#ff4a1d"/></radialGradient><linearGradient id="i" gradientTransform="matrix(1.22 .12 -.12 1.22 10303.7 9601.96)" gradientUnits="userSpaceOnUse" x1="-8979.65" x2="-8672.62" y1="-6679.74" y2="-6758"><stop offset="0" stop-color="#c42482" stop-opacity=".5"/><stop offset=".47" stop-color="#ff272d" stop-opacity=".5"/><stop offset=".49" stop-color="#ff2c2c" stop-opacity=".51"/><stop offset=".68" stop-color="#ff7a1a" stop-opacity=".72"/><stop offset=".83" stop-color="#ffb20d" stop-opacity=".87"/><stop offset=".94" stop-color="#ffd605" stop-opacity=".96"/><stop offset="1" stop-color="#ffe302"/></linearGradient><linearGradient id="j" gradientTransform="matrix(.99 .1 -.1 .99 -174.07 1317.43)" gradientUnits="userSpaceOnUse" x1="210.35" x2="155.78" y1="-1084.01" y2="-1223.86"><stop offset="0" stop-color="#891551" stop-opacity=".6"/><stop offset="1" stop-color="#c42482" stop-opacity="0"/></linearGradient><linearGradient id="k" gradientTransform="matrix(.99 .1 -.1 .99 305.06 -242.98)" gradientUnits="userSpaceOnUse" x1="-12.96" x2="81.15" y1="716.83" y2="823.71"><stop offset=".01" stop-color="#891551" stop-opacity=".5"/><stop offset=".48" stop-color="#ff272d" stop-opacity=".5"/><stop offset="1" stop-color="#ff272d" stop-opacity="0"/></linearGradient><linearGradient id="l" gradientTransform="matrix(.99 .1 -.1 .99 305.06 -242.98)" gradientUnits="userSpaceOnUse" x1="165.1" x2="165.17" y1="902.62" y2="827.84"><stop offset="0" stop-color="#c42482"/><stop offset=".08" stop-color="#c42482" stop-opacity=".81"/><stop offset=".21" stop-color="#c42482" stop-opacity=".57"/><stop offset=".33" stop-color="#c42482" stop-opacity=".36"/><stop offset=".45" stop-color="#c42482" stop-opacity=".2"/><stop offset=".56" stop-color="#c42482" stop-opacity=".09"/><stop offset=".67" stop-color="#c42482" stop-opacity=".02"/><stop offset=".77" stop-color="#c42482" stop-opacity="0"/></linearGradient><linearGradient id="m" gradientUnits="userSpaceOnUse" x1="620.53" x2="926.19" y1="36.12" y2="719.61"><stop offset="0" stop-color="#fff14f"/><stop offset=".27" stop-color="#ffee4c"/><stop offset=".45" stop-color="#ffe643"/><stop offset=".61" stop-color="#ffd834"/><stop offset=".76" stop-color="#ffc41e"/><stop offset=".89" stop-color="#ffab02"/><stop offset=".9" stop-color="#ffa900"/><stop offset=".95" stop-color="#ffa000"/><stop offset="1" stop-color="#ff9100"/></linearGradient><linearGradient id="n" gradientUnits="userSpaceOnUse" x1="680.88" x2="536.1" y1="429.21" y2="817.96"><stop offset="0" stop-color="#ff8e00"/><stop offset=".04" stop-color="#ff8e00" stop-opacity=".86"/><stop offset=".08" stop-color="#ff8e00" stop-opacity=".73"/><stop offset=".13" stop-color="#ff8e00" stop-opacity=".63"/><stop offset=".18" stop-color="#ff8e00" stop-opacity=".56"/><stop offset=".23" stop-color="#ff8e00" stop-opacity=".51"/><stop offset=".28" stop-color="#ff8e00" stop-opacity=".5"/><stop offset=".39" stop-color="#ff8e00" stop-opacity=".48"/><stop offset=".52" stop-color="#ff8e00" stop-opacity=".42"/><stop offset=".68" stop-color="#ff8e00" stop-opacity=".31"/><stop offset=".84" stop-color="#ff8e00" stop-opacity=".17"/><stop offset="1" stop-color="#ff8e00" stop-opacity="0"/></linearGradient><path d="m770.28 91.56c-23.95 27.88-35.1 90.64-10.82 154.26s61.5 49.8 84.7 114.67c30.62 85.6 16.37 200.59 16.37 200.59s36.81 106.61 62.47-6.63c56.79-212.71-152.72-410.51-152.72-462.89z" fill="url(#a)"/><path d="m478.07 974.64c245.24 0 443.9-199.74 443.9-446s-198.66-446-443.66-446-443.66 199.68-443.66 445.97c-.47 246.53 198.42 446.03 443.42 446.03z" fill="url(#b)"/><path d="m810.67 803.64a246.89 246.89 0 0 1 -30.12 18.18 704 704 0 0 0 38.3-63c9.46-10.47 18.13-20.65 25.19-31.65 3.44-5.41 7.31-12.08 11.42-19.82 24.92-44.9 52.4-117.56 53.18-192.2v-.15c0-1.84 0-3.67 0-5.51a257.6 257.6 0 0 0 -5.71-55.75c.2 1.43.38 2.86.56 4.29-.22-1.1-.41-2.21-.64-3.31.37 2 .66 4 1 6 5.09 43.22 1.47 85.37-16.68 116.45-.29.45-.58.88-.87 1.32 9.41-47.23 12.56-99.39 2.09-151.6 0 0-4.19-25.38-35.38-102.44-18-44.35-49.83-80.72-78-107.21-24.69-30.55-47.11-51-59.47-64.06-25.82-27.19-36.64-47.57-41.09-60.87-3.85-1.93-53.14-49.81-57.05-51.63-21.51 33.35-89.16 137.67-57 235.15 14.58 44.17 51.47 90 90.07 115.74 1.69 1.94 23 25 33.09 77.16 10.45 53.85 5 95.86-16.54 158-25.29 54.51-90.07 108.39-150.72 113.9-129.67 11.78-177.15-65.11-177.15-65.11 46.34 18.52 97.57 14.65 128.72-4.56 31.4-19.43 50.39-33.83 65.81-28.15 15.18 5.62 27.32-10.81 16.42-27.81a78.5 78.5 0 0 0 -79.4-34.57c-31.43 5.11-60.23 30-101.41 5.89a85.53 85.53 0 0 1 -7.73-5.06c-2.71-1.79 8.83 2.72 6.13.69-8-4.35-22.2-13.84-25.88-17.22-.61-.56 6.22 2.18 5.61 1.62-38.51-31.71-33.7-53.13-32.49-66.57 1-10.75 8-24.52 19.75-30.11 5.69 3.11 9.24 5.48 9.24 5.48s-2.43-5-3.74-7.58c.46-.2.9-.15 1.36-.34 4.66 2.25 15 8.1 20.41 11.67 7.07 5 9.33 9.44 9.33 9.44s1.86-1 .48-5.37c-.5-1.78-2.65-7.45-9.65-13.17h.44a81.2 81.2 0 0 1 11.87 8.24c2-7.18 5.53-14.68 4.75-28.09-.48-9.43-.26-11.87-1.92-15.51-1.49-3.13.83-4.35 3.42-1.1a32.83 32.83 0 0 0 -2.21-7.4v-.24c3.23-11.24 68.25-40.46 73-43.88a67.36 67.36 0 0 0 19.13-20.8c3.62-5.76 6.34-13.85 7-26.11.36-8.84-3.76-14.73-69.51-21.62-18-1.77-28.53-14.8-34.53-26.82-1.09-2.59-2.21-4.94-3.33-7.28a58 58 0 0 1 -2.56-8.43c10.75-30.87 28.81-57 55.37-76.7 1.45-1.32-5.78.34-4.34-1 1.69-1.54 12.71-6 14.79-7 2.54-1.2-10.88-6.9-22.73-5.51-12.07 1.36-14.63 2.8-21.07 5.53 2.67-2.66 11.17-6.15 9.18-6.13-13 2-29.18 9.56-43 18.12a10.73 10.73 0 0 1 .83-4.35c-6.44 2.73-22.26 13.79-26.87 23.14a44.33 44.33 0 0 0 .27-5.4 84.48 84.48 0 0 0 -13.19 13.82l-.24.22c-37.36-15-70.23-16-98.05-9.28-6.09-6.11-9.06-1.64-22.91-32.07-.94-1.83.72 1.81 0 0-2.28-5.9 1.39 7.87 0 0-23.28 18.37-53.92 39.19-68.63 53.89-.18.59 17.16-4.9 0 0-6 1.72-5.6 5.28-6.51 37.5-.22 2.44 0 5.18-.22 7.38-11.75 15-19.75 27.64-22.78 34.21-15.19 26.18-31.93 67-48.15 131.55a334.36 334.36 0 0 1 25.79-50.32c-13.49 34.27-26.53 88.08-29.13 170.94a483.61 483.61 0 0 1 12.53-50.66 473 473 0 0 0 34.73 201.07c9.33 22.82 24.76 57.46 51 95.4 82.57 86.89 198.98 140.89 327.88 140.89 134.58 0 255.43-58.87 338.46-152.36z" fill="url(#c)"/><path d="m711.1 866.71c162.87-18.86 235-186.7 142.38-190-83.63-2.71-219.48 198.9-142.38 190z" fill="url(#d)"/><path d="m865.21 642.42c112.05-65.21 82.79-206.08 82.79-206.08s-43.25 50.24-72.62 130.32c-28.98 79.34-77.54 115.15-10.17 75.76z" fill="url(#e)"/><path d="m509.47 950.06c156.23 49.85 290.53-73.22 207.74-114.32-75.21-37.06-281.89 90.75-207.74 114.32z" fill="url(#f)"/><path d="m876.85 702.23c3.8-5.36 8.94-22.53 13.48-30.21 27.58-44.52 27.78-80 27.78-80.84 16.66-83.22 15.15-117.2 4.9-180-8.25-50.6-44.32-123.09-75.57-158-32.2-36-9.51-24.25-40.69-50.52-27.33-30.29-53.82-60.29-68.25-72.36-104.28-87.21-101.93-105.72-99.92-108.88-.34.37-.84.92-1.47 1.64-1.24-4.92-2.11-9.06-2.11-9.06s-57 57-69 152c-7.83 62 15.38 126.68 49 168a381.37 381.37 0 0 0 59 58c25.4 36.48 39.38 81.49 39.38 129.91 0 121.24-98.34 219.53-219.65 219.53a220.45 220.45 0 0 1 -49.13-5.52c-57.24-10.92-90.3-39.8-106.78-59.41-9.45-11.23-13.46-19.42-13.46-19.42 51.28 18.37 108 14.53 142.47-4.52 34.75-19.26 55.77-33.55 72.84-27.92 16.82 5.61 30.21-10.67 18.2-27.54-11.77-16.85-42.4-41-87.88-34.29-34.79 5.07-66.66 29.76-112.24 5.84a96.31 96.31 0 0 1 -8.55-5c-3-1.77 9.77 2.69 6.79.68-8.87-4.32-24.57-13.73-28.64-17.07-.68-.56 6.88 2.16 6.2 1.6-42.62-31.45-37.3-52.69-36-66 1.07-10.66 8.81-24.32 21.86-29.86 6.3 3.08 10.23 5.43 10.23 5.43s-2.69-4.92-4.14-7.51c.51-.19 1-.15 1.5-.34 5.16 2.23 16.58 8 22.59 11.57 7.83 4.95 10.32 9.36 10.32 9.36s2.06-1 .54-5.33c-.56-1.77-2.93-7.39-10.68-13.07h.48a90.85 90.85 0 0 1 13.13 8.17c2.19-7.12 6.12-14.56 5.25-27.86-.53-9.35-.28-11.78-2.12-15.39-1.65-3.1.92-4.31 3.78-1.09a30 30 0 0 0 -2.44-7.34v-.24c3.57-11.14 75.53-40.12 80.77-43.51a70.31 70.31 0 0 0 21.17-20.63c4-5.72 7-13.73 7.75-25.89.25-5.48-1.44-9.82-20.5-14-11.44-2.49-29.14-4.91-56.43-7.47-19.9-1.76-31.58-14.68-38.21-26.6-1.21-2.57-2.45-4.9-3.68-7.22a53.11 53.11 0 0 1 -2.83-8.36 158.47 158.47 0 0 1 61.28-76.06c1.6-1.31-6.4.33-4.8-1 1.87-1.52 14.06-5.93 16.37-6.92 2.81-1.19-12-6.84-25.16-5.47-13.36 1.35-16.19 2.78-23.32 5.49 3-2.64 12.37-6.1 10.16-6.08-14.4 2-32.3 9.48-47.6 18a9.68 9.68 0 0 1 .92-4.31c-7.13 2.71-24.64 13.67-29.73 23a39.49 39.49 0 0 0 .29-5.35 88.68 88.68 0 0 0 -14.6 13.7l-.27.22c-41.29-14.91-77.68-15.91-108.43-9.19-6.74-6.06-17.57-15.23-32.89-45.4-1-1.82-1.6 3.75-2.4 2-6-13.81-9.55-36.44-9-52 0 0-12.32 5.61-22.51 29.06-1.89 4.21-3.11 6.54-4.32 8.87-.56.68 1.27-7.7 1-7.24-1.77 3-6.36 7.19-8.37 12.62-1.38 4-3.32 6.27-4.56 11.29l-.29.46c-.1-1.48.37-6.08 0-5.14a236.1 236.1 0 0 0 -12.32 29.76c-5.49 18-11.88 42.61-12.89 74.57-.24 2.42 0 5.14-.25 7.32-13 14.83-21.86 27.39-25.2 33.91-16.81 26-35.33 66.44-53.29 130.46a319.14 319.14 0 0 1 28.54-50c-14.93 33.99-29.36 87.36-32.25 169.54a438.52 438.52 0 0 1 13.87-50.24c-2.58 54.8 3.81 122.74 38.45 199.44 20.57 45 67.92 136.6 183.62 208.05s39.36 29.3 107 51.26c5 1.81 10.06 3.6 15.23 5.33-1.62-.66-3.19-1.34-4.71-2.05a484.88 484.88 0 0 0 138.81 20.41c175.18.15 226.85-70.2 226.85-70.2l-.51.38q3.71-3.49 7.14-7.26c-27.64 26.08-90.75 27.84-114.3 25.95 40.22-11.81 66.69-21.81 118.17-41.52q9-3.36 18.48-7.64l2.05-.94c1.25-.58 2.49-1.13 3.75-1.74a349.21 349.21 0 0 0 70.26-44c51.7-41.3 62.95-81.56 68.83-108.1-.82 2.54-3.37 8.47-5.17 12.32-13.31 28.48-42.84 46-74.91 60.95a689 689 0 0 0 42.38-62.44c10.48-10.37 13.71-26.61 21.56-37.53z" fill="url(#g)"/><path d="m813.92 801c21.08-23.24 40-49.82 54.35-80 36.9-77.58 94-206.58 49-341.31-35.5-106.47-84.27-164.69-146.16-221.57-100.55-92.36-128.63-133.6-128.63-158.12 0 0-116.09 129.41-65.74 264.38s153.46 130 221.68 270.87c80.27 165.74-64.95 346.61-185 397.24 7.35-1.63 267-60.38 280.61-208.88-.35 2.73-6.2 43.8-80.11 77.39z" fill="url(#h)"/><path d="m477.59 319.37c.39-8.77-4.16-14.66-76.68-21.46-29.84-2.76-41.26-30.33-44.75-41.94-10.61 27.56-15 56.49-12.64 91.48 1.61 22.92 17 47.52 24.37 62 0 0 1.64-2.13 2.39-2.91 13.86-14.43 71.94-36.42 77.39-39.54 6.02-3.84 28.91-20.56 29.92-47.63z" fill="url(#i)"/><path d="m158.31 156.47c-1-1.82-1.6 3.75-2.4 2-6-13.81-9.58-36.2-8.72-52 0 0-12.32 5.61-22.51 29.06-1.89 4.21-3.11 6.54-4.32 8.86-.56.68 1.27-7.7 1-7.24-1.77 3-6.36 7.19-8.35 12.38-1.65 4.24-3.35 6.52-4.61 11.77-.39 1.43.39-6.32.05-5.38-23.73 45.76-28.26 115.08-25.76 112.08 50.48-53.86 108.31-66.64 108.31-66.64-6.15-4.53-19.53-17.63-32.7-44.89z" fill="url(#j)"/><path d="m349.84 720.1c-69.72-29.77-149-71.75-146-167.14 4.08-125.61 117.16-100.78 117.16-100.78-4.27 1-15.68 9.16-19.72 17.82-4.27 10.83-12.07 35.28 11.55 60.9 37.09 40.19-76.2 95.36 98.66 199.57 4.41 2.4-41-1.43-61.64-10.36z" fill="url(#k)"/><path d="m325.07 657.5c49.44 17.21 107 14.19 141.52-4.86 23.09-12.85 52.7-33.43 70.92-28.35-15.78-6.24-27.73-9.15-42.1-9.86-2.45 0-5.38-.05-8-.32a136.23 136.23 0 0 0 -15.76.86c-8.9.82-18.77 6.43-27.74 5.53-.48 0 8.7-3.77 8-3.61-4.75 1-9.92 1.21-15.37 1.88-3.47.39-6.45.82-9.89 1-103 8.73-190-55.81-190-55.81-7.41 25 33.17 74.3 88.52 93.57z" fill="url(#l)"/><path d="m813.74 801.65c104.16-102.27 156.86-226.58 134.58-366 0 0 8.9 71.5-24.85 144.63 16.21-71.39 18.1-160.11-25-252-57.47-122.64-152.02-187.17-188.12-214.09-54.69-40.79-77.35-82.32-77.78-90.89-16.34 33.48-65.77 148.2-5.31 247 56.64 92.56 145.86 120 208.33 204.95 115.08 156.42-21.85 326.4-21.85 326.4z" fill="url(#m)"/><path d="m798.81 535.55c-36.4-75.2-81.81-108-124.81-143.55 5 7 6.23 9.47 9 14 37.83 40.32 93.61 138.66 53.11 262.11-76.23 232.37-381.11 122.95-413.11 92.21 12.93 134.49 238 198.84 384.6 111.63 83.4-78.95 150.87-213.16 91.21-336.4z" fill="url(#n)"/></svg>